<svg width="975" height="915" viewBox="0 0 975 915" fill="none" xmlns="http://www.w3.org/2000/svg">
<path opacity="0.5" d="M737.8 327C739.7 329.2 741.1 331.8 741.9 334.7L744.4 338.4C744.5 338.3 744.6 338.3 744.7 338.3L648.3 10.1001C608.4 18.2001 572.9 30.9001 542.8 47.4001L734.5 324C735.7 324.8 736.8 325.8 737.8 327Z" fill="white"/>
<path opacity="0.4" d="M745 338.1V337.4L697.7 176.3C686.2 137.2 707.2 95.8001 745 83.1001V0.100098C710.5 0.600098 678.1 4.1001 648.3 10.1001L744.8 338.3C744.8 338.2 744.9 338.1 745 338.1Z" fill="white"/>
<path opacity="0.2" d="M901.6 15.3999C886.4 11.8999 869.9 8.8999 852 6.3999L745.4 337.8C745.7 337.6 746 337.5 746.3 337.3L917.1 114.6L974.2 39.7999V39.1999C955.8 30.6999 931.4 22.2999 901.6 15.3999Z" fill="white"/>
<path d="M721.6 359.2C719 358.9 716.5 357.9 714.4 356.6L610.3 418.4C628.5 425.8 647.8 432.7 668.3 439.2L674.3 431.3L730.5 358.1C727.7 359.1 724.7 359.6 721.6 359.2Z" fill="white"/>
<path opacity="0.7" d="M690.1 315.9H690.2L698.5 317L703.4 317.6C703.5 317.6 703.6 317.7 703.6 317.7L706.4 318.1L714 319.1L719.6 319.8L459 121.1C439.7 150 429.3 182.8 429.3 218.3C429.3 218.4 429.3 218.5 429.3 218.7L681 314.7L690.1 315.9Z" fill="white"/>
<path opacity="0.3" d="M745 83.2V337.5V338.2C745.1 338.1 745.3 338 745.4 338L852 6.5C822.7 2.5 789.9 0 753.9 0C750.9 0 748 0 745 0.1V83.2Z" fill="white"/>
<path opacity="0.95" d="M709.6 352.6C708.9 351.7 708.2 350.8 707.7 349.8L705.5 346.7L532.2 379.5C554.9 393.7 581 406.6 610.2 418.4L714.3 356.6C712.6 355.5 711 354.2 709.6 352.6Z" fill="white"/>
<path opacity="0.9" d="M696.3 333.2L452.9 303.6C470.4 332.5 497.3 357.5 532.3 379.4L705.6 346.6L696.3 333.2Z" fill="white"/>
<path opacity="0.75" d="M692.4 327.7L555.3 309.8C552.3 309.4 550.1 306.6 550.5 303.4C550.9 300.3 553.6 298.1 556.7 298.5L681 314.7L429.4 218.5C429.5 250.1 437.6 278.3 452.9 303.6L696.3 333.2L692.4 327.7Z" fill="white"/>
<path opacity="0.5" d="M584.3 914.8C589.8 915 595.4 915 600.9 915C628.7 915 654.8 913.5 679.3 910.6L670.6 438.2L584.3 914.8Z" fill="white"/>
<path opacity="0.4" d="M446.8 897.3C489.4 906.9 537.4 913.5 584.3 914.7L670.5 438.1L446.8 897.3Z" fill="white"/>
<path opacity="0.3" d="M604.5 524.3L403.2 786.8L345 862.7C369.8 875.9 405.8 888.1 446.8 897.4L670.5 438.3L604.5 524.3Z" fill="white"/>
<path opacity="0.6" d="M679.2 910.6C716.5 906.2 750 898.8 779.5 888.6L670.5 438.2L679.2 910.6Z" fill="white"/>
<path opacity="0.9" d="M670.5 438.2L934.2 761C945.2 736.2 950.7 709.8 950.7 682.5C950.7 670.6 949.8 659.2 948.1 648.3L670.5 438.2Z" fill="white"/>
<path d="M696.1 446.4C687.2 443.7 678.7 440.9 670.5 438.2L948 648.3C932.6 551.3 848.7 493.5 696.1 446.4Z" fill="white"/>
<path opacity="0.7" d="M779.4 888.7C814.4 876.7 843.8 861 868 842.6L670.5 438.2L779.4 888.7Z" fill="white"/>
<path opacity="0.8" d="M868 842.6C898.6 819.2 920.6 791.4 934.2 761L670.5 438.2L868 842.6Z" fill="white"/>
<path d="M746.9 337.2C746.7 337.3 746.5 337.3 746.3 337.4V337.5C746.5 337.3 746.7 337.3 746.9 337.2Z" fill="white"/>
<path d="M745 338.3V338.1C744.9 338.2 744.8 338.2 744.7 338.3L744.8 338.5C744.8 338.4 744.9 338.3 745 338.3Z" fill="white"/>
<path d="M756.3 336.2L754.3 336C751.7 335.7 749.2 336.2 746.9 337.2C746.7 337.3 746.5 337.4 746.3 337.5C746 337.7 745.7 337.9 745.4 338.1C745.3 338.2 745.1 338.3 745 338.3C744.9 338.4 744.8 338.4 744.8 338.4C744.7 338.4 744.7 338.5 744.6 338.5C744.5 338.5 744.5 338.6 744.4 338.6C744.3 338.7 744.2 338.7 744.2 338.8C744.1 338.9 744 338.9 743.9 339C743.7 339.1 743.6 339.3 743.5 339.4C741.4 341.3 739.9 343.8 739.2 346.7C739.1 347.3 738.9 347.9 738.8 348.5L738.7 349.3C738.6 350.2 738.6 351.1 738.7 351.9C739.1 358.7 744.2 364.4 751 365.3L766.9 367.2L768.6 352.1C769.5 344.3 764 337.1 756.3 336.2Z" fill="white"/>
<g opacity="0.7">
<g opacity="0.7">
<path opacity="0.7" d="M741.9 334.7C742.1 335.5 742.3 336.3 742.4 337.2C742.4 337.5 742.5 337.9 742.5 338.2C742.5 338.4 742.6 338.6 742.6 338.8C742.6 339 742.7 339.3 742.7 339.5V339.6C742.8 339.5 742.8 339.5 742.9 339.4C743.1 339.2 743.4 339 743.6 338.8C743.7 338.7 743.8 338.6 743.9 338.6C744 338.5 744.1 338.5 744.2 338.4C744.3 338.3 744.4 338.3 744.5 338.2L741.9 334.7Z" fill="white"/>
</g>
</g>
<path opacity="0.6" d="M459 121.1L719.6 319.9L721.2 320.1L726.7 320.8C727.1 320.9 727.5 321 728 321.1C730.1 321.6 732 322.3 733.8 323.4C734 323.5 734.2 323.7 734.4 323.9L542.7 47.2998C506.8 66.9998 478.4 91.9998 459 121.1Z" fill="white"/>
<path d="M671 438H0" stroke="white" stroke-miterlimit="10"/>
</svg>
