<svg width="999" height="1300" viewBox="0 0 999 1300" fill="none" xmlns="http://www.w3.org/2000/svg">
<g clip-path="url(#clip0)">
<g opacity="0.5">
<path opacity="0.5" d="M228.3 127.4C222.9 131.4 217.5 135.4 212.2 139.5C185.5 160.1 161.6 180.9 140.3 201.8L498.8 648.5L228.3 127.4Z" fill="white"/>
</g>
<g opacity="0.4">
<path opacity="0.4" d="M373 42.2C325 64.5 274.1 93.8999 228.3 127.4L498.8 648.4L373 42.2Z" fill="white"/>
</g>
<g opacity="0.3">
<path opacity="0.3" d="M498.3 516.9L496.8 115.9L496.3 0C462.7 5.7 419.2 20.7 373 42.2L498.8 648.4L498.3 516.9Z" fill="white"/>
</g>
<g opacity="0.6">
<path opacity="0.6" d="M140.3 201.7C107.7 233.6 81.2 265.5 60.4 297.1L498.8 648.4L140.3 201.7Z" fill="white"/>
</g>
<g opacity="0.9">
<path opacity="0.9" d="M498.8 648.3L6.69998 534.2C14.5 566.1 28.9 595.6 49.1 621.7C57.9 633.1 67.2 643.4 77 652.6L498.8 648.3Z" fill="white"/>
</g>
<path d="M468.2 659.5C478.7 655.6 488.9 651.9 498.8 648.4L76.9 652.7C163.5 734.2 286.9 727.3 468.2 659.5Z" fill="white"/>
<g opacity="0.7">
<path opacity="0.7" d="M60.4 297.1C35.8 334.5 19.1 371.4 9.60001 406.9L498.8 648.4L60.4 297.1Z" fill="white"/>
</g>
<g opacity="0.8">
<path opacity="0.8" d="M9.6 406.9C-2.4 452 -2.9 495 6.6 534.2L498.7 648.3L9.6 406.9Z" fill="white"/>
</g>
<g opacity="0.5">
<path opacity="0.5" d="M769.8 1171.9C775.2 1167.9 780.6 1163.9 785.9 1159.8C812.6 1139.2 836.5 1118.4 857.8 1097.5L499.3 650.9L769.8 1171.9Z" fill="white"/>
</g>
<g opacity="0.4">
<path opacity="0.4" d="M625.1 1257.1C673.1 1234.8 724 1205.4 769.8 1171.9L499.3 650.9L625.1 1257.1Z" fill="white"/>
</g>
<g opacity="0.3">
<path opacity="0.3" d="M499.8 782.4L501.3 1183.4L501.7 1299.2C535.3 1293.5 578.8 1278.5 625 1257L499.3 650.9L499.8 782.4Z" fill="white"/>
</g>
<g opacity="0.6">
<path opacity="0.6" d="M857.8 1097.6C890.4 1065.7 916.9 1033.8 937.7 1002.2L499.3 650.9L857.8 1097.6Z" fill="white"/>
</g>
<g opacity="0.9">
<path opacity="0.9" d="M499.3 650.9L991.4 765C983.6 733.1 969.2 703.6 949 677.5C940.2 666.1 930.9 655.8 921.1 646.6L499.3 650.9Z" fill="white"/>
</g>
<path d="M529.9 639.8C519.4 643.7 509.2 647.4 499.3 650.9L921.2 646.6C834.5 565.1 711.2 572 529.9 639.8Z" fill="white"/>
<g opacity="0.7">
<path opacity="0.7" d="M937.7 1002.2C962.3 964.8 979 927.9 988.5 892.4L499.3 650.9L937.7 1002.2Z" fill="white"/>
</g>
<g opacity="0.8">
<path opacity="0.8" d="M988.4 892.4C1000.4 847.3 1000.9 804.3 991.3 765.1L499.3 650.9L988.4 892.4Z" fill="white"/>
</g>
</g>
<defs>
<clipPath id="clip0">
<rect width="998.1" height="1299.3" fill="white"/>
</clipPath>
</defs>
</svg>
