<svg width="979" height="1274" viewBox="0 0 979 1274" fill="none" xmlns="http://www.w3.org/2000/svg">
<g opacity="0.3">
<g opacity="0.5">
<path opacity="0.5" d="M224.702 124.919C219.411 128.842 214.12 132.764 208.927 136.784C182.764 156.983 159.346 177.378 138.475 197.871L489.755 635.873L224.702 124.919Z" fill="white"/>
</g>
<g opacity="0.4">
<path opacity="0.4" d="M366.488 41.3784C319.455 63.2442 269.58 92.0717 224.702 124.919L489.755 635.774L366.488 41.3784Z" fill="white"/>
</g>
<g opacity="0.3">
<path opacity="0.3" d="M489.265 506.835L487.795 113.643L487.305 0C454.382 5.58901 411.758 20.2969 366.488 41.3783L489.755 635.774L489.265 506.835Z" fill="white"/>
</g>
<g opacity="0.6">
<path opacity="0.6" d="M138.475 197.772C106.531 229.051 80.5648 260.33 60.1837 291.315L489.755 635.774L138.475 197.772Z" fill="white"/>
</g>
<g opacity="0.9">
<path opacity="0.9" d="M489.755 635.676L7.56509 523.798C15.208 555.077 29.318 584.002 49.1112 609.594C57.734 620.772 66.8467 630.871 76.4494 639.892L489.755 635.676Z" fill="white"/>
</g>
<path d="M459.771 646.658C470.06 642.834 480.054 639.206 489.755 635.774L76.3514 639.991C161.207 719.904 282.122 713.138 459.771 646.658Z" fill="white"/>
<g opacity="0.7">
<path opacity="0.7" d="M60.1837 291.315C36.0791 327.987 19.7154 364.168 10.4067 398.977L489.755 635.774L60.1837 291.315Z" fill="white"/>
</g>
<g opacity="0.8">
<path opacity="0.8" d="M10.4067 398.977C-1.35166 443.198 -1.84159 485.361 7.4671 523.798L489.657 635.676L10.4067 398.977Z" fill="white"/>
</g>
<g opacity="0.5">
<path opacity="0.5" d="M755.298 1149.08C760.589 1145.16 765.88 1141.24 771.073 1137.22C797.236 1117.02 820.654 1096.62 841.525 1076.13L490.245 638.226L755.298 1149.08Z" fill="white"/>
</g>
<g opacity="0.4">
<path opacity="0.4" d="M613.512 1232.62C660.545 1210.76 710.42 1181.93 755.298 1149.08L490.245 638.226L613.512 1232.62Z" fill="white"/>
</g>
<g opacity="0.3">
<path opacity="0.3" d="M490.735 767.165L492.205 1160.36L492.597 1273.9C525.52 1268.31 568.144 1253.6 613.414 1232.52L490.245 638.226L490.735 767.165Z" fill="white"/>
</g>
<g opacity="0.6">
<path opacity="0.6" d="M841.525 1076.23C873.469 1044.95 899.435 1013.67 919.816 982.685L490.245 638.226L841.525 1076.23Z" fill="white"/>
</g>
<g opacity="0.9">
<path opacity="0.9" d="M490.245 638.226L972.435 750.104C964.792 718.825 950.682 689.899 930.889 664.308C922.266 653.13 913.153 643.03 903.551 634.009L490.245 638.226Z" fill="white"/>
</g>
<path d="M520.229 627.342C509.94 631.166 499.946 634.794 490.245 638.226L903.649 634.009C818.695 554.096 697.878 560.862 520.229 627.342Z" fill="white"/>
<g opacity="0.7">
<path opacity="0.7" d="M919.816 982.685C943.921 946.013 960.285 909.832 969.593 875.023L490.245 638.226L919.816 982.685Z" fill="white"/>
</g>
<g opacity="0.8">
<path opacity="0.8" d="M969.495 875.023C981.254 830.801 981.744 788.639 972.337 750.202L490.245 638.226L969.495 875.023Z" fill="white"/>
</g>
</g>
</svg>
