<svg width="799" height="1028" viewBox="0 0 799 1028" fill="none" xmlns="http://www.w3.org/2000/svg">
<g opacity="0.5">
<path opacity="0.5" d="M501 371.7C503 374.4 504.2 377.5 504.8 380.9L507.3 385.3C507.4 385.2 507.5 385.2 507.6 385.2L432.5 3.2C386.4 8.2 344.9 18.9 309 34.4L497.4 367.8C498.7 369 499.9 370.3 501 371.7Z" fill="#5A9453"/>
</g>
<g opacity="0.4">
<path opacity="0.4" d="M507.9 385L508 384.3L471.3 196.9C462.4 151.4 490.5 106.6 534.6 96.2L543.2 2C504 -1 467 -0.500003 432.5 3.2L507.6 385.1C507.7 385.1 507.8 385 507.9 385Z" fill="#5A9453"/>
</g>
<g opacity="0.2">
<path opacity="0.2" d="M719 35.7C702.2 30.2 683.8 25 663.8 20.3L508.4 384.8C508.8 384.7 509.1 384.5 509.5 384.4L726.2 149.9L798.7 71.1L798.8 70.4C778.8 58.7 752 46.6 719 35.7Z" fill="#5A9453"/>
</g>
<path d="M479.2 406.5C476.2 405.8 473.6 404.5 471.3 402.8L346.9 462C366.7 472.2 388 482.1 410.5 491.6L418.2 483.3L489.5 406.2C486.1 407.1 482.6 407.2 479.2 406.5Z" fill="#5A9453"/>
<g opacity="0.7">
<path opacity="0.7" d="M448 354.2H448.1L457.4 356.3L462.9 357.5C463 357.5 463.1 357.6 463.2 357.6L466.4 358.3L474.9 360.2L481.2 361.6L206.5 109.3C181.6 140 166.5 176.2 162.8 216.3C162.8 216.4 162.8 216.6 162.8 216.7L437.9 351.9L448 354.2Z" fill="#5A9453"/>
</g>
<g opacity="0.3">
<path opacity="0.3" d="M534.5 96.2L508 384.3L507.9 385C508.1 384.9 508.2 384.9 508.4 384.8L663.8 20.4C631 12.8 594.1 6.59999 553.2 2.79999C549.8 2.49999 546.5 2.19999 543.1 1.89999L534.5 96.2Z" fill="#5A9453"/>
</g>
<g opacity="0.95">
<path opacity="0.95" d="M466.3 397.7C465.6 396.6 464.9 395.5 464.4 394.4L462.3 390.6L262.5 409.7C286.7 428.2 315 445.5 346.8 461.9L471.2 402.7C469.4 401.3 467.7 399.7 466.3 397.7Z" fill="#5A9453"/>
</g>
<g opacity="0.9">
<path opacity="0.9" d="M453.2 374.4L180.5 315.4C197.3 349.9 225.2 381.1 262.5 409.6L462.3 390.5L453.2 374.4Z" fill="#5A9453"/>
</g>
<g opacity="0.75">
<path opacity="0.75" d="M449.4 367.7L296 333.1C292.6 332.3 290.5 328.9 291.2 325.4C292 321.9 295.3 319.7 298.7 320.5L437.8 351.9L162.7 216.7C159.5 252.5 165.7 285.3 180.5 315.5L453.2 374.5L449.4 367.7Z" fill="#5A9453"/>
</g>
<g opacity="0.5">
<path opacity="0.5" d="M265.6 1021.7C271.9 1022.4 278.1 1023.1 284.4 1023.7C315.9 1026.6 345.7 1027.6 373.6 1026.9L413 490.7L265.6 1021.7Z" fill="#5A9453"/>
</g>
<g opacity="0.4">
<path opacity="0.4" d="M111.7 987.6C159 1003 212.7 1015.4 265.6 1021.7L413 490.7L111.7 987.6Z" fill="#5A9453"/>
</g>
<g opacity="0.3">
<path opacity="0.3" d="M329.3 581.3L73.8 857.8L0 937.7C26.8 955.3 66.2 972.8 111.7 987.6L413.1 490.7L329.3 581.3Z" fill="#5A9453"/>
</g>
<g opacity="0.6">
<path opacity="0.6" d="M373.6 1026.9C416.4 1025.9 455 1020.9 489.5 1012.5L413 490.7L373.6 1026.9Z" fill="#5A9453"/>
</g>
<g opacity="0.9">
<path opacity="0.9" d="M413.1 490.7L678.2 883.9C693.3 857 702.2 827.6 705.1 796.7C706.3 783.2 706.5 770.2 705.7 757.7L413.1 490.7Z" fill="#5A9453"/>
</g>
<path d="M441.2 502.6C431.5 498.6 422.1 494.6 413 490.7L705.6 757.7C698.3 646.2 609.2 572 441.2 502.6Z" fill="#5A9453"/>
<g opacity="0.7">
<path opacity="0.7" d="M489.5 1012.5C530.4 1002.6 565.4 987.9 594.7 969.5L413.1 490.7L489.5 1012.5Z" fill="#5A9453"/>
</g>
<g opacity="0.8">
<path opacity="0.8" d="M594.7 969.5C631.8 946.2 659.6 917 678.2 883.9L413.1 490.7L594.7 969.5Z" fill="#5A9453"/>
</g>
<path d="M510.2 384.2C510 384.3 509.7 384.3 509.5 384.4L509.4 384.5C509.7 384.3 509.9 384.3 510.2 384.2Z" fill="#5A9453"/>
<path d="M507.9 385.2V385C507.8 385.1 507.7 385.1 507.6 385.1V385.3C507.7 385.3 507.8 385.3 507.9 385.2Z" fill="#5A9453"/>
<path d="M520.9 384L518.6 383.5C515.7 382.9 512.8 383.2 510.1 384.1C509.9 384.2 509.6 384.2 509.4 384.3C509 384.5 508.7 384.7 508.3 384.9C508.1 385 508 385.1 507.8 385.1C507.7 385.2 507.6 385.2 507.5 385.2C507.4 385.2 507.3 385.3 507.2 385.3C507.1 385.3 507 385.4 506.9 385.4C506.8 385.5 506.7 385.5 506.6 385.6C506.5 385.7 506.4 385.7 506.3 385.8C506.1 385.9 506 386.1 505.8 386.2C503.3 388.1 501.3 390.8 500.2 394C500 394.7 499.7 395.3 499.6 396L499.4 396.9C499.2 397.9 499.1 398.9 499.1 399.9C498.9 407.7 504 414.7 511.7 416.3L529.5 420.2L533 403.3C535 394.6 529.5 385.9 520.9 384Z" fill="#5A9453"/>
<g opacity="0.7">
<g opacity="0.7">
<path opacity="0.7" d="M504.8 380.9C505 381.8 505.1 382.8 505.1 383.8C505.1 384.2 505.1 384.6 505.1 385C505.1 385.2 505.1 385.5 505.1 385.7C505.1 386 505.1 386.3 505.1 386.5V386.6C505.2 386.5 505.3 386.5 505.4 386.4C505.7 386.2 506 386 506.3 385.8C506.4 385.7 506.5 385.6 506.7 385.6C506.8 385.5 506.9 385.5 507 385.4C507.1 385.3 507.2 385.3 507.3 385.2L504.8 380.9Z" fill="#5A9453"/>
</g>
</g>
<g opacity="0.6">
<path opacity="0.6" d="M206.5 109.3L481.1 361.7L482.9 362.1L489.1 363.5C489.6 363.6 490 363.9 490.5 364C492.8 364.8 494.9 365.8 496.8 367.2C497 367.4 497.2 367.6 497.5 367.8L309 34.5C266.3 53 231.5 78.4 206.5 109.3Z" fill="#5A9453"/>
</g>
</svg>
