<svg width="1880" height="1305" viewBox="0 0 1880 1305" fill="none" xmlns="http://www.w3.org/2000/svg">
<path opacity="0.5" d="M771.5 1C774.7 1 778 1 781.3 1.1C784.8 1.2 788.4 1.3 792.2 1.4L725.2 337.1L725 3.1C739.9 1.7 755.6 1 771.5 1ZM771.5 0C754.8 0 739 0.8 724 2.3L724.2 347.3L793.4 0.5C789.4 0.3 785.3 0.2 781.3 0.1C778 0 774.8 0 771.5 0Z" fill="white"/>
<path d="M794.2 1.5C826.3 3 860.1 7.9 892 15.6L726.6 340.3L794.2 1.5ZM793.4 0.5L724.2 347.3L893.5 15C862.6 7.4 827.6 2 793.4 0.5Z" fill="white"/>
<path d="M894.1 16.1C923 23.2 948.4 32.4 965.9 41.9L923.2 95.6L772.8 284.6L729.7 338.8L894.1 16.1ZM893.5 15L724.3 347.2L773.6 285.2L924 96.2L967.4 41.6C949.4 31.7 923.4 22.3 893.5 15Z" fill="white"/>
<path opacity="0.6" d="M723.1 3.3998L723.3 338.2L651.8 17.6998C673.3 10.7998 697.3 5.9998 723.1 3.3998ZM724.1 2.2998C696.8 4.8998 672.3 9.9998 650.6 16.9998L724.2 347.3L724.1 2.2998Z" fill="white"/>
<path opacity="0.9" d="M536.2 110.1L718.3 341.3L525.3 189.7C524.2 181.9 523.8 173.7 523.9 165.3C524.3 145.9 528.4 127.3 536.2 110.1ZM536 108.2C527.6 126.1 523.3 145.4 522.9 165.3C522.7 174 523.2 182.3 524.4 190.3L724.3 347.3L536 108.2Z" fill="white"/>
<path d="M525.7 192.6L719 344.3C714.8 342.9 710.5 341.4 706 339.9C647.5 320.7 606.8 300.9 577.9 277.7C548.1 253.9 531.1 226.1 525.7 192.6ZM524.4 190.3C534.4 261.3 594.9 304.6 705.7 341C712.1 343.1 718.3 345.2 724.3 347.3L524.4 190.3Z" fill="white"/>
<path d="M649.9 18.3L721.3 338.5L586.6 49.8C604.5 36.8 625.7 26.2 649.9 18.3ZM650.6 17C624.9 25.3 603.2 36.3 585.4 49.5L724.3 347.3L650.6 17Z" fill="white"/>
<path opacity="0.8" d="M585 51L719.7 339.8L537.2 108.1C547.5 86.1 563.6 66.9 585 51ZM585.4 49.5C562.7 66.2 546.3 86.2 536 108.2L724.3 347.3L585.4 49.5Z" fill="white"/>
<path opacity="0.5" d="M722.5 358.7L722.7 692.7C707.8 694.1 692.2 694.9 676.2 694.9C673 694.9 669.7 694.9 666.4 694.8C662.9 694.7 659.3 694.6 655.5 694.5L722.5 358.7ZM723.5 348.6L654.3 695.4C658.3 695.6 662.4 695.7 666.4 695.8C669.7 695.9 673 695.9 676.2 695.9C692.9 695.9 708.7 695.1 723.7 693.6L723.5 348.6Z" fill="white"/>
<g opacity="0.4">
<path d="M721.1 355.5L653.5 694.3C621.4 692.8 587.6 687.9 555.7 680.2L721.1 355.5ZM723.5 348.6L554.2 680.9C585.2 688.5 620.2 693.9 654.3 695.4L723.5 348.6Z" fill="white"/>
</g>
<g opacity="0.3">
<path d="M718.1 357L553.7 679.7C524.8 672.6 499.4 663.4 481.9 653.9L524.6 600.2L675 411.2L718.1 357ZM723.5 348.6L674.2 410.6L523.8 599.6L480.4 654.2C498.4 664.2 524.4 673.5 554.2 680.8L723.5 348.6Z" fill="white"/>
</g>
<path opacity="0.6" d="M724.5 357.7L796 678.2C774.5 685.1 750.5 689.9 724.7 692.5L724.5 357.7ZM723.5 348.6L723.7 693.6C751 690.9 775.5 685.9 797.2 678.9L723.5 348.6Z" fill="white"/>
<path opacity="0.9" d="M729.5 354.6L922.5 506.2C923.6 514 924 522.2 923.9 530.6C923.6 550 919.4 568.5 911.6 585.8L729.5 354.6ZM723.5 348.6L911.8 587.7C920.2 569.8 924.5 550.5 924.9 530.6C925.1 521.9 924.6 513.6 923.4 505.6L723.5 348.6Z" fill="white"/>
<path d="M728.8 351.5C733 352.9 737.3 354.4 741.8 355.9C800.3 375.1 841 394.9 869.9 418.1C899.6 441.9 916.7 469.8 922 503.3L728.8 351.5ZM723.5 348.6L923.4 505.6C913.4 434.6 852.9 391.3 742.1 354.9C735.6 352.8 729.5 350.7 723.5 348.6Z" fill="white"/>
<path opacity="0.7" d="M726.5 357.4L861.2 646.1C843.3 659.1 822.1 669.7 797.9 677.6L726.5 357.4ZM723.5 348.6L797.1 678.9C822.8 670.6 844.5 659.6 862.3 646.4L723.5 348.6Z" fill="white"/>
<path opacity="0.8" d="M728 356L910.5 587.8C900.1 609.7 884.1 628.9 862.7 644.9L728 356ZM723.5 348.6L862.4 646.4C885.1 629.7 901.5 609.7 911.8 587.7L723.5 348.6Z" fill="white"/>
<path opacity="0.5" d="M303 614.8C305.9 614.8 308.8 614.8 311.8 614.9C314.9 615 318.1 615.1 321.6 615.2L261.6 916.1L261.4 616.7C274.7 615.5 288.7 614.8 303 614.8ZM303 613.9C288 613.9 273.9 614.6 260.4 615.9L260.6 925.2L322.6 614.4C319 614.2 315.4 614.1 311.8 614.1C308.8 614 305.9 613.9 303 613.9Z" fill="white"/>
<g opacity="0.4">
<path d="M323.3 615.3C352.1 616.6 382.4 621 411 628L262.8 919L323.3 615.3ZM322.6 614.4L260.6 925.2L412.4 627.4C384.6 620.6 353.2 615.8 322.6 614.4Z" fill="white"/>
</g>
<g opacity="0.3">
<path d="M412.8 628.4C438.7 634.8 461.5 643 477.2 651.5L438.9 699.6L304.1 869.1L265.4 917.7L412.8 628.4ZM412.4 627.4L260.6 925.2L304.8 869.7L439.6 700.2L478.5 651.3C462.5 642.3 439.1 633.9 412.4 627.4Z" fill="white"/>
</g>
<g opacity="0.6">
<path d="M259.6 617L259.8 917.1L195.7 629.8C214.9 623.6 236.4 619.3 259.6 617ZM260.4 616C235.9 618.4 214 622.9 194.5 629.2L260.5 925.3L260.4 616Z" fill="white"/>
</g>
<path opacity="0.9" d="M92 712.6L255.2 919.9L82.3 784C81.3 777 80.9 769.6 81 762.1C81.3 744.7 85 728.1 92 712.6ZM91.8 710.9C84.3 727 80.4 744.2 80.1 762.1C80 769.9 80.4 777.4 81.4 784.5L260.6 925.2L91.8 710.9Z" fill="white"/>
<path d="M82.7 786.6L255.9 922.6C252.2 921.3 248.3 920 244.3 918.7C191.9 901.5 155.4 883.7 129.5 862.9C102.7 841.6 87.4 816.6 82.7 786.6ZM81.4 784.5C90.4 848.1 144.6 886.9 243.9 919.6C249.7 921.5 255.2 923.4 260.6 925.2L81.4 784.5Z" fill="white"/>
<g opacity="0.7">
<path d="M193.9 630.3L257.9 917.4L137.2 658.6C153.2 646.9 172.3 637.4 193.9 630.3ZM194.6 629.2C171.6 636.6 152.1 646.5 136.1 658.3L260.6 925.2L194.6 629.2Z" fill="white"/>
</g>
<g opacity="0.8">
<path d="M135.7 659.7L256.5 918.6L92.9 710.8C102.2 691.1 116.6 673.9 135.7 659.7ZM136.1 658.3C115.8 673.2 101.1 691.2 91.8 710.9L260.6 925.2L136.1 658.3Z" fill="white"/>
</g>
<path opacity="0.5" d="M260.3 936.5L260.5 1295.6C244.5 1297.1 227.7 1297.9 210.5 1297.9C207 1297.9 203.5 1297.9 200 1297.8C196.3 1297.7 192.4 1297.6 188.3 1297.4L260.3 936.5ZM261.4 925.7L187 1298.5C191.4 1298.7 195.7 1298.8 200 1298.9C203.5 1299 207.1 1299 210.5 1299C228.4 1299 245.4 1298.2 261.5 1296.6L261.4 925.7Z" fill="white"/>
<path opacity="0.4" d="M258.8 933.1L186.1 1297.4C151.6 1295.8 115.3 1290.5 80.9 1282.2L258.8 933.1ZM261.4 925.7L79.4 1282.9C112.7 1291.1 150.3 1296.8 187 1298.5L261.4 925.7Z" fill="white"/>
<g opacity="0.3">
<path d="M255.6 934.7L78.8 1281.6C47.7 1273.9 20.4 1264.1 1.6 1253.9L47.5 1196.2L209.2 993L255.6 934.7ZM261.4 925.7L208.4 992.3L46.7 1195.5L0 1254.2C19.3 1264.9 47.3 1275 79.4 1282.9L261.4 925.7Z" fill="white"/>
</g>
<path opacity="0.6" d="M262.5 935.4L339.3 1280C316.2 1287.4 290.4 1292.6 262.6 1295.4L262.5 935.4ZM261.4 925.7L261.6 1296.6C291 1293.7 317.3 1288.3 340.6 1280.8L261.4 925.7Z" fill="white"/>
<path opacity="0.9" d="M267.8 932.1L475.3 1095C476.5 1103.4 477 1112.2 476.8 1121.3C476.4 1142.1 472 1162.1 463.6 1180.6L267.8 932.1ZM261.4 925.7L463.8 1182.7C472.8 1163.4 477.5 1142.7 477.8 1121.3C478 1111.9 477.4 1103 476.2 1094.4L261.4 925.7Z" fill="white"/>
<path d="M267.1 928.8C271.6 930.3 276.3 931.9 281 933.5C343.8 954.2 387.6 975.4 418.7 1000.4C450.7 1026 469 1056 474.7 1092L267.1 928.8ZM261.4 925.7L476.3 1094.5C465.6 1018.2 400.5 971.7 281.4 932.5C274.5 930.2 267.8 927.9 261.4 925.7Z" fill="white"/>
<g opacity="0.7">
<path d="M264.6 935.1L409.4 1245.5C390.2 1259.5 367.3 1270.9 341.4 1279.4L264.6 935.1ZM261.4 925.7L340.6 1280.8C368.2 1271.9 391.6 1260 410.7 1245.9L261.4 925.7Z" fill="white"/>
</g>
<g opacity="0.8">
<path d="M266.3 933.6L462.6 1182.8C451.5 1206.4 434.2 1227 411.2 1244.2L266.3 933.6ZM261.4 925.7L410.7 1245.8C435.1 1227.9 452.7 1206.4 463.8 1182.7L261.4 925.7Z" fill="white"/>
</g>
<path d="M919.5 587.7C919.5 583.3 915.9 579.7 911.5 579.7C907.1 579.7 903.5 583.3 903.5 587.7C903.5 592.1 907.1 595.7 911.5 595.7C915.9 595.7 919.5 592.1 919.5 587.7Z" fill="white"/>
<path d="M269.5 925.7C269.5 921.3 265.9 917.7 261.5 917.7C257.1 917.7 253.5 921.3 253.5 925.7C253.5 930.1 257.1 933.7 261.5 933.7C265.9 933.7 269.5 930.1 269.5 925.7Z" fill="white"/>
<path d="M485.5 1112.7C485.5 1108.3 481.9 1104.7 477.5 1104.7C473.1 1104.7 469.5 1108.3 469.5 1112.7C469.5 1117.1 473.1 1120.7 477.5 1120.7C481.9 1120.7 485.5 1117.1 485.5 1112.7Z" fill="white"/>
<path d="M269.5 1296.7C269.5 1292.3 265.9 1288.7 261.5 1288.7C257.1 1288.7 253.5 1292.3 253.5 1296.7C253.5 1301.1 257.1 1304.7 261.5 1304.7C265.9 1304.7 269.5 1301.1 269.5 1296.7Z" fill="white"/>
<path d="M731.5 693.7C731.5 689.3 727.9 685.7 723.5 685.7C719.1 685.7 715.5 689.3 715.5 693.7C715.5 698.1 719.1 701.7 723.5 701.7C727.9 701.7 731.5 698.1 731.5 693.7Z" fill="white"/>
<path d="M732.5 346.7C732.5 342.3 728.9 338.7 724.5 338.7C720.1 338.7 716.5 342.3 716.5 346.7C716.5 351.1 720.1 354.7 724.5 354.7C728.9 354.7 732.5 351.1 732.5 346.7Z" fill="white"/>
<path d="M1637.4 346.6H723.5" stroke="white" stroke-miterlimit="10"/>
<path d="M1637.4 532.6H972.5L911.5 587.7" stroke="white" stroke-miterlimit="10"/>
<path d="M1939.4 733.6H723.5V693.7" stroke="white" stroke-miterlimit="10"/>
<path d="M1637.4 917.6H972.5H265.5" stroke="white" stroke-miterlimit="10"/>
<path d="M1637.4 1111.6H972.5H481.5" stroke="white" stroke-miterlimit="10"/>
<path d="M1637.4 1299.6H984.2H261.5" stroke="white" stroke-miterlimit="10"/>
</svg>
