<svg xmlns="http://www.w3.org/2000/svg" width="614.767" height="221.466" viewBox="0 0 614.767 221.466">
  <g id="Сгруппировать_528" data-name="Сгруппировать 528" transform="translate(-7735 -5384)">
    <path id="Контур_466" data-name="Контур 466" d="M183.612,2010.425s2.187,11.8-9.612,13.986l16.948,91.443s11.8-2.187,13.986,9.612l574.22-106.425s-2.186-11.8,9.613-13.986l-16.948-91.443s-11.8,2.187-13.986-9.612Z" transform="translate(7561 3480)" fill="#8e3e89"/>
    <text id="Articoli_categoria_persone" data-name="Articoli categoria #persone" transform="matrix(0.983, -0.182, 0.182, 0.983, 7777.419, 5558.409)" fill="#fff" font-size="38" font-family="SegoeUI, Segoe UI"><tspan x="0" y="0" letter-spacing="0.031em">A</tspan><tspan y="0" letter-spacing="0.05em">r</tspan><tspan y="0" letter-spacing="0.034em">t</tspan><tspan y="0" letter-spacing="0.027em">i</tspan><tspan y="0" letter-spacing="0.019em">c</tspan><tspan y="0" letter-spacing="0.031em">o</tspan><tspan y="0" letter-spacing="0.027em">l</tspan><tspan y="0" letter-spacing="0.039em">i</tspan><tspan y="0" letter-spacing="0.04em"> </tspan><tspan y="0" letter-spacing="0.025em">c</tspan><tspan y="0" letter-spacing="0.029em">a</tspan><tspan y="0" letter-spacing="0.037em">t</tspan><tspan y="0" letter-spacing="0.038em">e</tspan><tspan y="0" letter-spacing="0.033em">go</tspan><tspan y="0" letter-spacing="0.023em">r</tspan><tspan y="0" letter-spacing="0.029em">i</tspan><tspan y="0" letter-spacing="0.04em">a</tspan><tspan y="0" letter-spacing="0.039em"> </tspan><tspan y="0" letter-spacing="0.012em">#</tspan><tspan y="0" letter-spacing="0.036em">pe</tspan><tspan y="0" letter-spacing="0.034em">r</tspan><tspan y="0" letter-spacing="0.026em">s</tspan><tspan y="0" letter-spacing="0.033em">on</tspan><tspan y="0">e</tspan></text>
  </g>
</svg>
