<svg width="336" height="526" viewBox="0 0 336 526" fill="none" xmlns="http://www.w3.org/2000/svg">
<path d="M29.668 474.783C29.374 480.47 29.1781 486.256 28.7861 491.943C28.1982 500.179 27.7083 508.317 27.4143 516.554C27.4143 517.142 27.4143 517.632 27.4143 518.123L27.0224 525.477C26.8264 525.575 26.6304 525.771 26.4345 525.869L27.1204 438.7C27.1204 437.229 27.1204 435.758 27.1204 434.19C27.4143 421.443 27.2184 408.598 27.8063 395.753C28.3942 379.966 28.0022 364.18 28.0022 347.805C26.9244 349.178 26.8264 350.158 26.6304 351.139C23.5929 364.278 20.7513 377.515 17.6157 390.654C16.7338 394.086 16.0479 397.616 15.558 401.048L12.8144 413.206H12.7164C8.99292 429.483 5.46542 445.76 1.83993 462.527C-0.315765 460.958 0.174166 459.389 0.370138 458.114C1.83993 444.583 4.09361 431.15 6.44528 417.815C8.50299 406.048 10.7567 394.184 12.7164 382.418C13.1083 380.26 13.0104 377.907 13.0104 375.75C13.0104 338.784 13.0104 301.818 13.0104 264.852C13.0104 261.813 12.8144 258.969 9.67882 256.812C7.91507 255.635 8.50299 253.38 10.6587 252.596C12.5204 251.909 13.3043 250.733 14.0882 249.36C15.754 246.615 17.6157 243.869 20.1633 241.614C21.9271 239.947 22.319 238.28 21.5352 236.123C19.3795 230.534 21.3392 225.141 22.1231 219.748C23.8868 219.356 24.2788 220.336 24.7687 221.023C25.3566 221.709 25.8465 222.494 26.4345 223.18C27.3163 224.16 27.9043 225.729 29.57 225.337C31.0398 224.945 30.3539 223.376 30.5499 222.395C31.2358 216.61 31.9217 210.727 33.2935 205.04C33.6854 203.373 34.0774 201.608 34.8613 200.039C39.2707 191.411 39.6626 182.194 40.9364 173.075C42.5042 162.093 43.778 151.111 45.0518 140.031C46.1297 130.912 47.0116 121.695 47.9914 112.576C49.0693 102.673 50.1471 92.7697 51.127 82.8663C51.8129 76.2968 52.4988 69.7273 53.1847 63.1577C54.2625 53.4505 55.2424 43.8413 56.3202 34.2322C57.3001 25.8977 58.28 17.6612 59.2598 9.32676C59.5538 6.87544 60.0437 4.42412 60.5336 1.9728C60.7296 1.09032 61.1216 -0.184365 62.6893 0.109794C64.1591 0.403952 64.1591 1.48253 64.0611 2.46306C63.2773 9.42481 62.4934 16.2885 61.7095 23.2503C60.6316 32.2711 59.5538 41.292 58.5739 50.3128C57.4961 59.6278 56.4182 68.8448 55.4384 78.1598C54.6545 85.1216 54.0666 92.0833 53.3807 98.947C52.5968 107.478 51.8129 116.008 51.029 124.637C50.637 128.755 50.5391 132.873 50.1471 136.893C49.4612 143.169 49.4612 149.542 48.9713 155.916C48.0894 167.486 48.1874 179.056 48.1874 190.626C48.1874 194.548 49.0693 198.275 49.2652 202.197C49.2652 202.687 49.3632 203.177 50.4411 203.471C51.6169 198.765 52.7927 194.058 53.8706 189.352C61.1216 157.681 68.3725 126.108 75.5255 94.4366C77.9752 83.8469 80.3269 73.1591 82.7765 62.5694C83.0705 61.1967 83.3644 59.8239 84.2463 58.7454C85.1282 57.7648 86.5 57.9609 86.8919 59.1376C87.5778 60.8045 87.2839 62.5694 86.9899 64.3344C85.9121 70.7078 84.8342 77.1793 83.5604 83.5527C75.5255 122.284 66.1189 160.72 56.0263 199.157C54.9484 203.373 54.7525 207.295 57.0061 211.119C59.7498 215.826 59.3578 220.434 56.4182 224.651C53.9686 228.181 54.9484 231.122 56.9082 234.848C57.4961 232.691 57.888 231.22 58.28 229.651C59.3578 226.318 60.2397 225.631 64.3551 225.631C76.4074 225.533 87.9698 227.69 99.3362 230.926C106.489 232.985 113.054 236.319 120.011 238.77C137.551 244.948 155.776 247.889 174.688 248.183C187.328 248.281 199.87 247.497 212.216 245.046C231.03 241.32 249.353 243.575 267.676 247.693C275.515 249.458 283.158 251.909 290.703 254.459C294.427 255.733 296.974 257.793 298.836 260.832C303.833 269.167 308.243 277.697 312.456 286.228C320.099 301.818 327.154 317.605 334.013 333.489C334.699 335.058 335.091 336.529 335.189 338.196C334.699 340.157 333.327 342.412 330.29 343.981C328.918 344.373 327.546 344.667 326.076 344.765C315.2 345.452 304.323 345.158 293.447 345.452C286.882 345.648 280.807 344.569 274.731 342.706C266.893 340.157 259.838 336.529 253.664 331.724C250.627 329.371 247.001 327.214 245.532 323.684C247.785 324.665 249.255 326.43 250.921 327.998C258.074 334.274 266.403 338.882 275.907 341.824C281.101 343.491 286.49 344.765 292.075 344.373C298.738 343.883 305.401 343.981 312.064 343.883C316.669 343.785 321.373 343.981 325.978 343.687C331.661 343.393 334.307 340.353 333.033 335.548C332.641 333.98 331.955 332.411 331.269 330.94C325.978 319.37 320.883 307.701 315.494 296.131C310.104 284.463 304.225 272.893 297.66 261.715C295.896 258.773 293.545 256.91 289.919 255.635C279.533 252.007 268.95 249.164 257.976 247.105C242.2 244.163 226.522 243.673 210.55 246.713C195.755 249.458 180.861 250.439 165.575 249.262C146.272 247.889 127.85 243.967 110.507 236.417C102.864 233.083 94.7308 230.632 86.402 229.063C84.7362 228.769 82.9725 228.475 81.3067 228.279C79.543 228.083 78.4651 228.671 78.5631 230.338C78.6611 231.22 78.7591 232.103 78.8571 232.887C79.249 237.103 79.8369 241.32 80.0329 245.536C80.4248 259.459 78.4651 273.089 74.1537 286.522C73.8598 287.601 73.0759 288.679 74.3497 289.66C75.6235 290.64 76.7994 289.856 77.9752 289.366C82.5805 287.503 87.3819 286.13 92.3792 285.051C99.0422 283.777 105.705 283.384 112.074 285.541C116.092 286.914 119.913 286.816 123.931 285.934C125.498 285.541 127.066 285.247 128.536 284.953C144.214 281.325 159.696 277.207 175.275 273.089C183.898 270.834 192.423 268.48 201.144 266.519C207.415 265.147 212.216 267.01 215.94 271.324C218.095 273.775 219.663 276.619 221.133 279.462C225.444 287.993 229.658 296.621 233.871 305.25C236.419 310.447 239.358 315.35 243.18 319.958C244.062 321.037 245.238 322.115 245.434 323.488C243.474 322.703 242.494 321.135 241.318 319.762C238.085 315.644 235.341 311.231 232.989 306.623C228.58 297.798 224.269 288.973 219.957 280.149C218.585 277.305 217.018 274.462 214.862 271.912C212.412 268.971 209.179 267.402 204.867 267.5C202.026 267.5 199.38 267.99 196.734 268.676C186.054 271.422 175.373 274.265 164.693 277.011C149.701 280.835 134.807 285.149 119.423 287.699C117.366 287.993 116.484 289.071 115.798 290.542C114.72 293.092 114.818 295.641 115.014 298.288C115.112 299.367 115.7 300.544 115.014 301.622C113.838 303.387 114.132 305.25 114.72 307.015C115.602 309.761 115.308 312.702 116.778 315.35C117.17 316.036 117.072 316.82 116.68 317.507C114.916 320.742 115.308 324.076 116.19 327.312C116.386 328.096 116.778 328.881 116.288 329.469C114.524 331.822 114.916 334.47 114.916 337.117C114.818 338.686 114.23 339.863 112.466 340.255C109.233 340.941 108.841 342.902 108.841 345.354C108.841 375.652 108.841 406.048 108.841 436.347V450.466C108.841 450.858 108.841 451.349 108.841 451.839C108.841 464.488 108.841 477.235 108.841 489.884L107.665 490.668C107.665 470.861 107.665 450.957 107.665 431.15C107.665 403.303 107.665 375.358 107.665 347.511C107.665 346.53 107.665 345.55 107.665 344.569C107.567 341.922 107.469 341.824 104.333 342.02C100.022 342.314 95.8087 342.902 91.3993 342.314C85.2262 341.53 85.1282 341.726 85.2262 347.119C85.7161 382.123 84.9322 417.03 86.0101 452.035C86.5 469.587 86.304 487.138 86.304 504.788L84.4423 505.964C84.4423 499.002 84.4423 492.041 84.3443 485.079V484.687C84.3443 482.235 84.3443 479.784 84.3443 477.333C84.3443 469.194 84.3443 461.154 84.2463 453.016C84.2463 452.231 84.2463 451.643 84.0503 451.153V445.858C84.1483 445.368 84.2463 444.779 84.2463 443.897C84.2463 442.916 84.2463 441.936 84.2463 440.955C84.1483 426.443 84.1483 411.833 83.6584 397.322C83.1685 380.064 83.3644 362.709 83.4624 345.452C83.4624 342.804 83.0705 340.745 79.543 340.157C77.3873 339.765 76.5054 338.392 76.5054 336.529C76.5054 335.941 76.5054 335.254 76.5054 334.666C76.2114 329.959 74.2517 325.351 76.3094 320.644C74.5457 316.722 75.5255 312.898 76.2114 308.976C77.0933 304.27 74.9376 299.465 75.2316 294.66C75.4276 291.425 73.6638 290.444 69.8423 289.954C66.2169 289.562 62.5914 289.267 59.0639 288.777C55.0464 288.189 54.2625 287.306 53.7726 283.875C53.4786 281.717 53.6746 279.364 52.4988 276.521C51.127 281.423 49.5592 285.443 48.9713 289.66C48.1874 295.347 46.5216 300.936 44.5619 306.329C42.7982 311.231 41.7203 316.232 41.1324 321.331C39.1727 337.608 37.6049 353.982 36.4291 370.357C36.1351 374.573 35.8411 378.79 35.5472 383.006C35.0572 389.576 34.4693 396.047 33.9794 402.617V402.715C33.6854 405.95 33.4895 409.186 33.1955 412.422C32.5096 421.247 32.0197 430.071 31.5297 438.896C31.4318 441.151 31.4318 443.406 31.3338 445.662C31.3338 445.858 31.3338 446.054 31.3338 446.25L31.0398 450.858C30.5499 451.447 30.4519 452.427 30.4519 454.192C30.4519 456.251 30.3539 458.31 30.2559 460.37L30.1579 462.429C30.2559 466.351 29.864 470.567 29.668 474.783ZM12.7164 392.419C9.58084 409.382 6.24931 426.345 4.09361 443.505C4.68153 442.426 4.97549 441.249 5.26945 440.073C6.93521 432.228 8.60098 424.384 10.2667 416.54C11.9325 408.696 13.8922 400.754 12.7164 392.419ZM77.9752 313.29C78.5631 320.644 78.3671 327.998 78.5631 335.254C78.6611 338.098 79.053 338.588 82.3846 339.471C86.9899 340.647 91.6933 341.334 97.0825 341.235C101.492 341.53 106.293 340.549 111.095 339.569C112.956 339.176 113.936 338.196 114.132 336.431C114.328 333.783 112.76 331.136 113.152 328.783C113.544 326.135 114.328 323.488 114.132 320.742C114.132 320.35 114.23 319.958 114.034 319.664C112.858 317.507 112.956 315.546 113.936 313.29C115.112 310.545 113.642 309.466 110.213 309.76C100.806 310.545 91.3993 310.349 81.9926 310.055C77.8772 309.761 77.6812 309.761 77.9752 313.29ZM77.9752 306.721C78.3671 307.898 79.543 307.603 80.5228 307.701C85.5201 308.29 90.6154 308.192 95.7107 308.192C98.8462 308.192 102.08 308.29 105.215 308.192C107.371 308.094 109.527 307.799 111.682 307.407C112.858 307.211 113.25 306.329 113.054 305.348C112.858 304.466 112.074 304.172 111.095 304.27C110.409 304.27 109.625 304.466 108.939 304.564C104.725 304.956 100.61 305.544 96.3966 305.642C91.0073 305.74 85.7161 305.348 80.4248 304.27C79.641 304.073 78.6611 303.779 78.0732 304.662C77.6812 305.25 77.7792 306.035 77.9752 306.721ZM76.9953 297.7C77.0933 301.034 77.4853 301.524 81.2087 302.407C81.8946 302.603 82.5805 302.701 83.3644 302.799C92.3792 303.975 101.296 303.681 110.213 302.407C113.838 301.916 114.034 301.524 114.132 298.582C114.23 295.445 113.74 292.307 115.014 289.366C115.602 287.993 114.524 287.306 113.25 286.816C110.801 285.934 108.253 285.541 105.607 285.345C97.1805 284.855 89.1456 286.326 81.5027 289.267C76.8973 291.032 76.8973 291.032 76.9953 295.543C76.9953 296.229 76.9953 297.014 76.9953 297.7ZM60.2397 234.652C58.5739 237.79 57.986 240.927 57.5941 244.065C57.4961 244.85 57.4961 245.732 58.5739 245.83C59.9457 246.026 60.2397 245.046 60.2397 244.163C60.2397 241.026 60.2397 237.79 60.2397 234.652ZM57.6921 265.931C58.084 265.931 58.378 266.029 58.7699 266.029C59.3578 260.636 60.5336 255.243 59.6518 249.654C58.9659 255.047 58.378 260.44 57.6921 265.931ZM75.9175 271.618C77.6812 264.264 77.6812 256.812 78.3671 249.556C77.9752 244.555 77.9752 239.751 77.1913 234.946C75.7215 226.023 77.9752 227.69 66.4128 226.514C62.6893 226.121 61.9055 226.906 62.2974 230.044C63.7672 241.222 62.3954 252.4 61.4155 263.48C61.2196 265.833 60.7296 268.186 60.4357 270.539C60.2397 272.206 61.0236 273.089 63.0813 273.285C65.9229 273.579 68.7645 274.069 71.7041 274.462C74.8396 274.756 75.2316 274.462 75.9175 271.618ZM74.4477 277.403C74.6437 276.324 73.6638 275.932 72.6839 275.736C69.2544 275.246 65.9229 274.854 62.4934 274.363C61.3175 274.167 60.0437 274.167 59.8477 275.54C59.5538 277.011 60.6316 277.501 62.1014 277.697C64.5511 277.991 66.9027 278.482 69.2544 278.384C70.3323 278.482 71.3121 278.58 72.292 278.678C73.3698 278.874 74.2517 278.482 74.4477 277.403ZM58.182 287.012C58.4759 287.208 58.9659 287.306 59.3578 287.306C61.9055 287.601 64.5511 287.895 66.4128 288.091C70.9202 288.189 71.3121 287.993 72.39 284.953C72.7819 283.973 72.9779 282.992 73.2719 282.11C73.5658 281.129 73.2719 280.345 71.998 280.247C68.0786 279.854 64.2571 279.462 60.3377 279.168C58.378 279.07 58.084 280.639 57.986 281.815C57.888 283.482 56.0263 285.345 58.182 287.012ZM56.2223 278.874C57.4961 275.834 57.4961 273.187 57.986 270.637C58.084 270.147 57.986 269.559 57.2021 269.559C56.5162 269.559 56.2223 270.049 56.2223 270.539C56.2223 273.089 56.2223 275.638 56.2223 278.874ZM27.9043 482.235C27.9043 480.569 27.9043 478.902 27.9043 477.235C27.9043 475.372 27.9043 473.509 28.1002 471.646C28.1982 469.881 28.5902 468.214 28.6881 466.449C28.7861 464.586 28.7861 462.723 28.7861 460.86C28.8841 459.095 28.8841 457.428 29.0801 455.663C29.472 452.329 29.57 452.329 28.1982 450.27C28.1002 461.35 26.7284 471.744 27.9043 482.235ZM14.5781 394.968C15.0681 393.694 15.362 392.419 15.656 391.144C18.8895 377.123 22.1231 363.101 25.2586 349.08C25.8465 346.432 27.0224 343.785 27.1204 341.039C27.2183 332.607 26.8264 324.174 25.9445 315.742C25.4546 311.035 24.6707 306.427 23.0049 301.034C22.613 308.976 22.417 316.036 22.2211 323.096C21.8291 339.471 19.1835 355.551 16.1459 371.632C14.7741 379.28 13.7942 387.026 14.5781 394.968ZM26.3365 286.718C29.2761 285.836 30.9418 283.875 32.2156 281.619C32.7056 280.639 32.4116 279.952 31.4318 279.364C28.8841 277.697 26.2385 275.932 23.0049 273.775C23.0049 277.991 22.907 281.423 23.0049 284.855C23.1029 287.11 23.9848 287.503 26.3365 286.718ZM21.7311 274.756C21.7311 273.481 21.7311 272.206 20.6533 271.226C18.4976 269.167 16.8318 266.911 15.1661 264.558C14.8721 264.656 14.5781 264.754 14.3822 264.852V371.73C18.3996 353.394 20.8492 334.862 20.9472 316.232C20.9472 312.114 20.7513 307.996 21.1432 303.877C22.2211 294.17 21.5352 284.463 21.7311 274.756ZM48.4813 204.844C46.6196 197.98 46.5216 191.019 46.5216 184.057C46.5216 173.075 47.1095 162.191 47.7954 151.209C48.1874 145.032 48.7753 138.756 48.9713 132.579C49.1673 127.873 49.6572 123.166 50.0491 118.46C50.735 110.517 51.6169 102.575 52.4008 94.6327C53.1847 87.0826 53.9686 79.5326 54.7525 71.9825C55.6343 63.3538 56.6142 54.6271 57.5941 45.9985C58.5739 37.0757 59.6518 28.1529 60.7296 19.3281C61.4155 13.6411 62.1014 7.95402 62.7873 2.26696C60.3377 10.2092 59.7498 18.4457 58.7699 26.584C57.6921 35.6049 56.8102 44.6258 55.8303 53.7447C54.7525 63.2558 53.6746 72.7669 52.6948 82.3761C51.7149 91.8872 50.833 101.496 49.8532 111.008C48.5793 122.97 47.0116 135.03 45.7377 146.993C44.4639 159.544 42.8961 171.996 41.0344 184.449C40.4465 188.175 40.2505 191.999 38.4868 195.431C35.4492 201.412 34.3713 207.786 33.1955 214.257C32.5096 217.983 32.9016 221.709 31.9217 225.337C31.3338 227.592 30.5499 227.788 28.3942 226.514C27.2183 225.827 26.3365 224.749 25.4546 223.768C24.9647 223.18 24.7687 222.003 23.2989 222.395C22.907 224.553 22.515 226.612 22.319 228.671C22.0251 230.828 22.0251 232.887 22.907 234.946C23.2989 235.927 23.9848 236.613 25.0627 235.927C27.6103 234.358 30.7459 233.279 31.8237 230.436C32.4116 228.867 33.6854 227.592 35.3512 226.71C37.5069 225.435 38.3888 225.729 39.3686 227.886C39.6626 228.475 39.6626 229.063 40.6425 229.063C41.4263 229.063 42.0143 228.671 42.4062 228.083C42.7002 227.494 42.8961 226.906 43.0921 226.318C44.8559 220.434 46.7176 214.551 48.4813 208.668C48.7753 207.295 48.7753 206.021 48.4813 204.844ZM55.4384 210.531C53.3807 207.001 53.5766 203.079 54.5565 199.157C59.7498 178.272 65.139 157.288 70.1363 136.403C75.6235 113.655 81.0128 90.8086 84.9322 67.7662C85.3242 65.511 85.4221 63.3538 85.0302 61.1967C84.3443 62.1772 84.0503 63.0597 83.8544 64.0402C76.8973 94.7307 70.1363 125.323 62.8853 156.014C57.0061 181.017 52.4008 206.217 43.974 230.73C42.4062 235.437 40.6425 239.947 37.9968 244.359C34.3713 250.341 30.9418 256.42 28.6881 262.891C28.3942 263.774 27.6103 264.656 28.7861 265.735C30.9418 264.754 32.0197 262.989 33.3915 261.421C35.0572 259.557 35.0572 259.557 33.2935 257.596C37.017 257.4 36.919 257.302 39.9566 254.949C42.4062 253.086 44.5619 250.733 47.6975 249.556C49.7552 248.772 50.5391 247.595 50.4411 245.83C50.3431 242.987 50.4411 240.143 50.3431 237.201C50.3431 235.633 50.637 234.162 52.6948 233.672C53.8706 233.377 54.6545 232.593 53.8706 231.711C51.7149 229.259 53.1847 227.298 54.4585 225.141C57.3981 220.434 58.4759 215.63 55.4384 210.531ZM53.7726 235.142C53.1847 235.044 52.5968 235.24 52.3028 235.731C52.0089 236.319 51.8129 236.907 51.8129 237.496C51.8129 241.222 52.7927 244.85 52.4008 248.576C52.4008 248.968 52.4988 249.262 53.4786 249.654C54.3605 247.399 53.9686 245.34 54.0666 243.281C54.2625 240.927 54.3605 238.574 54.5565 236.221C54.5565 235.731 54.4585 235.24 53.7726 235.142ZM32.9995 399.381C33.7834 387.614 34.7633 375.848 35.6452 363.984C36.625 351.531 37.9968 339.176 39.0747 326.822C40.2505 313.683 44.4639 301.132 47.6975 288.385C50.5391 277.305 55.4384 266.519 54.0666 254.851C53.6746 251.223 53.6746 250.929 49.5592 251.615C43.68 252.596 40.0545 256.224 36.527 259.852C34.6653 261.715 33.0975 263.872 31.1378 265.735C30.0599 266.813 28.8841 268.774 27.1204 267.99C25.2586 267.206 26.5324 265.245 26.9244 263.97C28.6881 257.793 32.0197 252.105 35.3512 246.418C36.527 244.359 37.6049 242.398 37.115 240.045C36.919 238.868 37.115 237.888 38.5847 237.201C41.3284 236.025 41.5243 233.77 42.0143 231.024C37.4089 231.71 33.9794 233.083 30.5499 234.848C23.6908 238.476 18.9875 243.771 15.1661 249.752C14.2842 251.125 13.5983 252.694 11.7365 253.478C9.97278 254.263 10.0708 255.439 11.4426 256.42C13.3043 257.793 14.0882 259.557 14.9701 261.421C18.3996 268.382 24.2788 273.677 31.4318 277.991C32.2156 278.482 33.0975 279.168 34.1754 278.482C34.9593 277.991 34.8613 277.109 34.6653 276.423C33.9794 274.069 34.1754 271.716 34.6653 269.363C35.3512 265.833 36.1351 265.441 40.0545 266.715C44.6599 268.186 44.9538 269.657 41.2304 272.304C40.6425 272.697 40.1525 273.187 39.4666 273.481C37.5069 274.462 36.723 275.834 36.527 277.795C36.3311 279.658 36.0371 281.521 35.6452 283.384C35.5472 283.973 35.0572 285.051 34.4693 284.463C32.8036 282.502 32.2156 284.169 31.4318 284.953C29.962 286.424 28.3942 287.699 26.2385 288.189C23.8868 288.777 23.5929 290.15 23.5929 291.915C23.4949 295.543 24.0828 299.171 24.9647 302.701C27.7083 313.879 28.4922 325.155 28.6881 336.431C29.1781 365.651 28.8841 394.968 28.6881 424.188C28.6881 425.267 28.6881 426.443 28.4922 427.522C27.6103 433.503 28.1002 439.484 28.0022 445.466C28.0022 446.054 27.6103 447.034 29.1781 447.132C29.57 444.289 30.0599 441.445 30.1579 438.7C31.0398 425.463 32.1177 412.422 32.9995 399.381Z" fill="#F7931E"/>
</svg>
