<svg width="397" height="662" viewBox="0 0 397 662" fill="none" xmlns="http://www.w3.org/2000/svg">
<path d="M35.4089 561.607C35.0309 568.346 34.8797 575.086 34.3506 581.901C33.6703 591.593 33.0656 601.286 32.6876 610.979C32.6876 611.66 32.6876 612.266 32.6876 612.796L32.1585 621.504C31.9318 621.656 31.705 621.807 31.4782 621.959L32.2341 518.823C32.2341 517.082 32.2341 515.264 32.2341 513.523C32.612 498.378 32.3853 483.309 32.99 468.164C33.7459 449.536 33.1412 430.833 33.1412 411.447C31.8562 413.113 31.705 414.249 31.4782 415.461C27.9255 431.06 24.524 446.659 20.8201 462.182C19.8374 466.271 19.0059 470.36 18.3256 474.525L15.1508 488.912H15.0752C10.9178 508.146 6.76035 527.456 2.52732 547.22C-0.0427309 545.402 0.561996 543.509 0.788766 541.919C2.52733 525.941 5.17297 510.115 7.96979 494.213C10.2375 481.416 12.5808 468.543 14.8484 455.746C15.3776 452.641 15.8311 447.567 15.8311 444.463C15.8311 400.77 15.8311 357.002 15.8311 313.31C15.8311 309.675 15.6043 306.419 11.9004 303.769C9.85952 302.33 10.4642 299.755 13.0343 298.771C15.1508 297.938 16.1335 296.575 17.0406 294.985C19.0059 291.728 21.198 288.548 24.146 285.822C26.2625 283.929 26.7161 281.884 25.7334 279.386C23.2389 272.798 25.5066 266.437 26.4893 260.076C28.6058 259.622 28.9837 260.833 29.664 261.591C30.4199 262.424 30.9491 263.332 31.705 264.165C32.6876 265.301 33.4435 267.194 35.4089 266.74C37.1474 266.285 36.3915 264.468 36.5427 263.257C37.3742 256.366 38.1301 249.475 39.7931 242.735C40.3222 240.691 40.7002 238.646 41.6072 236.753C46.8229 226.606 47.2765 215.626 48.7127 204.874C50.5268 191.849 52.0386 178.825 53.5504 165.876C54.8354 155.048 55.8181 144.219 57.0275 133.391C58.237 121.654 59.522 109.992 60.7314 98.255C61.5629 90.5312 62.3188 82.7317 63.1503 75.0079C64.3598 63.5736 65.5692 52.1394 66.9298 40.7809C68.0637 31.0125 69.1975 21.1685 70.4069 11.4002C70.7849 8.44693 71.314 5.56944 71.9943 2.69195C72.2211 1.5561 72.6746 0.19308 74.5644 0.495974C76.3029 0.798868 76.3029 2.08618 76.1517 3.29775C75.2447 11.4759 74.262 19.654 73.3549 27.9079C72.1455 38.5849 70.8605 49.2619 69.651 59.9389C68.366 70.9188 67.081 81.8987 65.9471 92.8786C65.0401 101.057 64.2842 109.311 63.5283 117.489C62.5456 127.636 61.7141 137.707 60.7314 147.854C60.2779 152.7 60.2023 157.546 59.6732 162.393C58.8417 169.814 58.9173 177.386 58.3126 184.883C57.2543 198.589 57.3299 212.219 57.3299 225.925C57.3299 230.544 58.3882 235.012 58.6149 239.555C58.6149 240.085 58.7661 240.767 60.0511 241.069C61.4118 235.466 62.7724 229.938 64.0574 224.335C72.599 186.927 81.1407 149.52 89.6823 112.188C92.5547 99.618 95.4271 87.0479 98.2239 74.4778C98.6019 72.8876 98.8287 71.2217 100.038 69.9344C101.021 68.7986 102.684 68.95 103.213 70.313C103.969 72.2819 103.742 74.4021 103.364 76.4466C102.079 84.019 100.87 91.5913 99.2822 99.088C89.7579 144.825 78.7218 190.335 66.7786 235.693C65.4936 240.615 65.2668 245.386 67.9125 249.853C71.1628 255.381 70.7093 260.833 67.2322 265.907C64.3598 270.072 65.4936 273.479 67.7613 278.023C68.4416 275.524 68.8951 273.706 69.4243 271.889C70.6337 267.876 71.7675 267.118 76.6053 267.118C90.8162 266.967 104.498 269.466 117.877 273.403C126.343 275.827 134.054 279.764 142.293 282.717C163.004 290.063 184.472 293.546 206.846 293.773C221.813 293.924 236.629 293.016 251.218 290.138C273.441 285.746 295.135 288.397 316.678 293.243C325.976 295.288 334.971 298.165 343.891 301.27C348.275 302.784 351.299 305.207 353.415 308.766C359.311 318.61 364.527 328.682 369.516 338.828C378.586 357.305 386.901 375.933 394.989 394.712C395.745 396.53 396.274 398.347 396.426 400.24C395.821 402.588 394.234 405.162 390.605 407.055C389.018 407.51 387.43 407.888 385.692 407.964C372.842 408.721 359.991 408.494 347.217 408.797C339.507 409.024 332.25 407.813 325.144 405.541C315.923 402.588 307.532 398.271 300.275 392.592C296.647 389.79 292.414 387.292 290.6 383.051C293.321 384.187 294.909 386.383 296.949 388.124C305.34 395.47 315.167 400.998 326.505 404.481C332.628 406.374 339.053 407.964 345.554 407.434C353.415 406.828 361.276 406.98 369.138 406.828C374.58 406.753 380.098 406.904 385.541 406.677C392.193 406.374 395.367 402.663 393.931 397.06C393.478 395.167 392.646 393.425 391.815 391.608C385.616 377.902 379.493 364.12 373.144 350.49C366.719 336.708 359.84 323.078 352.13 309.751C350.089 306.267 347.217 303.996 342.984 302.557C330.738 298.241 318.19 294.909 305.264 292.486C286.669 289.078 268.074 288.472 249.252 292.031C231.867 295.288 214.179 296.423 196.188 295.06C173.36 293.394 151.666 288.851 131.181 279.916C122.11 275.978 112.586 273.101 102.684 271.283C100.643 270.905 98.6775 270.526 96.6366 270.299C94.5957 270.072 93.3106 270.829 93.3862 272.722C93.4618 273.782 93.6886 274.766 93.7642 275.751C94.2177 280.749 94.9736 285.671 95.1248 290.668C95.6539 307.1 93.235 323.229 88.0949 339.131C87.717 340.343 86.8855 341.706 88.3217 342.842C89.8335 343.978 91.1941 343.069 92.5547 342.539C98.1484 340.191 103.969 338.601 110.016 337.39C117.877 335.875 126.041 336.027 133.751 338.298C138.211 339.586 142.444 339.51 146.828 338.526C148.642 338.147 150.456 337.768 152.271 337.314C170.79 333.074 189.083 328.152 207.451 323.305C217.58 320.655 227.709 317.777 237.989 315.581C245.397 313.991 251.066 316.187 255.526 321.261C258.096 324.214 259.986 327.546 261.649 330.953C266.714 341.1 271.778 351.247 276.767 361.394C279.791 367.528 283.268 373.358 287.803 378.811C288.861 380.098 290.222 381.309 290.449 383.051C288.105 382.142 286.972 380.325 285.611 378.583C281.832 373.661 278.506 368.512 275.784 363.136C270.569 352.762 265.504 342.312 260.364 331.862C258.701 328.454 256.887 325.123 254.392 322.094C251.52 318.61 247.665 316.793 242.6 316.793C239.274 316.793 236.1 317.399 233.001 318.232C220.377 321.488 207.829 324.895 195.206 328.151C177.518 332.695 159.981 337.768 141.764 340.873C139.42 341.252 138.287 342.539 137.531 344.281C136.246 347.234 136.397 350.338 136.624 353.443C136.699 354.73 137.455 356.169 136.624 357.381C135.187 359.501 135.641 361.697 136.246 363.817C137.228 367.073 136.926 370.557 138.74 373.661C139.194 374.494 139.042 375.403 138.589 376.236C136.548 380.022 137.002 383.96 138.06 387.897C138.287 388.806 138.74 389.715 138.135 390.472C136.019 393.274 136.548 396.454 136.472 399.483C136.397 401.3 135.641 402.739 133.6 403.193C129.745 404.026 129.291 406.298 129.291 409.251C129.367 445.144 129.291 561.077 129.367 596.97V613.629C129.367 614.159 129.367 614.689 129.367 615.295C129.367 630.288 129.367 645.281 129.367 660.275L127.931 661.183C127.931 637.709 127.931 614.235 127.931 590.761C127.931 557.821 127.931 444.766 127.931 411.826C127.931 410.614 128.006 409.479 127.931 408.267C127.78 405.162 127.704 405.087 124 405.314C118.936 405.617 113.871 406.374 108.655 405.617C101.323 404.632 101.248 404.859 101.323 411.22C101.852 452.565 101.021 573.95 102.23 615.295C102.835 636.043 102.608 637.257 102.608 658.005L100.492 659.368C100.492 651.114 100.416 662.471 100.416 654.293V653.762C100.416 650.885 100.416 648.008 100.416 645.054C100.416 635.513 100.416 625.896 100.265 616.355C100.265 615.371 100.189 614.689 100.038 614.235L99.9625 608.026C100.114 607.495 100.189 606.738 100.265 605.678C100.34 604.466 100.265 603.331 100.265 602.119C100.189 584.93 100.114 567.741 99.5846 550.476C98.9799 530.03 99.2822 429.47 99.2822 409.024C99.2822 405.92 98.8287 403.496 94.6713 402.739C92.1012 402.285 91.1185 400.695 91.1185 398.499C91.1185 397.741 91.1185 397.06 91.0429 396.303C90.665 390.775 88.3973 385.247 90.8162 379.719C88.7752 375.1 89.9091 370.557 90.7406 365.862C91.7233 360.258 89.3044 354.655 89.6067 348.9C89.7579 345.114 87.7926 343.902 83.1816 343.372C78.9486 342.842 74.6399 342.615 70.4825 342.009C65.7959 341.327 64.8133 340.267 64.2842 336.254C63.9062 333.679 64.2086 330.953 62.8479 327.546C61.2606 333.376 59.2952 338.147 58.6149 343.069C57.7079 349.884 55.7425 356.396 53.3237 362.833C51.2071 368.588 49.9977 374.57 49.2418 380.552C46.8985 399.862 45.0088 419.171 43.7237 438.556C43.4214 443.554 42.9678 448.552 42.6655 453.55C42.0608 461.273 41.4561 468.997 40.8513 476.721V476.872C40.549 480.659 40.2466 484.521 39.9443 488.307C39.1884 498.757 38.5836 509.131 37.9789 519.581C37.8277 522.231 37.8278 524.881 37.8278 527.531C37.8278 527.759 37.8277 527.986 37.9033 528.213L37.601 533.589C36.9963 534.271 36.9207 535.407 36.9207 537.527C36.9207 539.95 36.8451 542.449 36.6939 544.872L36.5427 547.295C36.1648 551.612 35.7112 556.609 35.4089 561.607ZM15.4532 464.227C11.7493 484.293 7.74302 504.36 5.24856 524.654C5.92887 523.367 6.30681 522.004 6.60916 520.565C8.5745 511.327 10.5398 502.013 12.5808 492.774C14.5461 483.46 16.8894 474.071 15.4532 464.227ZM92.4791 370.632C93.1594 379.265 93.0083 387.973 93.235 396.606C93.3106 400.013 93.7642 400.619 97.6949 401.603C103.137 402.966 108.655 403.799 115.08 403.648C120.296 403.951 125.965 402.891 131.635 401.603C133.902 401.073 135.036 400.013 135.187 397.893C135.414 394.712 133.6 391.684 133.978 388.882C134.431 385.701 135.339 382.597 135.187 379.341C135.187 378.886 135.263 378.432 135.036 378.053C133.6 375.554 133.751 373.207 134.885 370.481C136.246 367.225 134.583 365.938 130.501 366.24C119.389 367.149 108.277 366.998 97.1657 366.619C92.4792 366.543 92.1768 366.468 92.4791 370.632ZM92.5547 362.984C93.0083 364.347 94.3689 363.969 95.5027 364.12C101.474 364.726 107.446 364.726 113.418 364.726C117.197 364.726 120.976 364.802 124.68 364.65C127.25 364.574 129.745 364.12 132.239 363.742C133.676 363.514 134.054 362.53 133.827 361.394C133.6 360.334 132.617 360.031 131.559 360.031C130.728 360.031 129.896 360.258 129.065 360.334C124.151 360.788 119.238 361.47 114.249 361.546C107.899 361.697 101.626 361.243 95.4272 359.955C94.4445 359.728 93.3106 359.425 92.6303 360.334C92.1768 361.167 92.2524 362.076 92.5547 362.984ZM91.3453 352.307C91.4209 356.245 91.95 356.851 96.3342 357.835C97.1657 358.062 97.9972 358.214 98.8287 358.365C109.411 359.728 119.994 359.425 130.501 357.911C134.734 357.305 135.036 356.926 135.112 353.367C135.187 349.733 134.734 346.022 136.17 342.463C136.85 340.797 135.641 339.964 134.054 339.434C131.181 338.45 128.157 337.92 125.058 337.693C115.08 337.087 105.632 338.828 96.561 342.312C91.1185 344.356 91.1185 344.432 91.2697 349.657C91.3453 350.49 91.3453 351.399 91.3453 352.307ZM71.5408 277.72C69.5754 281.43 68.8951 285.141 68.4416 288.851C68.366 289.76 68.2904 290.744 69.5754 290.971C71.2384 291.198 71.5408 290.063 71.5408 289.002C71.6164 285.216 71.5408 281.43 71.5408 277.72ZM68.5928 314.673C69.0463 314.673 69.4243 314.748 69.8778 314.748C70.6337 308.312 71.9943 301.951 70.8605 295.439C70.1046 301.8 69.3487 308.236 68.5928 314.673ZM90.0603 321.412C92.1012 312.704 92.1768 303.92 92.9327 295.288C92.4791 289.381 92.4791 283.626 91.5721 278.023C89.8335 267.497 92.4791 269.466 78.873 268.103C74.4132 267.648 73.5817 268.557 74.0352 272.268C75.6982 285.519 74.1864 298.619 72.9014 311.795C72.6746 314.597 72.0699 317.323 71.7675 320.125C71.5408 322.018 72.4479 323.154 74.8667 323.381C78.2683 323.76 81.5942 324.29 84.9958 324.744C88.7752 325.123 89.2288 324.82 90.0603 321.412ZM88.3217 328.303C88.5485 327.016 87.4146 326.486 86.2052 326.334C82.1989 325.804 78.1927 325.274 74.1864 324.744C72.8258 324.592 71.314 324.517 71.0117 326.107C70.7093 327.849 71.9187 328.379 73.6573 328.606C76.5297 328.984 79.3265 329.514 82.1233 329.439C83.3328 329.59 84.5422 329.666 85.6761 329.742C87.1123 329.969 88.1705 329.515 88.3217 328.303ZM69.1219 339.586C69.4999 339.889 70.1046 339.964 70.5581 339.964C73.5817 340.343 76.6809 340.646 78.873 340.873C84.2399 341.025 84.6178 340.722 85.9784 337.163C86.3564 336.027 86.7343 334.891 87.0367 333.755C87.4146 332.543 87.0367 331.635 85.4493 331.483C80.8383 331.029 76.3029 330.499 71.692 330.196C69.3487 330.045 69.0463 331.938 68.8951 333.301C68.7439 335.421 66.5519 337.617 69.1219 339.586ZM66.8542 329.969C68.366 326.334 68.2904 323.229 68.9707 320.201C69.1219 319.595 68.9707 318.913 68.0637 318.913C67.2322 318.838 66.8542 319.443 66.8542 320.049C66.7786 323.154 66.8542 326.183 66.8542 329.969ZM33.4435 570.467C33.4435 568.498 33.4435 566.529 33.4435 564.56C33.4435 562.364 33.4435 560.168 33.6703 557.972C33.8215 555.928 34.275 553.883 34.3506 551.839C34.5018 549.643 34.4262 547.447 34.5018 545.251C34.5774 543.206 34.653 541.162 34.8797 539.117C35.3333 535.255 35.4089 535.255 33.8215 532.756C33.5947 545.629 32.0073 557.972 33.4435 570.467ZM17.7209 467.256C18.3256 465.817 18.7035 464.302 19.0815 462.788C22.861 446.204 26.6405 429.621 30.4199 413.038C31.1002 409.857 32.5364 406.828 32.612 403.572C32.7632 393.577 32.2341 383.581 31.1758 373.661C30.5711 368.133 29.5884 362.606 27.6987 356.245C27.2452 365.635 27.0184 373.964 26.7916 382.294C26.3381 401.603 23.2389 420.61 19.6106 439.616C17.872 448.703 16.6626 457.866 17.7209 467.256ZM31.5538 339.283C34.9553 338.223 37.0718 335.951 38.5081 333.225C39.1128 332.089 38.6592 331.256 37.601 330.575C34.5774 328.606 31.4782 326.561 27.6231 323.987C27.6231 328.984 27.5475 333.074 27.6987 337.163C27.7743 339.737 28.757 340.191 31.5538 339.283ZM26.1113 325.198C26.1113 323.684 26.1113 322.245 24.8263 321.033C22.3318 318.61 20.3665 315.884 18.4012 313.158C18.0988 313.234 17.7209 313.385 17.4185 313.461V439.692C22.1051 417.96 25.0531 396.151 25.2043 374.04C25.2043 369.194 25.0531 364.347 25.5066 359.501C26.6405 348.067 25.8846 336.633 26.1113 325.198ZM57.7079 242.433C55.5157 234.33 55.3646 226.076 55.3646 217.898C55.3646 204.949 56.0449 192.076 56.8008 179.128C57.2543 171.782 57.9346 164.437 58.1614 157.092C58.3882 151.489 58.9173 145.961 59.4464 140.357C60.2779 130.968 61.2606 121.578 62.1676 112.264C63.0747 103.328 63.9818 94.3931 64.8889 85.4577C66.0227 75.2351 67.081 64.9367 68.2904 54.714C69.4999 44.1884 70.7093 33.6629 71.9943 23.1373C72.7502 16.3979 73.5817 9.73425 74.4132 2.99486C71.5408 12.4603 70.8605 22.1529 69.651 31.7698C68.366 42.4468 67.3833 53.1238 66.2495 63.8008C65.0401 75.0836 63.6794 86.2907 62.47 97.5735C61.2606 108.856 60.2779 120.139 59.0685 131.422C57.5567 145.582 55.7425 159.818 54.2307 173.978C52.6433 188.745 50.9048 203.511 48.7127 218.277C48.108 222.669 47.8056 227.136 45.6891 231.225C42.0608 238.343 40.7757 245.84 39.4151 253.412C38.6592 257.804 39.1128 262.272 37.9033 266.588C37.1474 269.239 36.316 269.466 33.6703 267.951C32.2341 267.118 31.2514 265.907 30.1932 264.695C29.5885 264.014 29.3617 262.651 27.6231 263.029C27.2452 265.528 26.716 267.951 26.4137 270.45C26.1113 272.949 26.1113 275.448 27.094 277.871C27.5475 279.007 28.3034 279.84 29.664 279.007C32.6876 277.19 36.3159 275.902 37.6766 272.495C38.4325 270.602 39.8687 269.163 41.7584 268.103C44.3285 266.664 45.3867 266.891 46.5206 269.466C46.8229 270.223 46.8985 270.905 48.0324 270.829C48.9394 270.829 49.6953 270.374 50.0733 269.693C50.4512 269.011 50.678 268.33 50.9048 267.648C53.0213 260.682 55.1378 253.715 57.3299 246.749C58.0858 245.31 58.0858 243.871 57.7079 242.433ZM65.9471 249.248C63.4527 245.007 63.755 240.388 64.8889 235.845C71.0872 211.083 77.4368 186.397 83.3328 161.636C89.7579 134.678 96.1074 107.72 100.87 80.5357C101.323 77.8854 101.399 75.3108 100.945 72.7362C100.189 73.872 99.8113 75.0079 99.509 76.1437C91.2697 112.34 83.2572 148.611 74.7155 184.807C67.7613 214.339 62.3188 244.174 52.4166 273.176C50.5268 278.704 48.4859 284.08 45.3867 289.23C41.1537 296.272 37.1474 303.466 34.4262 311.114C34.0483 312.174 33.2168 313.234 34.5018 314.521C37.0718 313.385 38.2813 311.189 39.9443 309.372C41.9096 307.176 41.834 307.1 39.7931 304.829C44.1773 304.601 44.1017 304.526 47.73 301.724C50.678 299.452 53.1725 296.726 56.8764 295.363C59.2952 294.455 60.2023 293.092 60.1267 290.896C60.0511 287.488 60.0511 284.156 60.0511 280.749C60.0511 278.855 60.3535 277.19 62.8479 276.508C64.2086 276.129 65.1912 275.221 64.2842 274.236C61.7897 271.359 63.5283 269.011 64.9645 266.513C68.2148 260.909 69.4998 255.306 65.9471 249.248ZM63.9062 278.25C63.1503 278.098 62.47 278.401 62.2432 278.931C61.9409 279.613 61.6385 280.294 61.6385 280.976C61.6385 285.368 62.7724 289.684 62.3188 294.076C62.2432 294.53 62.3944 294.909 63.6794 295.363C64.6621 292.713 64.2086 290.29 64.3597 287.867C64.5865 285.065 64.7377 282.339 64.8889 279.537C64.8889 279.007 64.7377 278.401 63.9062 278.25ZM39.4151 472.405C40.3222 458.472 41.456 444.539 42.5143 430.605C43.6481 415.915 45.2355 401.3 46.5961 386.686C48.0323 371.162 53.0213 356.321 56.8008 341.327C60.1267 328.227 65.8715 315.506 64.3597 301.724C63.9062 297.408 63.9062 297.105 59.0685 297.938C52.1142 299.074 47.8812 303.314 43.6481 307.63C41.456 309.902 39.5663 312.325 37.223 314.521C35.938 315.733 34.5774 318.08 32.4609 317.172C30.1932 316.263 31.8561 313.991 32.3097 312.401C34.4262 305.056 38.3569 298.316 42.2119 291.653C43.6482 289.23 44.8576 286.882 44.3285 284.08C44.1017 282.717 44.3285 281.506 46.067 280.749C49.3174 279.31 49.4686 276.66 50.0733 273.403C44.7064 274.161 40.549 275.827 36.6183 277.871C28.5302 282.187 22.9366 288.472 18.4768 295.515C17.4185 297.181 16.587 298.922 14.3949 299.907C12.2784 300.815 12.354 302.254 14.017 303.39C16.2091 304.98 17.1917 307.176 18.25 309.296C22.3318 317.55 29.2861 323.76 37.6766 328.909C38.6592 329.514 39.7175 330.348 40.9269 329.515C41.834 328.909 41.6828 327.924 41.456 327.016C40.6246 324.214 40.9269 321.488 41.456 318.686C42.2875 314.446 43.1946 313.991 47.8812 315.506C53.3236 317.247 53.7016 318.989 49.3174 322.094C48.6371 322.548 48.0324 323.078 47.2765 323.457C44.9332 324.592 43.9505 326.258 43.7993 328.53C43.6482 330.726 43.1946 332.922 42.8167 335.118C42.6655 335.8 42.0608 337.087 41.456 336.33C39.4151 334.058 38.8104 335.951 37.8278 336.935C36.1648 338.601 34.275 340.192 31.705 340.797C28.9082 341.479 28.6058 343.069 28.5302 345.189C28.4546 349.505 29.1349 353.746 30.1176 357.911C33.3679 371.087 34.275 384.49 34.5018 397.817C35.1065 432.423 34.8041 467.028 34.5018 501.558C34.5018 502.846 34.5018 504.209 34.275 505.496C33.2168 512.538 33.8215 519.58 33.6703 526.698C33.6703 527.38 33.2168 528.516 35.1065 528.667C35.4845 525.335 36.1648 522.004 36.316 518.672C37.0718 503.224 38.4324 487.852 39.4151 472.405Z" fill="#F7931E"/>
</svg>
