<svg width="207" height="409" viewBox="0 0 207 409" fill="none" xmlns="http://www.w3.org/2000/svg">
<path d="M19.4827 291.18C19.2867 294.71 19.1887 298.142 18.8947 301.671C18.5028 306.672 18.2088 311.673 18.0129 316.674C18.0129 317.066 18.0129 317.36 18.0129 317.654L17.7189 322.165C17.6209 322.263 17.5229 322.361 17.327 322.361L17.7189 269.02C17.7189 268.137 17.7189 267.157 17.7189 266.274C17.9148 258.43 17.8169 250.684 18.1108 242.84C18.5028 233.231 18.2088 223.523 18.2088 213.522C17.5229 214.404 17.5229 214.993 17.327 215.581C15.4652 223.621 13.7014 231.662 11.8397 239.702C11.3498 241.859 10.8598 243.918 10.5659 246.076L8.9001 253.528C8.9001 253.528 8.90013 253.528 8.80214 253.528C6.64644 263.529 4.49077 273.432 2.33507 283.728C0.963268 282.747 1.35519 281.865 1.45318 280.982C2.33505 272.746 3.70685 264.509 5.17664 256.371C6.45046 249.115 7.82229 241.957 8.99812 234.701C9.1941 233.329 9.19411 231.956 9.19411 230.583C9.19411 208.031 9.19411 185.381 9.19411 162.829C9.19411 160.966 9.09609 159.201 7.13636 157.926C6.05851 157.142 6.4505 155.867 7.72432 155.377C8.80216 154.984 9.29207 154.2 9.782 153.416C10.7619 151.749 11.9377 150.082 13.5055 148.709C14.5833 147.729 14.8773 146.65 14.3874 145.375C13.1135 141.943 14.2893 138.708 14.7793 135.374C15.8571 135.08 16.0531 135.766 16.4451 136.158C16.837 136.551 17.131 137.041 17.5229 137.433C18.0129 138.021 18.4048 139.002 19.3846 138.806C20.2665 138.61 19.8746 137.629 19.9726 136.943C20.4625 133.413 20.7564 129.785 21.6383 126.353C21.9323 125.274 22.1282 124.196 22.6182 123.313C25.3618 118.019 25.5578 112.43 26.3417 106.841C27.3216 100.173 28.0075 93.4073 28.7913 86.6417C29.4773 81.0527 29.9672 75.4637 30.5551 69.8747C31.241 63.7954 31.8289 57.8142 32.5148 51.7349C32.9068 47.7147 33.2987 43.6946 33.7886 39.6744C34.3765 33.7912 35.0624 27.9081 35.7483 21.9268C36.3363 16.8281 36.9242 11.8274 37.5121 6.72865C37.7081 5.25786 38.002 3.68901 38.296 2.21822C38.3939 1.6299 38.5899 0.943535 39.6678 1.13964C40.5497 1.33575 40.5497 2.02212 40.4517 2.61043C39.9617 6.8267 39.4718 11.043 38.9819 15.3573C38.296 20.8483 37.7081 26.4373 37.0222 31.9282C36.3362 37.6153 35.7483 43.3023 35.0624 48.9894C34.5725 53.2057 34.1806 57.4219 33.7886 61.7363C33.2987 66.9331 32.8088 72.2279 32.3188 77.4247C32.1229 79.876 32.0249 82.4254 31.7309 84.9748C31.339 88.7988 31.339 92.721 31.045 96.545C30.5551 103.605 30.5551 110.665 30.5551 117.724C30.5551 120.078 31.045 122.431 31.241 124.784C31.241 125.078 31.3389 125.373 31.9269 125.569C32.6128 122.725 33.2987 119.784 33.9846 116.94C38.394 97.6236 42.8034 78.3072 47.2127 58.9908C48.6825 52.5193 50.1523 46.0478 51.6221 39.4783C51.8181 38.6939 51.916 37.8114 52.504 37.125C52.9939 36.5367 53.8758 36.6348 54.1697 37.3211C54.5617 38.3997 54.4637 39.4783 54.2678 40.4588C53.5819 44.3809 52.9939 48.303 52.112 52.2251C47.2127 75.8559 41.4315 99.3885 35.2584 122.823C34.5725 125.373 34.4745 127.824 35.8463 130.177C37.5121 133.021 37.3161 135.864 35.4544 138.512C33.9846 140.669 34.5725 142.434 35.7483 144.787C36.1403 143.512 36.3363 142.532 36.6302 141.649C37.2182 139.59 37.8061 139.198 40.3537 139.198C47.7027 139.1 54.7577 140.473 61.7147 142.434C66.1241 143.708 70.0435 145.768 74.3549 147.238C85.0354 151.062 96.2058 152.827 107.768 152.925C115.509 153.023 123.152 152.533 130.697 151.062C142.161 148.807 153.43 150.18 164.6 152.631C169.402 153.71 174.105 155.181 178.71 156.749C180.964 157.534 182.532 158.809 183.61 160.672C186.647 165.77 189.391 170.967 191.938 176.262C196.642 185.773 200.953 195.48 205.166 205.188C205.558 206.168 205.852 207.051 205.852 208.031C205.558 209.208 204.677 210.58 202.815 211.561C202.031 211.757 201.149 211.953 200.267 212.051C193.604 212.443 186.941 212.345 180.376 212.541C176.359 212.64 172.635 212.051 168.912 210.875C164.11 209.306 159.799 207.149 156.075 204.207C154.214 202.736 151.96 201.462 151.078 199.304C152.45 199.893 153.332 200.971 154.41 201.952C158.721 205.776 163.816 208.619 169.695 210.384C172.831 211.365 176.163 212.149 179.592 211.953C183.707 211.659 187.725 211.659 191.84 211.659C194.682 211.561 197.524 211.659 200.365 211.561C203.795 211.365 205.46 209.502 204.677 206.56C204.481 205.58 203.991 204.697 203.599 203.717C200.365 196.657 197.23 189.499 193.898 182.439C190.567 175.281 187.039 168.222 183.022 161.358C181.944 159.593 180.474 158.416 178.318 157.632C171.949 155.377 165.482 153.612 158.819 152.435C149.216 150.67 139.614 150.376 129.815 152.141C120.8 153.808 111.688 154.396 102.379 153.71C90.6206 152.827 79.3522 150.474 68.7697 145.866C64.0664 143.806 59.167 142.336 53.9738 141.355C52.8959 141.159 51.9161 140.963 50.8382 140.865C49.7604 140.767 49.0745 141.159 49.1725 142.14C49.1725 142.63 49.3684 143.218 49.3684 143.708C49.6624 146.258 49.9563 148.807 50.0543 151.455C50.3483 159.985 49.0745 168.32 46.4289 176.458C46.2329 177.144 45.7429 177.831 46.5268 178.321C47.3107 178.909 47.9966 178.419 48.6825 178.125C51.5241 176.948 54.4637 176.164 57.5013 175.478C61.5187 174.693 65.6341 174.399 69.5536 175.772C72.0032 176.654 74.3549 176.556 76.8046 176.066C77.7844 175.87 78.6663 175.674 79.6462 175.478C89.2488 173.222 98.6555 170.771 108.16 168.222C113.451 166.849 118.645 165.378 123.936 164.201C127.757 163.417 130.697 164.496 132.951 167.143C134.322 168.712 135.204 170.379 136.086 172.144C138.732 177.341 141.279 182.635 143.925 187.93C145.493 191.068 147.257 194.108 149.608 196.951C150.196 197.637 150.882 198.226 150.98 199.108C149.804 198.618 149.118 197.637 148.53 196.853C146.571 194.304 144.807 191.656 143.435 188.813C140.79 183.42 138.144 178.027 135.4 172.634C134.518 170.869 133.539 169.202 132.265 167.633C130.795 165.868 128.835 164.888 126.19 164.888C124.524 164.888 122.858 165.182 121.192 165.574C114.627 167.241 108.16 169.006 101.595 170.673C92.4824 173.026 83.3696 175.674 73.963 177.242C72.6891 177.439 72.1992 178.125 71.8073 179.007C71.1214 180.576 71.2193 182.145 71.3173 183.714C71.3173 184.4 71.7093 185.087 71.3173 185.773C70.5334 186.852 70.8274 188.028 71.1213 189.107C71.6113 190.774 71.5133 192.637 72.3952 194.206C72.6892 194.598 72.5911 195.088 72.2972 195.578C71.2193 197.539 71.5133 199.599 72.0032 201.56C72.1012 202.05 72.3952 202.54 72.1012 202.932C71.0234 204.403 71.3173 205.972 71.2194 207.639C71.2194 208.619 70.8274 209.306 69.7496 209.6C67.7898 209.992 67.4959 211.169 67.4959 212.738C67.4959 231.27 67.4959 346.874 67.4959 365.406V374.034C67.4959 374.329 67.4959 374.525 67.4959 374.917C67.4959 382.663 67.4959 390.409 67.4959 398.155L66.81 398.646C66.81 386.487 66.81 374.427 66.81 362.268C66.81 345.207 66.81 231.073 66.81 214.11C66.81 213.522 66.81 212.934 66.81 212.247C66.712 210.58 66.712 210.58 64.7522 210.678C62.1066 210.875 59.559 211.169 56.8154 210.875C52.9939 210.384 52.9939 210.482 52.9939 213.816C53.2878 235.192 52.7979 353.639 53.4838 375.015C53.7778 385.703 53.6798 396.489 53.6798 407.274L52.602 407.961C52.602 403.744 52.602 399.43 52.602 395.214V394.92C52.602 393.449 52.602 391.88 52.602 390.409C52.602 385.507 52.6019 380.506 52.504 375.603C52.504 375.113 52.504 374.721 52.406 374.525V371.289C52.504 370.995 52.504 370.603 52.504 370.112C52.504 369.524 52.504 368.936 52.504 368.249C52.406 359.327 52.406 350.502 52.112 341.579C51.8181 330.989 51.916 223.327 52.014 212.836C52.014 211.267 51.8181 209.992 49.6624 209.6C48.3886 209.404 47.8006 208.521 47.8006 207.443C47.8006 207.051 47.8006 206.658 47.8006 206.266C47.6047 203.423 46.4289 200.579 47.7027 197.637C46.6248 195.284 47.2127 192.931 47.7027 190.48C48.1926 187.538 46.9187 184.694 47.1147 181.753C47.2127 179.792 46.1349 179.204 43.7832 178.909C41.6275 178.615 39.3738 178.517 37.2181 178.223C34.7685 177.831 34.2786 177.341 33.9846 175.281C33.7886 173.909 33.8866 172.536 33.2007 170.771C32.3188 173.811 31.339 176.262 31.045 178.811C30.5551 182.341 29.5752 185.675 28.3014 189.009C27.2236 192.048 26.5377 195.088 26.1457 198.128C24.9699 208.129 23.99 218.13 23.3041 228.132C23.1081 230.681 22.9122 233.329 22.7162 235.878C22.4222 239.898 22.1283 243.82 21.7363 247.84V247.939C21.5404 249.9 21.4424 251.861 21.2464 253.822C20.8545 259.215 20.5605 264.608 20.1685 270C20.0705 271.373 20.0706 272.746 20.0706 274.119C20.0706 274.217 20.0706 274.315 20.0706 274.511L19.8746 277.256C19.5806 277.649 19.5806 278.237 19.5806 279.315C19.5806 280.59 19.4827 281.865 19.4827 283.139L19.3846 284.414C19.8746 286.081 19.5806 288.63 19.4827 291.18ZM9.09609 240.879C7.13636 251.272 5.07869 261.666 3.80487 272.158C4.19681 271.471 4.39274 270.785 4.49072 270.098C5.47059 265.294 6.54847 260.489 7.52833 255.783C8.70417 250.782 9.87998 245.977 9.09609 240.879ZM48.9765 192.539C49.3684 197.049 49.2705 201.462 49.3684 205.972C49.3684 207.737 49.6624 208.031 51.7201 208.521C54.5617 209.208 57.4033 209.698 60.7348 209.6C63.4784 209.796 66.3201 209.208 69.2596 208.521C70.4355 208.227 71.0234 207.737 71.1213 206.56C71.2193 204.893 70.3375 203.325 70.5334 201.854C70.7294 200.187 71.2193 198.618 71.1213 196.951C71.1213 196.755 71.1214 196.461 71.0234 196.265C70.2395 194.99 70.3375 193.715 70.9254 192.343C71.6113 190.676 70.7294 189.989 68.6717 190.185C62.8905 190.676 57.2073 190.578 51.4261 190.382C48.9765 190.382 48.7805 190.283 48.9765 192.539ZM48.9765 188.519C49.1725 189.205 49.9563 189.009 50.5442 189.107C53.5818 189.401 56.7174 189.401 59.8529 189.401C61.8126 189.401 63.7724 189.499 65.7321 189.401C67.0059 189.303 68.3777 189.107 69.6515 188.911C70.3375 188.813 70.6315 188.224 70.4355 187.636C70.3375 187.048 69.8476 186.95 69.2596 186.95C68.8677 186.95 68.3778 187.048 67.9858 187.146C65.4382 187.342 62.8905 187.734 60.3429 187.734C57.0113 187.832 53.7778 187.538 50.6423 186.95C50.1523 186.852 49.5644 186.656 49.1725 187.146C48.7805 187.636 48.8785 188.126 48.9765 188.519ZM48.3886 183.028C48.3886 185.087 48.6825 185.381 50.9362 185.871C51.3281 185.969 51.8181 186.067 52.21 186.165C57.6972 186.852 63.1845 186.656 68.5737 185.969C70.7294 185.675 70.9254 185.479 70.9254 183.616C70.9254 181.753 70.7294 179.792 71.5133 177.929C71.9053 177.046 71.2194 176.654 70.4355 176.36C68.9657 175.87 67.3979 175.576 65.8301 175.478C60.6369 175.183 55.7375 176.066 51.1322 177.831C48.2906 178.909 48.2906 178.909 48.3886 181.655C48.3886 182.047 48.3886 182.537 48.3886 183.028ZM38.198 144.493C37.2181 146.356 36.8262 148.317 36.5322 150.278C36.4342 150.768 36.4343 151.258 37.1202 151.357C38.002 151.455 38.1 150.866 38.1 150.376C38.198 148.317 38.198 146.356 38.198 144.493ZM36.6302 163.515C36.8262 163.515 37.1201 163.515 37.3161 163.515C37.708 160.181 38.3939 156.946 37.806 153.514C37.4141 156.946 37.0222 160.279 36.6302 163.515ZM47.7027 167.045C48.7805 162.535 48.7805 158.024 49.1725 153.514C48.9765 150.474 48.9765 147.532 48.4865 144.591C47.6047 139.198 48.9765 140.179 41.9215 139.492C39.6678 139.296 39.1778 139.688 39.4718 141.649C40.3537 148.513 39.5698 155.279 38.8839 162.044C38.7859 163.515 38.4919 164.888 38.296 166.359C38.198 167.339 38.6879 167.927 39.8638 168.026C41.6275 168.222 43.3913 168.516 45.057 168.712C47.0168 169.006 47.3107 168.81 47.7027 167.045ZM46.8208 170.575C46.9188 169.889 46.3309 169.692 45.7429 169.594C43.6852 169.3 41.6275 169.006 39.4718 168.81C38.7859 168.712 38.002 168.712 37.806 169.496C37.6101 170.379 38.296 170.673 39.1779 170.771C40.6477 170.967 42.1174 171.261 43.5872 171.261C44.2731 171.359 44.8611 171.359 45.449 171.457C46.2329 171.457 46.7228 171.261 46.8208 170.575ZM36.9242 176.458C37.1202 176.556 37.4141 176.654 37.7081 176.654C39.2758 176.85 40.8436 177.046 42.0195 177.144C44.7631 177.242 44.959 177.046 45.6449 175.183C45.8409 174.595 46.0369 174.007 46.2329 173.418C46.4289 172.83 46.2329 172.34 45.449 172.242C43.0973 172.046 40.7456 171.752 38.296 171.555C37.1201 171.457 36.9242 172.438 36.8262 173.124C36.7282 174.301 35.5524 175.379 36.9242 176.458ZM35.7483 171.457C36.5322 169.594 36.5322 167.927 36.8262 166.359C36.9242 166.064 36.8262 165.672 36.3362 165.672C35.9443 165.672 35.7483 165.966 35.7483 166.261C35.6504 167.927 35.7483 169.496 35.7483 171.457ZM18.4048 295.788C18.4048 294.808 18.4048 293.729 18.4048 292.749C18.4048 291.572 18.4048 290.493 18.5028 289.317C18.6008 288.238 18.7967 287.258 18.8947 286.179C18.9927 285.003 18.8947 283.924 18.9927 282.747C18.9927 281.669 19.0907 280.59 19.1887 279.61C19.4826 277.55 19.4826 277.55 18.6008 276.276C18.5028 282.943 17.7189 289.317 18.4048 295.788ZM10.2719 242.448C10.5659 241.663 10.7619 240.879 10.9578 240.094C12.9176 231.564 14.8773 222.935 16.837 214.404C17.229 212.738 17.9149 211.169 18.0129 209.502C18.1109 204.305 17.8168 199.206 17.2289 194.009C16.935 191.166 16.4451 188.322 15.4652 184.989C15.2692 189.793 15.0732 194.108 14.9753 198.422C14.7793 208.423 13.1135 218.229 11.2518 228.034C10.3699 232.838 9.782 237.545 10.2719 242.448ZM17.4249 176.262C19.1887 175.674 20.2665 174.595 21.0504 173.124C21.3444 172.536 21.1484 172.144 20.5605 171.752C18.9927 170.673 17.4249 169.692 15.3672 168.32C15.3672 170.869 15.2692 173.026 15.3672 175.085C15.4652 176.556 15.9551 176.752 17.4249 176.262ZM14.6813 169.006C14.6813 168.222 14.6813 167.437 13.9954 166.849C12.7216 165.574 11.6438 164.201 10.6639 162.731C10.4679 162.829 10.3699 162.829 10.174 162.927V228.23C12.6236 217.052 14.0934 205.678 14.1914 194.304C14.1914 191.754 14.0934 189.303 14.2893 186.754C14.8773 180.87 14.4853 174.889 14.6813 169.006ZM30.947 126.255C29.7712 122.039 29.7712 117.822 29.7712 113.508C29.7712 106.841 30.0652 100.173 30.5551 93.5054C30.7511 89.6813 31.143 85.9553 31.241 82.1313C31.339 79.2877 31.6329 76.3461 31.9269 73.5026C32.4168 68.698 32.9067 63.7954 33.2987 58.9908C33.7886 54.3823 34.1806 49.7738 34.7685 45.1653C35.3564 39.8705 35.9443 34.5756 36.5322 29.2808C37.1201 23.7898 37.806 18.3969 38.4919 12.906C38.8839 9.47413 39.2758 5.94423 39.7658 2.51238C38.296 7.41502 37.904 12.4157 37.3161 17.4164C36.6302 22.9074 36.1403 28.4964 35.5524 33.9873C34.9644 39.7724 34.1806 45.6556 33.5926 51.4407C33.0047 57.2258 32.5148 63.109 31.8289 68.8941C31.045 76.2481 30.0651 83.602 29.3792 90.858C28.5954 98.5061 27.6155 106.154 26.5376 113.704C26.2437 115.959 26.0477 118.313 24.9699 120.372C23.1081 124.098 22.4222 127.922 21.7363 131.844C21.3444 134.099 21.5404 136.453 20.9525 138.61C20.5605 139.982 20.0706 140.08 18.7967 139.296C18.0129 138.904 17.5229 138.217 17.033 137.629C16.739 137.237 16.641 136.551 15.6612 136.747C15.4652 138.021 15.1713 139.296 15.0733 140.571C14.8773 141.845 14.8773 143.12 15.4652 144.395C15.6612 144.983 16.0531 145.375 16.837 144.983C18.4048 144.003 20.2665 143.414 20.9525 141.649C21.3444 140.669 22.1282 139.884 23.1081 139.394C24.4799 138.61 24.9698 138.806 25.5578 140.08C25.7537 140.473 25.7538 140.865 26.3417 140.767C26.8316 140.767 27.2235 140.473 27.4195 140.179C27.6155 139.884 27.7135 139.492 27.8115 139.1C28.8893 135.472 29.9671 131.844 31.143 128.314C31.143 127.726 31.143 126.941 30.947 126.255ZM35.2584 129.687C33.9846 127.53 34.0826 125.078 34.6705 122.725C37.9041 109.978 41.1376 97.1333 44.1751 84.3865C47.5067 70.463 50.8382 56.5395 53.1899 42.4199C53.3858 41.0471 53.4838 39.7724 53.1899 38.3997C52.7979 38.988 52.6019 39.5763 52.504 40.1647C48.1926 58.8927 44.0772 77.6208 39.6678 96.3489C36.0423 111.645 33.2987 127.039 28.1054 142.042C27.1256 144.885 26.0477 147.729 24.4799 150.376C22.3242 154.004 20.1686 157.73 18.7967 161.652C18.6008 162.24 18.2088 162.731 18.8947 163.417C20.2665 162.829 20.8545 161.75 21.7363 160.77C22.7162 159.593 22.7162 159.593 21.6383 158.416C23.892 158.318 23.892 158.22 25.7537 156.847C27.2235 155.671 28.5953 154.298 30.4571 153.612C31.7309 153.121 32.2208 152.435 32.1228 151.357C32.1228 149.592 32.1228 147.827 32.1228 146.062C32.1228 145.081 32.3188 144.199 33.5926 143.905C34.2785 143.708 34.7685 143.218 34.3765 142.728C33.1027 141.257 33.9846 139.982 34.7685 138.708C36.4342 135.766 37.1201 132.825 35.2584 129.687ZM34.1806 144.787C33.7886 144.689 33.4947 144.885 33.2987 145.179C33.1027 145.473 33.0047 145.866 33.0047 146.258C33.0047 148.513 33.5926 150.768 33.3967 153.023C33.3967 153.22 33.4946 153.416 34.0826 153.71C34.5725 152.337 34.3765 151.062 34.4745 149.788C34.5725 148.317 34.6705 146.944 34.7685 145.473C34.6705 145.179 34.6705 144.787 34.1806 144.787ZM21.5403 245.095C22.0303 237.839 22.6182 230.681 23.1081 223.523C23.696 215.973 24.4799 208.423 25.1658 200.775C25.8518 192.735 28.4973 185.087 30.4571 177.341C32.2208 170.575 35.1604 164.005 34.3765 156.847C34.0826 154.592 34.1806 154.494 31.6329 154.886C28.0074 155.475 25.8518 157.632 23.6961 159.887C22.5202 161.064 21.5403 162.338 20.3645 163.417C19.6786 164.005 18.9927 165.28 17.9148 164.79C16.739 164.299 17.6209 163.123 17.8169 162.338C18.8947 158.514 20.9525 155.083 22.9122 151.553C23.5981 150.278 24.284 149.101 23.99 147.631C23.892 146.944 23.99 146.258 24.8719 145.866C26.5377 145.179 26.6356 143.708 26.9296 142.042C24.186 142.434 22.0303 143.316 19.9726 144.395C15.7592 146.65 12.9175 149.886 10.5659 153.514C9.97796 154.396 9.58601 155.279 8.41017 155.769C7.33232 156.259 7.33237 156.946 8.21425 157.534C9.39008 158.318 9.87996 159.495 10.3699 160.573C12.5256 164.888 16.0531 168.026 20.3645 170.673C20.8544 170.967 21.4424 171.359 22.0303 170.967C22.5202 170.673 22.4222 170.085 22.3242 169.692C21.9323 168.222 22.0303 166.849 22.3242 165.378C22.8142 163.221 23.2061 162.927 25.6558 163.711C28.4974 164.594 28.6933 165.476 26.4397 167.143C26.1457 167.339 25.7538 167.633 25.3618 167.829C24.186 168.418 23.696 169.3 23.598 170.477C23.5 171.653 23.3041 172.732 23.1081 173.909C23.0101 174.301 22.7162 174.889 22.4222 174.595C21.3444 173.418 21.0504 174.399 20.5605 174.889C19.6786 175.772 18.6987 176.556 17.4249 176.85C15.9551 177.144 15.7591 178.027 15.7591 179.105C15.6611 181.361 16.0531 183.518 16.641 185.675C18.3068 192.441 18.7967 199.402 18.8947 206.266C19.1887 224.112 18.9927 242.055 18.8947 259.901C18.8947 260.587 18.8947 261.274 18.7967 261.96C18.2088 265.588 18.6008 269.216 18.5028 272.942C18.5028 273.334 18.3068 273.923 19.2867 273.923C19.4826 272.158 19.7766 270.491 19.8746 268.726C20.2665 261.078 20.9524 253.037 21.5403 245.095Z" stroke="white" stroke-miterlimit="10"/>
</svg>
