<svg width="214" height="61" viewBox="0 0 214 61" fill="none" xmlns="http://www.w3.org/2000/svg">
<path d="M67.1815 52.0754C74.3751 52.0754 79.8125 46.2183 79.8125 38.774C79.8125 31.4131 74.3751 25.4739 67.1815 25.4739C60.0717 25.4739 54.6327 31.3298 54.6327 38.774C54.6327 46.2183 60.0718 52.0754 67.1815 52.0754ZM67.1815 16.6901C79.5613 16.6901 90.1853 26.6451 90.1853 38.7741C90.1853 50.9867 79.5613 60.8581 67.1815 60.8581C54.969 60.8581 44.2615 51.0705 44.2615 38.7741C44.2615 26.5616 54.969 16.6901 67.1815 16.6901V16.6901Z" fill="#6E7377"/>
<path d="M214 60.3979L194.306 37.4486L211.45 17.151H199.466L188.267 30.4108L180.257 21.0782C178.122 18.5903 174.954 17.151 171.611 17.151H164.695L182.22 37.571L162.939 60.3979H168.972C172.742 60.3979 176.316 58.7486 178.725 55.8967L188.259 44.6086L201.809 60.3979H214H214Z" fill="#6E7377"/>
<path d="M105.591 40.5723V0.620426H95.3015V40.5723C95.3015 48.1392 96.8579 54.8502 99.695 60.3979H112.03C107.896 55.8141 105.591 49.0263 105.591 40.5723V40.5723Z" fill="#6E7377"/>
<path d="M23.8252 25.3734C23.1251 25.1168 22.4093 24.8833 21.6778 24.6577V24.6343C16.3011 23.0389 12.831 20.4404 12.6675 16.6043C12.4805 12.854 15.9197 9.59388 21.9964 9.59388C25.5604 9.59388 28.0036 10.6211 29.4278 11.4923C29.8554 11.7493 30.182 11.9824 30.4314 12.185C30.657 12.364 31.0151 12.6831 31.3337 12.9786L33.9402 9.31393C35.5589 7.03396 37.5584 5.87468 39.6983 5.60214C39.1926 5.17402 38.5079 4.65292 37.6364 4.10042C34.7028 2.22538 29.6608 0 22.3159 0C9.78084 0 2.03081 7.8666 2.27996 15.9976C2.50552 24.6033 8.30222 29.7929 16.2697 33.0378C16.6201 33.1854 16.9703 33.3256 17.3279 33.4579C18.262 33.8081 19.2188 34.1426 20.199 34.4462C25.9182 35.9165 30.4775 38.6321 30.6334 43.1219C30.7735 47.4323 25.7466 50.9339 18.4327 50.9339C15.0873 50.9339 9.68736 50.1093 6.01466 48.6385L0 57.1117C5.04994 59.1972 11.6013 60.3953 18.083 60.3953C31.4116 60.3953 40.5699 52.7779 40.3053 43.371C40.0483 34.2903 33.17 28.6806 23.8252 25.3735V25.3734Z" fill="#6E7377"/>
<path d="M159.063 59.478H154.279V47.3648C154.279 52.6748 156.076 56.6694 159.063 59.478Z" fill="#6E7377"/>
<path d="M156.311 38.7741C156.311 51.1339 147.31 60.8581 135.402 60.8581C123.632 60.8581 114.628 51.1339 114.628 38.7741V17.15H124.918V38.7741C124.918 46.2184 129.476 52.0755 135.435 52.0755C141.465 52.0755 146.022 46.2184 146.022 38.7741V17.1509H156.311V38.7741H156.311Z" fill="#6E7377"/>
<path d="M156.321 40.5723V17.151H146.032V40.5723C146.032 44.5193 146.455 48.2331 147.263 51.6705C148.469 56.8014 153.093 60.3979 158.364 60.3979H162.76C158.626 55.8141 156.321 49.0263 156.321 40.5723H156.321Z" fill="#6E7377"/>
<path d="M31.3337 12.9507C34.0966 9.08301 37.5102 7.11584 41.1632 6.65381C40.2999 5.9281 39.1314 5.0435 37.6435 4.10647L31.3337 12.9507V12.9507Z" fill="#6E7377"/>
</svg>
