<svg xmlns="http://www.w3.org/2000/svg" width="167.232" height="167.258" viewBox="0 0 167.232 167.258">
  <g id="Сгруппировать_541" data-name="Сгруппировать 541" transform="translate(-5539.768 -3807.065)">
    <rect id="Прямоугольник_279" data-name="Прямоугольник 279" width="167.232" height="167.258" transform="translate(5539.768 3807.065)" fill="#f6f6f6"/>
    <rect id="Прямоугольник_281" data-name="Прямоугольник 281" width="4.567" height="22.913" transform="translate(5598.292 3859.368)" fill="#2c7bc0"/>
    <path id="Контур_429" data-name="Контур 429" d="M779.092,1442.368h14.625v4.083H783.659v5.211h9.787v4.082h-9.787v5.455h10.058v4.082H779.092Z" transform="translate(4828 2417)" fill="#2c7bc0"/>
    <path id="Контур_430" data-name="Контур 430" d="M801.123,1446.45H795.09v-4.083h16.632v4.083h-6.033v18.83h-4.566Z" transform="translate(4828 2417)" fill="#2c7bc0"/>
    <path id="Контур_431" data-name="Контур 431" d="M818.639,1446.45h-6.033v-4.083h16.632v4.083H823.2v18.83h-4.566Z" transform="translate(4828 2417)" fill="#2c7bc0"/>
    <rect id="Прямоугольник_282" data-name="Прямоугольник 282" width="4.566" height="22.913" transform="translate(5659.922 3859.368)" fill="#2c7bc0"/>
    <path id="Контур_432" data-name="Контур 432" d="M853.277,1442.368h4.941l-7.437,22.913h-4.817l-7.457-22.913h5.024l4.909,16.85h.052Z" transform="translate(4828 2417)" fill="#2c7bc0"/>
    <rect id="Прямоугольник_283" data-name="Прямоугольник 283" width="4.566" height="22.913" transform="translate(5688.225 3859.368)" fill="#2c7bc0"/>
    <path id="Контур_434" data-name="Контур 434" d="M744,1478.634h-5.32v3.108h5.851v2.668h-8.8V1470.7h8.8v2.668h-5.851v2.65H744Z" transform="translate(4828 2417)" fill="#1599da"/>
    <path id="Контур_436" data-name="Контур 436" d="M763.416,1481.742h5.575v2.668h-8.519V1470.7h2.944Z" transform="translate(4828 2417)" fill="#1599da"/>
    <path id="Контур_439" data-name="Контур 439" d="M805.959,1470.7l-3.828,13.782H798.74l-3.828-13.782h3.131l2.393,10.437,2.392-10.437Z" transform="translate(4828 2417)" fill="#1599da"/>
    <rect id="Прямоугольник_287" data-name="Прямоугольник 287" width="2.944" height="13.708" transform="translate(5635.249 3887.702)" fill="#1599da"/>
    <path id="Контур_440" data-name="Контур 440" d="M814.9,1481.742h5.575v2.668h-8.519V1470.7H814.9Z" transform="translate(4828 2417)" fill="#1599da"/>
    <path id="Контур_448" data-name="Контур 448" d="M777.334,1491.844v14.072h-3.755v-14.072h-4.244v-3.4h12.243v3.4Z" transform="translate(4828 2417)" fill="#1599da"/>
    <path id="Контур_449" data-name="Контур 449" d="M794.039,1498.554h-6.782v3.961h7.469v3.4H783.5v-17.474h11.224v3.4h-7.469v3.378h6.782Z" transform="translate(4828 2417)" fill="#1599da"/>
    <path id="Контур_450" data-name="Контур 450" d="M806.427,1505.917l-5.679-10.438.093,10.438h-3.7v-17.475h3.7l5.679,10.439-.093-10.439h3.713v17.475Z" transform="translate(4828 2417)" fill="#1599da"/>
    <rect id="Прямоугольник_289" data-name="Прямоугольник 289" width="3.755" height="17.475" transform="translate(5641.043 3905.442)" fill="#1599da"/>
    <rect id="Прямоугольник_291" data-name="Прямоугольник 291" width="3.755" height="17.475" transform="translate(5662.554 3905.442)" fill="#1599da"/>
    <path id="Контур_452" data-name="Контур 452" d="M844.976,1502.515h7.1v3.4H841.221v-17.474h3.755Z" transform="translate(4828 2417)" fill="#1599da"/>
    <path id="Контур_453" data-name="Контур 453" d="M864.448,1498.554h-6.782v3.961h7.468v3.4H853.911v-17.474h11.223v3.4h-7.468v3.378h6.782Z" transform="translate(4828 2417)" fill="#1599da"/>
    <path id="Контур_411" data-name="Контур 411" d="M730.9,1450.405a6.893,6.893,0,0,1,1.081-1.39l-3.542-3.883a12.172,12.172,0,0,0-2.249,2.927Z" transform="translate(4828 2417)" fill="#62a520"/>
    <path id="Контур_412" data-name="Контур 412" d="M739.578,1447.662a6.793,6.793,0,0,1,1.485.93l3.547-3.877a12.251,12.251,0,0,0-3.141-1.964Z" transform="translate(4828 2417)" fill="#e8a700"/>
    <path id="Контур_413" data-name="Контур 413" d="M747.71,1448.829l-4.7,2.347a6.811,6.811,0,0,1,.468,1.663l5.233-.495a12.113,12.113,0,0,0-1-3.515" transform="translate(4828 2417)" fill="#b2001a"/>
    <path id="Контур_414" data-name="Контур 414" d="M742.665,1450.495l4.712-2.346a12.343,12.343,0,0,0-2.205-2.919l-3.547,3.875a6.853,6.853,0,0,1,1.04,1.39" transform="translate(4828 2417)" fill="#498824"/>
    <path id="Контур_415" data-name="Контур 415" d="M729.961,1453.84c0-.106,0-.211.008-.316l-5.236-.469c-.016.26-.027.521-.027.785a12.007,12.007,0,0,0,.357,2.913l5.057-1.451a6.838,6.838,0,0,1-.159-1.462" transform="translate(4828 2417)" fill="#3b6b2d"/>
    <path id="Контур_416" data-name="Контур 416" d="M742.01,1458.144a6.849,6.849,0,0,1-1.28,1.2l2.767,4.476a12.278,12.278,0,0,0,2.705-2.514Z" transform="translate(4828 2417)" fill="#fcb200"/>
    <path id="Контур_417" data-name="Контур 417" d="M743.549,1453.84a6.633,6.633,0,0,1-.156,1.446l5.055,1.453a12.107,12.107,0,0,0,.354-2.9c0-.248-.011-.494-.021-.74l-5.242.495a2.015,2.015,0,0,1,.01.245" transform="translate(4828 2417)" fill="#dd1d13"/>
    <path id="Контур_418" data-name="Контур 418" d="M731.587,1458.245l-4.186,3.181a12.183,12.183,0,0,0,2.734,2.476l2.765-4.472a6.851,6.851,0,0,1-1.313-1.185" transform="translate(4828 2417)" fill="#f68a00"/>
    <path id="Контур_419" data-name="Контур 419" d="M730.047,1452.767a6.762,6.762,0,0,1,.5-1.686l-4.7-2.345a11.935,11.935,0,0,0-1.039,3.561Z" transform="translate(4828 2417)" fill="#0083c9"/>
    <path id="Контур_420" data-name="Контур 420" d="M742.852,1464.228l-2.762-4.471a6.791,6.791,0,0,1-1.612.655l.976,5.171a11.886,11.886,0,0,0,3.4-1.355" transform="translate(4828 2417)" fill="#90042f"/>
    <path id="Контур_421" data-name="Контур 421" d="M743.2,1456.018a7.074,7.074,0,0,1-.739,1.513l4.2,3.168a12.041,12.041,0,0,0,1.581-3.229Z" transform="translate(4828 2417)" fill="#1eaede"/>
    <path id="Контур_422" data-name="Контур 422" d="M737.735,1460.562a6.685,6.685,0,0,1-1.77.025l-.975,5.172a12.246,12.246,0,0,0,1.765.128,12.1,12.1,0,0,0,1.954-.158Z" transform="translate(4828 2417)" fill="#e64b15"/>
    <path id="Контур_423" data-name="Контур 423" d="M737.189,1447.06a6.711,6.711,0,0,1,1.681.325l1.892-4.909a12.038,12.038,0,0,0-3.573-.675Z" transform="translate(4828 2417)" fill="#d30024"/>
    <path id="Контур_424" data-name="Контур 424" d="M735.216,1460.457a6.717,6.717,0,0,1-1.668-.63l-2.767,4.473a11.989,11.989,0,0,0,3.461,1.324Z" transform="translate(4828 2417)" fill="#cb004f"/>
    <path id="Контур_425" data-name="Контур 425" d="M734.713,1447.36a6.723,6.723,0,0,1,1.716-.306V1441.8a11.934,11.934,0,0,0-3.617.659Z" transform="translate(4828 2417)" fill="#0a3656"/>
    <path id="Контур_426" data-name="Контур 426" d="M731.127,1457.64a6.761,6.761,0,0,1-.8-1.607l-5.055,1.451a12,12,0,0,0,1.669,3.337Z" transform="translate(4828 2417)" fill="#c28600"/>
    <path id="Контур_427" data-name="Контур 427" d="M732.545,1448.512a6.791,6.791,0,0,1,1.457-.882l-1.9-4.9a12.028,12.028,0,0,0-3.1,1.9Z" transform="translate(4828 2417)" fill="#00558d"/>
    <path id="Контур_428" data-name="Контур 428" d="M750.789,1442.368h8.134c4.879,0,7.406,2.5,7.406,6.216a4.939,4.939,0,0,1-3.079,4.722v.062a5.1,5.1,0,0,1,3.807,5.21c0,4.2-3.224,6.7-7.947,6.7h-8.321Zm7.344,9.414c2.163,0,3.63-.974,3.63-2.8,0-1.889-1.4-2.712-3.235-2.712h-3.173v5.514Zm.239,9.6c2.9,0,3.932-1.279,3.932-2.9,0-1.462-.915-2.985-3.568-2.985h-3.381v5.88Z" transform="translate(4828 2417)" fill="#2c7bc0"/>
    <path id="Контур_433" data-name="Контур 433" d="M728.128,1484.41h-2.946V1470.7h4.676c3.682,0,4.953,2.138,4.953,4.478,0,2.376-1.271,4.478-4.953,4.478h-1.73Zm0-7.384h1.75a1.83,1.83,0,0,0,0-3.656h-1.75Z" transform="translate(4828 2417)" fill="#1599da"/>
    <path id="Контур_435" data-name="Контур 435" d="M748.854,1484.411H745.91V1470.7H750.6c3.723,0,4.94,1.681,4.94,4.295,0,1.7-.478,3-1.934,3.693l2.444,5.722h-3.443l-1.862-5.137h-1.893Zm0-7.788h2.008c1.31,0,1.477-.878,1.477-1.627,0-.767-.167-1.626-1.477-1.626h-2.008Z" transform="translate(4828 2417)" fill="#1599da"/>
    <path id="Контур_437" data-name="Контур 437" d="M768.9,1477.555c0-4.185,1.165-7.108,5.512-7.108s5.5,2.923,5.5,7.108-1.165,7.112-5.5,7.112-5.512-2.925-5.512-7.112m2.985,0c0,3.2.7,4.461,2.527,4.461s2.518-1.262,2.518-4.461-.7-4.459-2.518-4.459-2.527,1.261-2.527,4.459" transform="translate(4828 2417)" fill="#1599da"/>
    <path id="Контур_438" data-name="Контур 438" d="M794.476,1480.041c0,3.4-2.153,4.625-5.419,4.625a9.7,9.7,0,0,1-4.307-.841v-3a8.6,8.6,0,0,0,4.015,1.06c2.081,0,2.684-.639,2.684-1.571,0-1.042-.458-1.39-1.852-1.573-3.505-.457-4.847-1.48-4.847-4.167,0-2.486,1.529-4.13,5.17-4.13a9.142,9.142,0,0,1,3.911.676v2.833a9.707,9.707,0,0,0-3.682-.731c-1.529,0-2.382.475-2.382,1.352,0,.987.541,1.3,1.976,1.5,3.058.42,4.733,1.042,4.733,3.966" transform="translate(4828 2417)" fill="#1599da"/>
    <path id="Контур_441" data-name="Контур 441" d="M821.312,1480.079V1470.7h2.944v9.23c0,1.773,1.165,2.084,2.2,2.084s2.184-.311,2.184-2.084v-9.23h2.954v9.377c0,3.766-3.048,4.587-5.138,4.587s-5.139-.821-5.139-4.587" transform="translate(4828 2417)" fill="#1599da"/>
    <path id="Контур_442" data-name="Контур 442" d="M836,1484.41h-2.944V1470.7h4.681c3.682,0,4.952,2.138,4.952,4.478,0,2.376-1.27,4.478-4.952,4.478H836Zm0-7.384h1.748a1.83,1.83,0,0,0,0-3.656H836Z" transform="translate(4828 2417)" fill="#1599da"/>
    <path id="Контур_443" data-name="Контур 443" d="M846.547,1484.41H843.6V1470.7h4.681c3.682,0,4.951,2.138,4.951,4.478,0,2.376-1.269,4.478-4.951,4.478h-1.737Zm0-7.384h1.747a1.829,1.829,0,0,0,0-3.656h-1.747Z" transform="translate(4828 2417)" fill="#1599da"/>
    <path id="Контур_444" data-name="Контур 444" d="M854.057,1477.555c0-4.185,1.165-7.108,5.5-7.108s5.513,2.923,5.513,7.108-1.165,7.112-5.513,7.112-5.5-2.925-5.5-7.112m2.985,0c0,3.2.7,4.461,2.517,4.461s2.528-1.262,2.528-4.461-.7-4.459-2.528-4.459-2.517,1.261-2.517,4.459" transform="translate(4828 2417)" fill="#1599da"/>
    <path id="Контур_445" data-name="Контур 445" d="M737.568,1500.349c0,4.333-2.744,5.9-6.9,5.9a12.347,12.347,0,0,1-5.491-1.072v-3.821a10.947,10.947,0,0,0,5.114,1.351c2.652,0,3.426-.816,3.426-2,0-1.328-.586-1.771-2.369-2-4.458-.583-6.171-1.887-6.171-5.312,0-3.168,1.947-5.265,6.593-5.265a11.615,11.615,0,0,1,4.974.862v3.61a12.341,12.341,0,0,0-4.692-.932c-1.947,0-3.027.607-3.027,1.725,0,1.259.68,1.654,2.511,1.911,3.894.535,6.029,1.328,6.029,5.056" transform="translate(4828 2417)" fill="#1599da"/>
    <path id="Контур_446" data-name="Контур 446" d="M739.749,1497.179c0-5.335,1.481-9.063,7.014-9.063s7.021,3.728,7.021,9.063-1.477,9.064-7.021,9.064-7.014-3.728-7.014-9.064m3.8,0c0,4.077.895,5.686,3.214,5.686s3.214-1.609,3.214-5.686-.894-5.684-3.214-5.684-3.214,1.607-3.214,5.684" transform="translate(4828 2417)" fill="#1599da"/>
    <path id="Контур_447" data-name="Контур 447" d="M768.472,1500.349c0,4.333-2.746,5.9-6.907,5.9a12.3,12.3,0,0,1-5.481-1.072v-3.821a10.925,10.925,0,0,0,5.107,1.351c2.652,0,3.432-.816,3.432-2,0-1.328-.593-1.771-2.371-2-4.463-.583-6.168-1.887-6.168-5.312,0-3.168,1.945-5.265,6.584-5.265a11.631,11.631,0,0,1,4.982.862v3.61a12.379,12.379,0,0,0-4.691-.932c-1.955,0-3.027.607-3.027,1.725,0,1.259.676,1.654,2.507,1.911,3.89.535,6.033,1.328,6.033,5.056" transform="translate(4828 2417)" fill="#1599da"/>
    <path id="Контур_451" data-name="Контур 451" d="M819.711,1488.442h6.3c4.464,0,5.68,2.1,5.68,4.939a3.643,3.643,0,0,1-1.894,3.309,3.79,3.79,0,0,1,2.415,3.891c0,3.029-1.385,5.335-6.107,5.335h-6.4Zm6.167,3.169h-2.412v3.751h2.412a1.876,1.876,0,0,0,0-3.751m-2.412,11.137h2.6a2.179,2.179,0,0,0,0-4.357h-2.6Z" transform="translate(4828 2417)" fill="#1599da"/>
  </g>
</svg>
