<svg xmlns="http://www.w3.org/2000/svg" width="74.56" height="74.561" viewBox="0 0 74.56 74.561">
  <g id="Сгруппировать_534" data-name="Сгруппировать 534" transform="translate(-5257.062 -3807.064)">
    <rect id="Прямоугольник_238" data-name="Прямоугольник 238" width="74.56" height="74.561" transform="translate(5257.062 3807.064)" fill="#feb500"/>
    <path id="Контур_199" data-name="Контур 199" d="M436.71,1398.375h3.9l-3.371,12.971h2.507l3.3-12.7v-2.329H436.71Z" transform="translate(4828 2417)" fill="#fff"/>
    <path id="Контур_200" data-name="Контур 200" d="M466.372,1442.716a5.685,5.685,0,0,1-1.689-11.112v2.116a3.721,3.721,0,1,0,3.369-.005V1431.6a5.684,5.684,0,0,1-1.68,11.114m-.811-12.21a.813.813,0,0,1,1.623,0v3.752a.813.813,0,0,1-1.623,0Zm.809-4.317a10.929,10.929,0,1,0,10.928,10.927,10.927,10.927,0,0,0-10.928-10.927" transform="translate(4828 2417)" fill="#fff"/>
    <path id="Контур_201" data-name="Контур 201" d="M453.826,1437.021a.914.914,0,0,0-.839-.9H448.2a.9.9,0,0,0,0,1.8h4.786a.916.916,0,0,0,.839-.9" transform="translate(4828 2417)" fill="#fff"/>
    <path id="Контур_202" data-name="Контур 202" d="M485.39,1437.021a.914.914,0,0,0-.839-.9h-4.786a.9.9,0,0,0,0,1.8h4.786a.916.916,0,0,0,.839-.9" transform="translate(4828 2417)" fill="#fff"/>
    <path id="Контур_203" data-name="Контур 203" d="M466.374,1424.476a.914.914,0,0,0,.9-.839v-4.786a.9.9,0,0,0-1.8,0v4.786a.916.916,0,0,0,.9.839" transform="translate(4828 2417)" fill="#fff"/>
    <path id="Контур_204" data-name="Контур 204" d="M466.374,1456.041a.914.914,0,0,0,.9-.84v-4.785a.9.9,0,0,0-1.8,0v4.785a.917.917,0,0,0,.9.84" transform="translate(4828 2417)" fill="#fff"/>
    <path id="Контур_205" data-name="Контур 205" d="M455.484,1430.789a.912.912,0,0,0-.283-1.195l-4.153-2.377a.9.9,0,0,0-.893,1.56l4.154,2.376a.915.915,0,0,0,1.175-.364" transform="translate(4828 2417)" fill="#fff"/>
    <path id="Контур_206" data-name="Контур 206" d="M482.879,1446.468a.916.916,0,0,0-.283-1.2l-4.154-2.377a.9.9,0,0,0-.892,1.56l4.153,2.377a.916.916,0,0,0,1.176-.364" transform="translate(4828 2417)" fill="#fff"/>
    <path id="Контур_207" data-name="Контур 207" d="M472.606,1426.135a.915.915,0,0,0,1.2-.283l2.377-4.154a.9.9,0,0,0-1.56-.893l-2.377,4.153a.919.919,0,0,0,.365,1.177" transform="translate(4828 2417)" fill="#fff"/>
    <path id="Контур_208" data-name="Контур 208" d="M456.927,1453.529a.913.913,0,0,0,1.2-.284l2.376-4.152a.9.9,0,0,0-1.56-.893l-2.376,4.154a.917.917,0,0,0,.364,1.175" transform="translate(4828 2417)" fill="#fff"/>
    <path id="Контур_209" data-name="Контур 209" d="M460.12,1426.146a.916.916,0,0,0,.358-1.175l-2.386-4.149a.9.9,0,0,0-1.557.9l2.386,4.147a.915.915,0,0,0,1.2.28" transform="translate(4828 2417)" fill="#fff"/>
    <path id="Контур_210" data-name="Контур 210" d="M475.854,1453.508a.914.914,0,0,0,.36-1.175l-2.386-4.148a.9.9,0,0,0-1.557.9l2.385,4.148a.915.915,0,0,0,1.2.279" transform="translate(4828 2417)" fill="#fff"/>
    <path id="Контур_211" data-name="Контур 211" d="M477.25,1430.77a.915.915,0,0,0,1.175.359l4.147-2.385a.9.9,0,0,0-.895-1.558l-4.148,2.385a.916.916,0,0,0-.279,1.2" transform="translate(4828 2417)" fill="#fff"/>
    <path id="Контур_212" data-name="Контур 212" d="M449.887,1446.505a.914.914,0,0,0,1.175.358l4.147-2.385a.9.9,0,0,0-.894-1.558l-4.148,2.386a.916.916,0,0,0-.28,1.2" transform="translate(4828 2417)" fill="#fff"/>
    <path id="Контур_213" data-name="Контур 213" d="M450.257,1396.33h2.526v.864h-1.468v1.8h1.05v.855h-1.05v1.912h1.468v.864h-2.526Z" transform="translate(4828 2417)" fill="#fff"/>
    <path id="Контур_214" data-name="Контур 214" d="M454.195,1398.671v3.956H453.3v-6.3h1.039l1.143,3.612v-3.612h.882v6.3h-.929Z" transform="translate(4828 2417)" fill="#fff"/>
    <path id="Контур_215" data-name="Контур 215" d="M456.926,1396.33h2.526v.864h-1.467v1.8h1.048v.855h-1.048v1.912h1.467v.864h-2.526Z" transform="translate(4828 2417)" fill="#fff"/>
    <path id="Контур_216" data-name="Контур 216" d="M461.032,1397.194v1.959h.353a.458.458,0,0,0,.52-.52v-.929c0-.343-.158-.51-.52-.51Zm0,2.544v2.888h-1.059v-6.3h1.541c1.069,0,1.459.529,1.459,1.412v.807c0,.678-.242,1.078-.845,1.217l1.012,2.86h-1.115Z" transform="translate(4828 2417)" fill="#fff"/>
    <path id="Контур_217" data-name="Контур 217" d="M465.1,1399.265h1.5v3.362h-.761v-.687a.954.954,0,0,1-1.012.761c-.91,0-1.328-.724-1.328-1.7v-3.046a1.492,1.492,0,0,1,1.588-1.7c1.17,0,1.513.65,1.513,1.579v.557h-.965v-.641c0-.39-.149-.612-.53-.612s-.548.269-.548.649v3.381c0,.381.158.65.521.65.343,0,.52-.195.52-.6V1400.1h-.5Z" transform="translate(4828 2417)" fill="#fff"/>
    <rect id="Прямоугольник_239" data-name="Прямоугольник 239" width="1.059" height="6.296" transform="translate(5295.163 3813.33)" fill="#fff"/>
    <path id="Контур_218" data-name="Контур 218" d="M469.948,1400.631h.846l-.418-2.526h-.01Zm-1.327,2,1.188-6.3h1.208l1.2,6.3h-1.087l-.195-1.152h-1.124l-.185,1.152Z" transform="translate(4828 2417)" fill="#fff"/>
    <path id="Контур_219" data-name="Контур 219" d="M474.593,1397.194v2.479h.39a.455.455,0,0,0,.52-.52V1397.7c0-.343-.158-.51-.52-.51Zm-1.059-.864H475.1c1.068,0,1.459.529,1.459,1.412v1.328c0,.882-.391,1.42-1.459,1.42h-.51v2.136h-1.059Z" transform="translate(4828 2417)" fill="#fff"/>
    <path id="Контур_220" data-name="Контур 220" d="M480.138,1396.33v4.764c0,.975-.418,1.606-1.495,1.606a1.42,1.42,0,0,1-1.578-1.606v-4.764h1.059v4.866c0,.372.148.622.519.622s.52-.25.52-.622v-4.866Z" transform="translate(4828 2417)" fill="#fff"/>
    <path id="Контур_221" data-name="Контур 221" d="M480.7,1396.33h1.059v5.432h1.262v.864H480.7Z" transform="translate(4828 2417)" fill="#fff"/>
    <rect id="Прямоугольник_240" data-name="Прямоугольник 240" width="1.059" height="6.296" transform="translate(5311.455 3813.33)" fill="#fff"/>
    <path id="Контур_222" data-name="Контур 222" d="M484.96,1396.33h2.813v.864H486.9v5.432h-1.068v-5.432h-.873Z" transform="translate(4828 2417)" fill="#fff"/>
    <path id="Контур_223" data-name="Контур 223" d="M488.916,1400.631h.845l-.417-2.526h-.01Zm-1.327,2,1.188-6.3h1.208l1.2,6.3H490.1l-.2-1.152h-1.124l-.185,1.152Z" transform="translate(4828 2417)" fill="#fff"/>
    <path id="Контур_224" data-name="Контур 224" d="M450.257,1405.094h2.526v.863h-1.468v1.8h1.05v.855h-1.05v1.912h1.468v.864h-2.526Z" transform="translate(4828 2417)" fill="#fff"/>
    <path id="Контур_225" data-name="Контур 225" d="M455.393,1409.393h.845l-.418-2.526h-.009Zm-1.328,2,1.189-6.3h1.207l1.2,6.3h-1.086l-.2-1.152h-1.123l-.186,1.152Z" transform="translate(4828 2417)" fill="#fff"/>
    <path id="Контур_226" data-name="Контур 226" d="M457.911,1409.765v-3.046a1.485,1.485,0,0,1,1.578-1.7c1.17,0,1.495.65,1.495,1.579v.743h-.966v-.826c0-.39-.13-.613-.51-.613s-.538.269-.538.65v3.38c0,.381.157.65.538.65s.51-.241.51-.613v-1.161h.966v1.087c0,.9-.371,1.569-1.495,1.569a1.488,1.488,0,0,1-1.578-1.7" transform="translate(4828 2417)" fill="#fff"/>
    <path id="Контур_227" data-name="Контур 227" d="M461.514,1409.765v-3.046a1.485,1.485,0,0,1,1.578-1.7c1.171,0,1.5.65,1.5,1.579v.743h-.966v-.826c0-.39-.131-.613-.51-.613s-.539.269-.539.65v3.38c0,.381.158.65.539.65s.51-.241.51-.613v-1.161h.966v1.087c0,.9-.372,1.569-1.5,1.569a1.488,1.488,0,0,1-1.578-1.7" transform="translate(4828 2417)" fill="#fff"/>
    <path id="Контур_228" data-name="Контур 228" d="M465.118,1405.094h2.526v.863h-1.467v1.8h1.049v.855h-1.049v1.912h1.467v.864h-2.526Z" transform="translate(4828 2417)" fill="#fff"/>
    <path id="Контур_229" data-name="Контур 229" d="M468.063,1410.034v-.845h.984v.863c0,.353.159.558.52.558.335,0,.483-.223.483-.558v-.241a1.139,1.139,0,0,0-.473-.892l-.622-.622a2.122,2.122,0,0,1-.883-1.68v-.214a1.314,1.314,0,0,1,1.486-1.384c1.059,0,1.477.52,1.477,1.43v.511h-.966v-.548c0-.362-.167-.539-.5-.539a.465.465,0,0,0-.5.521v.13c0,.352.195.557.5.854l.679.669a2.115,2.115,0,0,1,.854,1.634v.306a1.364,1.364,0,0,1-1.542,1.477,1.311,1.311,0,0,1-1.5-1.43" transform="translate(4828 2417)" fill="#fff"/>
    <path id="Контур_230" data-name="Контур 230" d="M471.509,1410.034v-.845h.984v.863c0,.353.159.558.52.558.335,0,.483-.223.483-.558v-.241a1.139,1.139,0,0,0-.473-.892l-.622-.622a2.12,2.12,0,0,1-.882-1.68v-.214a1.313,1.313,0,0,1,1.486-1.384c1.058,0,1.475.52,1.475,1.43v.511h-.965v-.548c0-.362-.167-.539-.5-.539a.465.465,0,0,0-.5.521v.13c0,.352.2.557.5.854l.678.669a2.113,2.113,0,0,1,.855,1.634v.306a1.363,1.363,0,0,1-1.541,1.477,1.312,1.312,0,0,1-1.5-1.43" transform="translate(4828 2417)" fill="#fff"/>
    <rect id="Прямоугольник_241" data-name="Прямоугольник 241" width="1.059" height="6.297" transform="translate(5303.058 3822.093)" fill="#fff"/>
    <path id="Контур_231" data-name="Контур 231" d="M477.742,1408.558v1.968h.464a.455.455,0,0,0,.52-.51v-.947c0-.335-.158-.511-.529-.511Zm0-.808h.371a.447.447,0,0,0,.5-.511v-.77a.446.446,0,0,0-.511-.512h-.362Zm-1.059-2.656h1.532c1.059,0,1.412.492,1.412,1.383v.641a.917.917,0,0,1-.631,1,.956.956,0,0,1,.789,1.05v.836c0,.891-.4,1.383-1.458,1.383h-1.644Z" transform="translate(4828 2417)" fill="#fff"/>
    <rect id="Прямоугольник_242" data-name="Прямоугольник 242" width="1.059" height="6.297" transform="translate(5308.269 3822.093)" fill="#fff"/>
    <path id="Контур_232" data-name="Контур 232" d="M481.895,1405.094h1.059v5.432h1.262v.864h-2.321Z" transform="translate(4828 2417)" fill="#fff"/>
    <path id="Контур_233" data-name="Контур 233" d="M484.653,1405.094h2.526v.863h-1.467v1.8h1.049v.855h-1.049v1.912h1.467v.864h-2.526Z" transform="translate(4828 2417)" fill="#fff"/>
    <rect id="Прямоугольник_243" data-name="Прямоугольник 243" width="74.56" height="74.561" transform="translate(5257.062 3807.064)" fill="none"/>
  </g>
</svg>
