<svg xmlns="http://www.w3.org/2000/svg" width="74.561" height="74.561" viewBox="0 0 74.561 74.561">
  <g id="Сгруппировать_533" data-name="Сгруппировать 533" transform="translate(-5164 -3807.064)">
    <rect id="Прямоугольник_234" data-name="Прямоугольник 234" width="74.561" height="74.561" transform="translate(5164 3807.064)" fill="#dc1c15"/>
    <path id="Контур_183" data-name="Контур 183" d="M347.889,1401.071a2.28,2.28,0,0,0-2.128,1.043h-.023v-3.748h4.347V1396.3h-6.653v8.472h2.306v-.334c0-.888.4-1.375,1.108-1.375.777,0,1.088.532,1.088,1.354v3.636c0,.8-.289,1.352-1.065,1.352-.865,0-1.175-.576-1.175-1.463v-1.884h-2.307v1.706c0,2.284.909,3.748,3.482,3.748,2.55,0,3.591-1.353,3.591-3.438V1404.4c0-2.373-1.219-3.326-2.571-3.326" transform="translate(4828 2417)" fill="#fff"/>
    <path id="Контур_184" data-name="Контур 184" d="M373.151,1444.171a8.934,8.934,0,1,1,8.935-8.934,8.943,8.943,0,0,1-8.935,8.934m17.158-25.894h-9.267a.119.119,0,0,0-.118.118v3.079a.119.119,0,0,0,.118.119h3.69l-4.1,4.1a12.133,12.133,0,1,0-9.05,21.578v3.548H367.93a.117.117,0,0,0-.119.118v3.3a.117.117,0,0,0,.119.119h3.655v3.491a.118.118,0,0,0,.118.118H375a.119.119,0,0,0,.12-.118v-3.491h3.655a.118.118,0,0,0,.117-.119v-3.3a.117.117,0,0,0-.117-.118h-3.655v-3.6a12.126,12.126,0,0,0,7.951-18.956l4.039-4.04v3.446a.119.119,0,0,0,.119.118h3.079a.119.119,0,0,0,.12-.118V1418.4a.119.119,0,0,0-.12-.118" transform="translate(4828 2417)" fill="#fff"/>
    <path id="Контур_185" data-name="Контур 185" d="M378.609,1431.569H367.773a.114.114,0,0,0-.118.107v2.622a.112.112,0,0,0,.118.108h10.836a.112.112,0,0,0,.119-.108v-2.622a.113.113,0,0,0-.119-.107" transform="translate(4828 2417)" fill="#fff"/>
    <path id="Контур_186" data-name="Контур 186" d="M378.609,1436.254H367.773a.114.114,0,0,0-.118.109v2.623a.112.112,0,0,0,.118.106h10.836a.112.112,0,0,0,.119-.106v-2.623a.114.114,0,0,0-.119-.109" transform="translate(4828 2417)" fill="#fff"/>
    <path id="Контур_187" data-name="Контур 187" d="M358.588,1397.03v2.465h.387a.452.452,0,0,0,.518-.517v-1.44c0-.342-.157-.508-.518-.508Zm-1.053-.859H359.1c1.062,0,1.449.526,1.449,1.4v1.322c0,.876-.387,1.412-1.449,1.412h-.508v2.123h-1.053Z" transform="translate(4828 2417)" fill="#fff"/>
    <path id="Контур_188" data-name="Контур 188" d="M361.736,1400.447h.841l-.416-2.512h-.009Zm-1.32,1.985,1.182-6.26h1.2l1.192,6.26h-1.081l-.194-1.145H361.6l-.185,1.145Z" transform="translate(4828 2417)" fill="#fff"/>
    <path id="Контур_189" data-name="Контур 189" d="M365.337,1397.03v1.948h.351a.455.455,0,0,0,.517-.517v-.923c0-.342-.157-.508-.517-.508Zm0,2.53v2.872h-1.053v-6.261h1.534c1.061,0,1.449.526,1.449,1.4v.8c0,.674-.24,1.071-.84,1.21l1.006,2.844h-1.108Z" transform="translate(4828 2417)" fill="#fff"/>
    <rect id="Прямоугольник_235" data-name="Прямоугольник 235" width="1.053" height="6.26" transform="translate(5195.7 3813.171)" fill="#fff"/>
    <path id="Контур_190" data-name="Контур 190" d="M369.1,1396.171h2.8v.859h-.869v5.4h-1.061v-5.4H369.1Z" transform="translate(4828 2417)" fill="#fff"/>
    <path id="Контур_191" data-name="Контур 191" d="M372.944,1400.447h.841l-.416-2.512h-.009Zm-.378-5.448,1.652.351v.591l-1.652-.212Zm-.943,7.433,1.182-6.26h1.2l1.191,6.26h-1.081l-.193-1.145H372.8l-.184,1.145Z" transform="translate(4828 2417)" fill="#fff"/>
    <path id="Контур_192" data-name="Контур 192" d="M359.031,1410.344c.434,0,.6-.259.6-.638v-3.278a.549.549,0,0,0-.6-.628h-.443v4.544Zm1.653-3.722v2.9c0,.961-.4,1.681-1.523,1.681h-1.626v-6.26h1.626c1.126,0,1.523.711,1.523,1.68" transform="translate(4828 2417)" fill="#fff"/>
    <rect id="Прямоугольник_236" data-name="Прямоугольник 236" width="1.053" height="6.26" transform="translate(5189.145 3821.942)" fill="#fff"/>
    <path id="Контур_193" data-name="Контур 193" d="M365.087,1407.86h1.5v3.342h-.757v-.683a.948.948,0,0,1-1.006.758c-.9,0-1.321-.721-1.321-1.691v-3.028a1.483,1.483,0,0,1,1.579-1.69c1.164,0,1.505.646,1.505,1.57v.554h-.96v-.637c0-.388-.148-.61-.527-.61s-.544.268-.544.647v3.361c0,.378.157.646.517.646.341,0,.517-.194.517-.6v-1.108h-.5Z" transform="translate(4828 2417)" fill="#fff"/>
    <path id="Контур_194" data-name="Контур 194" d="M367.044,1404.942h2.511v.859H368.1v1.791h1.044v.85H368.1v1.9h1.459v.858h-2.511Z" transform="translate(4828 2417)" fill="#fff"/>
    <path id="Контур_195" data-name="Контур 195" d="M370.867,1407.269v3.933h-.887v-6.26h1.034l1.136,3.592v-3.592h.878v6.26H372.1Z" transform="translate(4828 2417)" fill="#fff"/>
    <path id="Контур_196" data-name="Контур 196" d="M373.488,1404.942H376v.859H374.54v1.791h1.044v.85H374.54v1.9H376v.858h-2.511Z" transform="translate(4828 2417)" fill="#fff"/>
    <path id="Контур_197" data-name="Контур 197" d="M377.476,1405.8v1.948h.351a.455.455,0,0,0,.517-.517v-.923c0-.342-.156-.508-.517-.508Zm0,2.53v2.872h-1.052v-6.261h1.533c1.061,0,1.449.526,1.449,1.4v.8c0,.674-.24,1.071-.84,1.21l1.007,2.844h-1.109Z" transform="translate(4828 2417)" fill="#fff"/>
    <path id="Контур_198" data-name="Контур 198" d="M379.839,1404.942h2.512v.859h-1.459v1.791h1.043v.85h-1.043v1.9h1.459v.858h-2.512Z" transform="translate(4828 2417)" fill="#fff"/>
    <rect id="Прямоугольник_237" data-name="Прямоугольник 237" width="74.561" height="74.561" transform="translate(5164 3807.064)" fill="none"/>
  </g>
</svg>
