<svg xmlns="http://www.w3.org/2000/svg" width="74.561" height="74.561" viewBox="0 0 74.561 74.561">
  <g id="Сгруппировать_539" data-name="Сгруппировать 539" transform="translate(-5350.124 -3899.762)">
    <rect id="Прямоугольник_269" data-name="Прямоугольник 269" width="74.556" height="74.561" transform="translate(5350.127 3899.762)" fill="#3b6b2c"/>
    <path id="Контур_358" data-name="Контур 358" d="M531.537,1489.017v15.026H529.01v-11.5h-.022l-1.773,1.839h-.022v-2.637l2.327-2.726Z" transform="translate(4828 2417)" fill="#fff"/>
    <path id="Контур_359" data-name="Контур 359" d="M539.87,1492.275v1.307a2.4,2.4,0,0,1-1.728,2.438,2.31,2.31,0,0,1,1.861,2.549v2.216c0,2.084-1.108,3.435-3.657,3.435-2.571,0-3.481-1.462-3.481-3.745V1498.5h2.307v2.15c0,.886.31,1.462,1.174,1.462.775,0,1.129-.554,1.129-1.352v-2.482c0-.8-.354-1.219-1.24-1.219h-1.063v-1.928h.953c.819,0,1.35-.422,1.35-1.22V1492.3c0-.821-.286-1.352-1.084-1.352s-1.086.531-1.086,1.463v1.529H533v-1.33c0-2.216.909-3.768,3.524-3.768,2.327,0,3.347,1.308,3.347,3.436" transform="translate(4828 2417)" fill="#fff"/>
    <path id="Контур_360" data-name="Контур 360" d="M571.248,1532.159c-.308-.084-1.6-1.87-.579-3.046.169-.193-.343-.762-.2-.773a.934.934,0,0,1,1,.8c.012.219.021.442.021.667a11.57,11.57,0,0,1-.241,2.348m-3.152,5.809a1.9,1.9,0,0,1-.361-.133c-.628-.32-.553.191-.862.078s.349-.832-.579-.225-.675-.093-1.078-1.118a2.09,2.09,0,0,1,1.191-2.459,14.637,14.637,0,0,1,2.089-.551c1.382-.345,1.675-1.165,1.925-.666.048.093.094.182.136.266a1.817,1.817,0,0,1,.176.749,11.5,11.5,0,0,1-2.637,4.059m-8.115,3.35a11.5,11.5,0,0,1-3.234-.464.472.472,0,0,1-.14-.561,2.565,2.565,0,0,1,2.254-1.373c1.865-.182,4.317,1.211,4.707.986s1.181-1.25,2.338-1.207a1.816,1.816,0,0,1,1.049.263,11.46,11.46,0,0,1-6.974,2.356m-1.565-7.5c-.158.259-.591,2.194-.881,1.969s.118-2.244.2-2.4c.454-.834,1.437-.792.679.429m4.7-2.284a1.04,1.04,0,0,1-1.1-.1c-.29-.225.183-.6.356-.612.387-.034.969.506.744.712m5.078.019c-.124-.046-.234-.163-.328-.446a.259.259,0,0,1,.376-.33,1.112,1.112,0,0,1,.543.66c0,.188-.464.166-.591.116m.489.354c.387-.031.968.505.741.711a1.032,1.032,0,0,1-1.1-.1c-.289-.225.183-.6.357-.612m-12.344,4.589a3.271,3.271,0,0,1-.706,1.473,2.383,2.383,0,0,1-1.57.6c-.523-.039-.6-1.436-.6-2.153,0-.249-.351.487-.534-1.008-.117-.957-.732.1-.775-.539s-.35-.51-.673-.908-.722.039-1.171.24-.262.3-.9.1c-.016-.006-.025-.011-.04-.016a11.473,11.473,0,0,1-.9-4.478c0-.389.021-.771.057-1.149a.731.731,0,0,1,.071-.107c.609-.72.595-.889.595-.889l.674-.232a11.2,11.2,0,0,1,1.884.47c.667.25,1.718.816,2.328.567.442-.182.787-.423.746-.791-.05-.462-.413-.572-.852-.26-.163.114-.509-.7-.78-.655s.336.952.106.991-.694-.95-.774-1.111-.435-.556-.756-.253c-.679.645-1.781.606-2,.772-.673.5-.851-.166-.836-.575.027-.093.054-.187.084-.279a1.379,1.379,0,0,1,1.281-.142c.3.2.511-.051.628-.172a.413.413,0,0,0,0-.467c-.076-.161.148-.278.3-.319a8.006,8.006,0,0,0,.873-.52,2.863,2.863,0,0,1,1.747-.009.927.927,0,0,0,1.149-.232,3.106,3.106,0,0,1,.833-.7c.168-.078-.41-.616-.884-.029s-.719.639-.942.639-1.551-.332-1.716-.752.416-.733.906-.97a12.011,12.011,0,0,1,2.175-.309c.7-.152,1.588-.5,2.037-.2s-1.875.829-1.112,1.241c.272.149,1.5-.706,1.92-.925.989-.51-.96-.679-.707-1.716.286-1.173-2.391-.72-3.724-.62a11.5,11.5,0,0,1,17.384,7,1.911,1.911,0,0,1-.056.533.752.752,0,0,1-1.347.1c-.117-.169-.61-.635-.594.163s.775.879.04,1.357a2.839,2.839,0,0,1-1.209.484,1.558,1.558,0,0,0-.587,1.381c.082.439,1.131,1.639.352,1.589a4.492,4.492,0,0,1-1.784-1.556c-.24-.636-.5-1.258-.687-1.738a.685.685,0,0,0-1.083-.319c-.409.281.114.561-.181,1.16s-.5,1.133-.936.638c-1.123-1.287-2.755-.652-3.01-2.084-.139-.776-.807-.7-1.366-1.142s-.875-.675-.969-.358c-.084.278,1.758,1.738,1.89,2.112.195.556-.552,1.047-1.1,1.178s-.785-.306-1.321-.865-.77-.957-.807-.518a2.518,2.518,0,0,0,1.055,1.91c.465.3.987.428.836.907s0,.208-.525.725a1.4,1.4,0,0,0-.583,1.4c.037.719-.149.76-.262,1.357s-.371.08-.6.958m-6.181-12.683c.026-.031.05-.056.06-.069a1.54,1.54,0,0,1,.906-.332c.287-.049.669.095.715.286s-.718.537-.858.667c-.4.366-1.019,1.111-1.383,1.192a.441.441,0,0,1-.3-.032,11.5,11.5,0,0,1,.858-1.712m.59-1.172c.149-.219.644-.843.7-.922a.873.873,0,0,1,.557-.228c.175-.034.408.064.437.2a1.529,1.529,0,0,1-.155.731,1.9,1.9,0,0,1-1.22.551c-.269-.041-.374-.249-.323-.328m36.58,6.8a34.1,34.1,0,0,0-54.735,0q-.126.177-.215.306c.059.089.131.19.215.31a34.1,34.1,0,0,0,54.735,0c.086-.12.156-.221.213-.31-.057-.086-.127-.188-.213-.306" transform="translate(4828 2417)" fill="#fff"/>
    <path id="Контур_361" data-name="Контур 361" d="M545.128,1488.858h1.059v5.433h1.263v.864h-2.322Z" transform="translate(4828 2417)" fill="#fff"/>
    <path id="Контур_362" data-name="Контур 362" d="M549.986,1493.7v-3.38c0-.381-.168-.651-.549-.651s-.538.27-.538.651v3.38c0,.381.167.65.538.65s.549-.269.549-.65m-2.146-.167v-3.046a1.605,1.605,0,1,1,3.2,0v3.046a1.605,1.605,0,1,1-3.2,0" transform="translate(4828 2417)" fill="#fff"/>
    <path id="Контур_363" data-name="Контур 363" d="M551.342,1488.858h2.814v.864h-.872v5.433h-1.069v-5.433h-.873Z" transform="translate(4828 2417)" fill="#fff"/>
    <path id="Контур_364" data-name="Контур 364" d="M554.481,1488.858h2.814v.864h-.872v5.433h-1.069v-5.433h-.873Z" transform="translate(4828 2417)" fill="#fff"/>
    <path id="Контур_365" data-name="Контур 365" d="M558.438,1493.158h.845l-.418-2.526h-.009Zm-1.328,2,1.189-6.3h1.208l1.2,6.3h-1.088l-.194-1.152H558.3l-.186,1.152Z" transform="translate(4828 2417)" fill="#fff"/>
    <path id="Контур_366" data-name="Контур 366" d="M562.023,1493.53v-3.046a1.485,1.485,0,0,1,1.579-1.7c1.171,0,1.495.649,1.495,1.578v.743h-.965v-.826c0-.391-.13-.614-.512-.614s-.538.27-.538.651v3.38c0,.381.158.65.538.65s.512-.241.512-.613v-1.161h.965v1.087c0,.9-.371,1.569-1.495,1.569a1.489,1.489,0,0,1-1.579-1.7" transform="translate(4828 2417)" fill="#fff"/>
    <path id="Контур_367" data-name="Контур 367" d="M567.773,1493.7v-3.38c0-.381-.167-.651-.549-.651s-.538.27-.538.651v3.38c0,.381.167.65.538.65s.549-.269.549-.65m-2.146-.167v-3.046a1.605,1.605,0,1,1,3.2,0v3.046a1.605,1.605,0,1,1-3.2,0" transform="translate(4828 2417)" fill="#fff"/>
    <path id="Контур_368" data-name="Контур 368" d="M570.281,1491.2v3.956h-.892v-6.3h1.041l1.142,3.612v-3.612h.882v6.3h-.929Z" transform="translate(4828 2417)" fill="#fff"/>
    <path id="Контур_369" data-name="Контур 369" d="M572.891,1488.858H575.7v.864h-.873v5.433h-1.068v-5.433h-.873Z" transform="translate(4828 2417)" fill="#fff"/>
    <path id="Контур_370" data-name="Контур 370" d="M577.21,1489.721v1.96h.352a.459.459,0,0,0,.521-.52v-.929c0-.344-.158-.511-.521-.511Zm0,2.545v2.888h-1.059v-6.3h1.542c1.068,0,1.458.529,1.458,1.412v.808c0,.677-.242,1.076-.845,1.216l1.012,2.86H578.2Z" transform="translate(4828 2417)" fill="#fff"/>
    <path id="Контур_371" data-name="Контур 371" d="M581.826,1493.7v-3.38c0-.381-.167-.651-.548-.651s-.539.27-.539.651v3.38c0,.381.167.65.539.65s.548-.269.548-.65m-2.146-.167v-3.046a1.6,1.6,0,1,1,3.2,0v3.046a1.6,1.6,0,1,1-3.2,0" transform="translate(4828 2417)" fill="#fff"/>
    <rect id="Прямоугольник_270" data-name="Прямоугольник 270" width="1.059" height="6.297" transform="translate(5373.128 3914.62)" fill="#fff"/>
    <path id="Контур_372" data-name="Контур 372" d="M546.753,1497.62h1.059v5.433h1.263v.864h-2.322Z" transform="translate(4828 2417)" fill="#fff"/>
    <path id="Контур_373" data-name="Контур 373" d="M550.441,1502.292v-3.046a1.486,1.486,0,0,1,1.579-1.7c1.17,0,1.495.65,1.495,1.579v.743h-.966v-.827c0-.39-.13-.613-.511-.613s-.538.269-.538.651v3.38c0,.381.158.65.538.65s.511-.241.511-.613v-1.16h.966v1.086c0,.9-.371,1.569-1.495,1.569a1.489,1.489,0,0,1-1.579-1.7" transform="translate(4828 2417)" fill="#fff"/>
    <path id="Контур_374" data-name="Контур 374" d="M555.113,1501.921h.845l-.418-2.526h-.009Zm-1.328,2,1.189-6.3h1.207l1.2,6.3h-1.087l-.2-1.151h-1.123l-.186,1.151Z" transform="translate(4828 2417)" fill="#fff"/>
    <path id="Контур_375" data-name="Контур 375" d="M560.686,1499.831h-.028l-.715,4.086h-.493l-.789-4.086h-.019v4.086h-.873v-6.3H559l.687,3.548h.009l.613-3.548h1.338v6.3h-.966Z" transform="translate(4828 2417)" fill="#fff"/>
    <path id="Контур_376" data-name="Контур 376" d="M563.268,1501.086v1.968h.464a.455.455,0,0,0,.52-.51v-.947c0-.335-.158-.511-.529-.511Zm0-.81h.371a.445.445,0,0,0,.5-.509v-.772a.445.445,0,0,0-.51-.511h-.362Zm-1.059-2.656h1.532c1.059,0,1.412.493,1.412,1.385v.641a.917.917,0,0,1-.631,1,.955.955,0,0,1,.789,1.049v.837c0,.891-.4,1.383-1.458,1.383h-1.644Z" transform="translate(4828 2417)" fill="#fff"/>
    <rect id="Прямоугольник_271" data-name="Прямоугольник 271" width="1.059" height="6.297" transform="translate(5393.794 3914.62)" fill="#fff"/>
    <path id="Контур_377" data-name="Контур 377" d="M568.581,1501.921h.845l-.418-2.526H569Zm-1.328,2,1.188-6.3h1.208l1.2,6.3H569.76l-.2-1.151h-1.124l-.185,1.151Z" transform="translate(4828 2417)" fill="#fff"/>
    <path id="Контур_378" data-name="Контур 378" d="M574.153,1499.831h-.027l-.716,4.086h-.492l-.79-4.086h-.018v4.086h-.873v-6.3h1.235l.687,3.548h.01l.612-3.548h1.338v6.3h-.966Z" transform="translate(4828 2417)" fill="#fff"/>
    <path id="Контур_379" data-name="Контур 379" d="M575.677,1497.62H578.2v.864h-1.467v1.8h1.049v.854h-1.049v1.913H578.2v.864h-2.526Z" transform="translate(4828 2417)" fill="#fff"/>
    <path id="Контур_380" data-name="Контур 380" d="M579.615,1499.961v3.957h-.892v-6.3h1.04l1.143,3.612v-3.612h.882v6.3h-.929Z" transform="translate(4828 2417)" fill="#fff"/>
    <path id="Контур_381" data-name="Контур 381" d="M582.225,1497.62h2.815v.864h-.873v5.433H583.1v-5.433h-.873Z" transform="translate(4828 2417)" fill="#fff"/>
    <path id="Контур_382" data-name="Контур 382" d="M587.491,1502.459v-3.38c0-.382-.167-.651-.547-.651s-.539.269-.539.651v3.38c0,.381.167.65.539.65s.547-.269.547-.65m-2.145-.167v-3.046a1.6,1.6,0,1,1,3.2,0v3.046a1.6,1.6,0,1,1-3.2,0" transform="translate(4828 2417)" fill="#fff"/>
    <path id="Контур_383" data-name="Контур 383" d="M545.128,1511.055v-3.046a1.484,1.484,0,0,1,1.579-1.7c1.17,0,1.5.649,1.5,1.578v.743h-.966v-.826c0-.39-.13-.613-.511-.613s-.538.269-.538.65v3.381c0,.381.158.65.538.65s.511-.242.511-.613V1510.1h.966v1.087c0,.9-.372,1.57-1.5,1.57a1.489,1.489,0,0,1-1.579-1.7" transform="translate(4828 2417)" fill="#fff"/>
    <path id="Контур_384" data-name="Контур 384" d="M548.732,1506.383h1.059v5.433h1.263v.864h-2.322Z" transform="translate(4828 2417)" fill="#fff"/>
    <rect id="Прямоугольник_272" data-name="Прямоугольник 272" width="1.059" height="6.297" transform="translate(5379.491 3923.384)" fill="#fff"/>
    <path id="Контур_385" data-name="Контур 385" d="M556.032,1508.594H556l-.715,4.086H554.8l-.79-4.086h-.018v4.086h-.873v-6.3h1.235l.688,3.547h.009l.613-3.547H557v6.3h-.966Z" transform="translate(4828 2417)" fill="#fff"/>
    <path id="Контур_386" data-name="Контур 386" d="M558.716,1510.683h.845l-.418-2.526h-.009Zm-1.328,2,1.188-6.3h1.208l1.2,6.3H559.9l-.2-1.152h-1.125l-.185,1.152Z" transform="translate(4828 2417)" fill="#fff"/>
    <path id="Контур_387" data-name="Контур 387" d="M560.788,1506.383H563.6v.864h-.873v5.433h-1.068v-5.433h-.873Z" transform="translate(4828 2417)" fill="#fff"/>
    <rect id="Прямоугольник_273" data-name="Прямоугольник 273" width="1.059" height="6.297" transform="translate(5392.048 3923.384)" fill="#fff"/>
    <path id="Контур_388" data-name="Контур 388" d="M565.673,1511.055v-3.046a1.485,1.485,0,0,1,1.579-1.7c1.17,0,1.495.649,1.495,1.578v.743h-.966v-.826c0-.39-.13-.613-.51-.613s-.539.269-.539.65v3.381c0,.381.158.65.539.65s.51-.242.51-.613V1510.1h.966v1.087c0,.9-.371,1.57-1.495,1.57a1.489,1.489,0,0,1-1.579-1.7" transform="translate(4828 2417)" fill="#fff"/>
    <path id="Контур_389" data-name="Контур 389" d="M571.423,1511.223v-3.381c0-.381-.168-.65-.548-.65s-.539.269-.539.65v3.381c0,.381.167.65.539.65s.548-.269.548-.65m-2.146-.168v-3.046a1.605,1.605,0,1,1,3.205,0v3.046a1.605,1.605,0,1,1-3.205,0" transform="translate(4828 2417)" fill="#fff"/>
    <rect id="Прямоугольник_274" data-name="Прямоугольник 274" width="74.561" height="74.561" transform="translate(5350.124 3899.762)" fill="none"/>
  </g>
</svg>
