<svg xmlns="http://www.w3.org/2000/svg" width="74.561" height="74.561" viewBox="0 0 74.561 74.561">
  <g id="Сгруппировать_535" data-name="Сгруппировать 535" transform="translate(-5350.124 -3807.064)">
    <path id="Контур_467" data-name="Контур 467" d="M0,0H74.561V74.561H0Z" transform="translate(5350.124 3807.064)" fill="#92052f"/>
    <path id="Контур_234" data-name="Контур 234" d="M534.047,1407.934c0,.909-.332,1.552-1.241,1.552-.888,0-1.22-.643-1.22-1.552v-2.44c0-.908.332-1.551,1.22-1.551.909,0,1.241.643,1.241,1.551Zm-2.373-8.314c0-.91.312-1.443,1.132-1.443.841,0,1.153.533,1.153,1.443v1.019c0,.909-.312,1.442-1.153,1.442-.82,0-1.132-.533-1.132-1.442Zm4.9,8.048v-1.641a2.977,2.977,0,0,0-1.685-3.016,2.647,2.647,0,0,0,1.464-2.616v-.621c0-2.351-1.22-3.614-3.548-3.614-2.306,0-3.5,1.263-3.5,3.614v.621a2.669,2.669,0,0,0,1.419,2.616,2.964,2.964,0,0,0-1.664,3.016v1.641c0,2.284,1.088,3.88,3.749,3.88,2.682,0,3.769-1.6,3.769-3.88" transform="translate(4828 2417)" fill="#fff"/>
    <path id="Контур_235" data-name="Контур 235" d="M541.62,1396.33h1.059v5.432h1.262v.864H541.62Z" transform="translate(4828 2417)" fill="#fff"/>
    <path id="Контур_236" data-name="Контур 236" d="M545.4,1400.63h.845l-.418-2.526h-.009Zm-1.328,2,1.189-6.3h1.207l1.2,6.3H546.58l-.2-1.151h-1.124l-.186,1.151Z" transform="translate(4828 2417)" fill="#fff"/>
    <path id="Контур_237" data-name="Контур 237" d="M550.749,1396.33l-1.2,6.3H548.4l-1.2-6.3h1.078l.724,4.393h.009l.743-4.393Z" transform="translate(4828 2417)" fill="#fff"/>
    <path id="Контур_238" data-name="Контур 238" d="M552.961,1401.169v-3.382c0-.38-.167-.648-.548-.648s-.538.268-.538.648v3.382c0,.381.167.649.538.649s.548-.268.548-.649m-2.145-.168v-3.045a1.6,1.6,0,1,1,3.2,0V1401a1.6,1.6,0,1,1-3.2,0" transform="translate(4828 2417)" fill="#fff"/>
    <path id="Контур_239" data-name="Контур 239" d="M555.5,1397.193v1.96h.353a.458.458,0,0,0,.52-.52v-.928c0-.344-.158-.512-.52-.512Zm0,2.545v2.888h-1.059v-6.3h1.542c1.067,0,1.458.529,1.458,1.411v.808c0,.678-.242,1.077-.845,1.217l1.012,2.86H556.49Z" transform="translate(4828 2417)" fill="#fff"/>
    <path id="Контур_240" data-name="Контур 240" d="M559.973,1401.169v-3.382c0-.38-.167-.648-.548-.648s-.538.268-.538.648v3.382c0,.381.167.649.538.649s.548-.268.548-.649m-2.145-.168v-3.045a1.6,1.6,0,1,1,3.2,0V1401a1.6,1.6,0,1,1-3.2,0" transform="translate(4828 2417)" fill="#fff"/>
    <path id="Контур_241" data-name="Контур 241" d="M563.745,1401.763c.436,0,.6-.26.6-.641v-3.3a.552.552,0,0,0-.6-.632H563.3v4.57Zm1.662-3.743v2.916c0,.965-.4,1.69-1.533,1.69h-1.633v-6.3h1.633c1.134,0,1.533.715,1.533,1.69" transform="translate(4828 2417)" fill="#fff"/>
    <rect id="Прямоугольник_245" data-name="Прямоугольник 245" width="1.059" height="6.296" transform="translate(5393.827 3813.33)" fill="#fff"/>
    <path id="Контур_242" data-name="Контур 242" d="M568.91,1399.265h1.5v3.361h-.761v-.687a.954.954,0,0,1-1.012.762c-.911,0-1.328-.724-1.328-1.7v-3.046a1.492,1.492,0,0,1,1.588-1.7c1.17,0,1.513.65,1.513,1.579v.557h-.966v-.641c0-.39-.148-.613-.529-.613s-.548.269-.548.65v3.381c0,.38.159.65.52.65.344,0,.521-.195.521-.6V1400.1h-.5Z" transform="translate(4828 2417)" fill="#fff"/>
    <path id="Контур_243" data-name="Контур 243" d="M571.724,1398.67v3.956h-.891v-6.3h1.04l1.142,3.612v-3.612h.882v6.3h-.928Z" transform="translate(4828 2417)" fill="#fff"/>
    <rect id="Прямоугольник_246" data-name="Прямоугольник 246" width="1.059" height="6.296" transform="translate(5402.316 3813.33)" fill="#fff"/>
    <path id="Контур_244" data-name="Контур 244" d="M575.682,1396.33h2.813v.863h-.873v5.433h-1.067v-5.433h-.873Z" transform="translate(4828 2417)" fill="#fff"/>
    <path id="Контур_245" data-name="Контур 245" d="M580.808,1401.169v-3.382c0-.38-.167-.648-.548-.648s-.539.268-.539.648v3.382c0,.381.168.649.539.649s.548-.268.548-.649m-2.145-.168v-3.045a1.6,1.6,0,1,1,3.2,0V1401a1.6,1.6,0,1,1-3.2,0" transform="translate(4828 2417)" fill="#fff"/>
    <path id="Контур_246" data-name="Контур 246" d="M582.229,1401.271v-.845h.984v.863c0,.353.159.558.521.558.334,0,.482-.223.482-.558v-.241a1.139,1.139,0,0,0-.473-.892l-.622-.622a2.122,2.122,0,0,1-.883-1.68v-.214a1.314,1.314,0,0,1,1.487-1.384c1.058,0,1.476.52,1.476,1.43v.511h-.966v-.548c0-.362-.167-.539-.5-.539a.466.466,0,0,0-.5.521v.13c0,.352.2.556.5.854l.677.669a2.113,2.113,0,0,1,.855,1.634v.306a1.364,1.364,0,0,1-1.541,1.477,1.312,1.312,0,0,1-1.5-1.43" transform="translate(4828 2417)" fill="#fff"/>
    <path id="Контур_247" data-name="Контур 247" d="M587.784,1401.169v-3.382c0-.38-.167-.648-.548-.648s-.538.268-.538.648v3.382c0,.381.167.649.538.649s.548-.268.548-.649m-2.145-.168v-3.045a1.6,1.6,0,1,1,3.2,0V1401a1.6,1.6,0,1,1-3.2,0" transform="translate(4828 2417)" fill="#fff"/>
    <path id="Контур_248" data-name="Контур 248" d="M541.62,1405.094h2.526v.863h-1.467v1.8h1.049v.855h-1.049v1.912h1.467v.864H541.62Z" transform="translate(4828 2417)" fill="#fff"/>
    <path id="Контур_249" data-name="Контур 249" d="M545.595,1409.764v-3.046a1.485,1.485,0,0,1,1.579-1.7c1.17,0,1.494.65,1.494,1.579v.743H547.7v-.827c0-.39-.129-.613-.509-.613s-.539.269-.539.65v3.38c0,.381.158.651.539.651s.509-.242.509-.614v-1.16h.966v1.086c0,.9-.371,1.569-1.494,1.569a1.489,1.489,0,0,1-1.579-1.7" transform="translate(4828 2417)" fill="#fff"/>
    <path id="Контур_250" data-name="Контур 250" d="M550.258,1405.957v1.96h.353a.458.458,0,0,0,.52-.52v-.929c0-.344-.158-.511-.52-.511Zm0,2.545v2.888H549.2v-6.3h1.541c1.068,0,1.459.529,1.459,1.411v.808c0,.678-.242,1.077-.846,1.216l1.012,2.861h-1.114Z" transform="translate(4828 2417)" fill="#fff"/>
    <path id="Контур_251" data-name="Контур 251" d="M552.729,1405.094h2.526v.863h-1.467v1.8h1.049v.855h-1.049v1.912h1.467v.864h-2.526Z" transform="translate(4828 2417)" fill="#fff"/>
    <path id="Контур_252" data-name="Контур 252" d="M555.674,1410.034v-.845h.984v.863c0,.353.158.558.52.558.334,0,.484-.223.484-.558v-.241a1.143,1.143,0,0,0-.474-.892l-.623-.622a2.123,2.123,0,0,1-.882-1.68v-.214a1.314,1.314,0,0,1,1.486-1.384c1.058,0,1.477.52,1.477,1.43v.511h-.966v-.548c0-.362-.168-.539-.5-.539a.465.465,0,0,0-.5.521v.129c0,.353.2.558.5.855l.679.669a2.113,2.113,0,0,1,.854,1.634v.306a1.364,1.364,0,0,1-1.542,1.477,1.311,1.311,0,0,1-1.495-1.43" transform="translate(4828 2417)" fill="#fff"/>
    <path id="Контур_253" data-name="Контур 253" d="M559.223,1409.764v-3.046a1.485,1.485,0,0,1,1.579-1.7c1.17,0,1.494.65,1.494,1.579v.743h-.965v-.827c0-.39-.13-.613-.511-.613s-.538.269-.538.65v3.38c0,.381.158.651.538.651s.511-.242.511-.614v-1.16h.965v1.086c0,.9-.371,1.569-1.494,1.569a1.489,1.489,0,0,1-1.579-1.7" transform="translate(4828 2417)" fill="#fff"/>
    <rect id="Прямоугольник_247" data-name="Прямоугольник 247" width="1.058" height="6.296" transform="translate(5390.826 3822.094)" fill="#fff"/>
    <path id="Контур_254" data-name="Контур 254" d="M564.331,1405.094h2.814v.863h-.873v5.433H565.2v-5.433h-.873Z" transform="translate(4828 2417)" fill="#fff"/>
    <path id="Контур_255" data-name="Контур 255" d="M568.288,1409.394h.845l-.418-2.526h-.009Zm-1.328,2,1.189-6.3h1.207l1.2,6.3h-1.086l-.2-1.152h-1.123l-.186,1.152Z" transform="translate(4828 2417)" fill="#fff"/>
    <path id="Контур_256" data-name="Контур 256" d="M541.62,1413.856h2.526v.864h-1.467v1.8h1.049v.855h-1.049v1.912h1.467v.865H541.62Z" transform="translate(4828 2417)" fill="#fff"/>
    <path id="Контур_257" data-name="Контур 257" d="M544.573,1418.528v-3.046a1.485,1.485,0,0,1,1.579-1.7c1.17,0,1.494.649,1.494,1.578v.743h-.965v-.826c0-.39-.13-.613-.51-.613s-.539.269-.539.65v3.38c0,.381.158.651.539.651s.51-.242.51-.614v-1.161h.965v1.087c0,.9-.371,1.569-1.494,1.569a1.489,1.489,0,0,1-1.579-1.7" transform="translate(4828 2417)" fill="#fff"/>
    <path id="Контур_258" data-name="Контур 258" d="M550.323,1418.695v-3.38c0-.381-.168-.65-.548-.65s-.538.269-.538.65v3.38c0,.381.166.651.538.651s.548-.27.548-.651m-2.145-.167v-3.046a1.6,1.6,0,1,1,3.2,0v3.046a1.6,1.6,0,1,1-3.2,0" transform="translate(4828 2417)" fill="#fff"/>
    <path id="Контур_259" data-name="Контур 259" d="M552.831,1416.2v3.956h-.892v-6.3h1.04l1.142,3.612v-3.612H555v6.3h-.929Z" transform="translate(4828 2417)" fill="#fff"/>
    <path id="Контур_260" data-name="Контур 260" d="M557.707,1418.695v-3.38c0-.381-.167-.65-.547-.65s-.539.269-.539.65v3.38c0,.381.167.651.539.651s.547-.27.547-.651m-2.145-.167v-3.046a1.6,1.6,0,1,1,3.2,0v3.046a1.6,1.6,0,1,1-3.2,0" transform="translate(4828 2417)" fill="#fff"/>
    <path id="Контур_261" data-name="Контур 261" d="M562.24,1416.067h-.028l-.715,4.086h-.492l-.79-4.086H560.2v4.086h-.873v-6.3h1.235l.687,3.547h.01l.612-3.547h1.338v6.3h-.966Z" transform="translate(4828 2417)" fill="#fff"/>
    <rect id="Прямоугольник_248" data-name="Прямоугольник 248" width="1.059" height="6.296" transform="translate(5391.764 3830.857)" fill="#fff"/>
    <path id="Контур_262" data-name="Контур 262" d="M565.389,1418.528v-3.046a1.485,1.485,0,0,1,1.579-1.7c1.17,0,1.495.649,1.495,1.578v.743H567.5v-.826c0-.39-.13-.613-.51-.613s-.539.269-.539.65v3.38c0,.381.158.651.539.651s.51-.242.51-.614v-1.161h.966v1.087c0,.9-.372,1.569-1.495,1.569a1.489,1.489,0,0,1-1.579-1.7" transform="translate(4828 2417)" fill="#fff"/>
    <path id="Контур_263" data-name="Контур 263" d="M570.061,1418.156h.845l-.418-2.526h-.009Zm-1.328,2,1.189-6.3h1.207l1.2,6.3H571.24l-.194-1.152h-1.124l-.186,1.152Z" transform="translate(4828 2417)" fill="#fff"/>
    <path id="Контур_264" data-name="Контур 264" d="M571.926,1430.809l-6.554,6.236a1.087,1.087,0,0,0-.374.937v17.475a.374.374,0,0,0,.374.372h6.77a.373.373,0,0,0,.373-.372v-24.489c0-.208-.161-.583-.589-.159" transform="translate(4828 2417)" fill="#fff"/>
    <path id="Контур_265" data-name="Контур 265" d="M553.044,1438.933l-6.556,6.234a1.09,1.09,0,0,0-.373.936v9.353a.373.373,0,0,0,.373.372h6.77a.374.374,0,0,0,.375-.372v-16.367c0-.207-.164-.584-.589-.156" transform="translate(4828 2417)" fill="#fff"/>
    <path id="Контур_266" data-name="Контур 266" d="M574.905,1423.248a.181.181,0,0,0-.056-.142.188.188,0,0,0-.121-.053l-.035,0-.054,0-5.02,1.133-.091.009a.2.2,0,0,0-.1.051.192.192,0,0,0,0,.27l.056.057,1.146,1.146L559.261,1437.1l-5.252-5.253a.15.15,0,0,0-.214,0l-1.425,1.426h0l-8.42,8.418a.153.153,0,0,0,0,.215l1.427,1.426a.149.149,0,0,0,.212,0l8.314-8.313,3.813,3.812a.084.084,0,0,0,.011.018l1.426,1.424a.15.15,0,0,0,.214,0l12.907-12.906,1.2,1.2a.187.187,0,0,0,.267,0,.184.184,0,0,0,.055-.124v-.015l1.1-5.124Z" transform="translate(4828 2417)" fill="#fff"/>
    <path id="Контур_267" data-name="Контур 267" d="M562.522,1440.027l-3.172,3.2a.149.149,0,0,1-.2-.007l-2.873-2.93c-.526-.522-.639-.1-.639.109v15.06a.371.371,0,0,0,.371.372h6.772a.373.373,0,0,0,.373-.372v-15.31c0-.206-.163-.584-.628-.119" transform="translate(4828 2417)" fill="#fff"/>
    <rect id="Прямоугольник_249" data-name="Прямоугольник 249" width="74.561" height="74.561" transform="translate(5350.124 3807.064)" fill="none"/>
  </g>
</svg>
