<svg xmlns="http://www.w3.org/2000/svg" width="74.561" height="74.561" viewBox="0 0 74.561 74.561">
  <g id="Сгруппировать_536" data-name="Сгруппировать 536" transform="translate(-5444.066 -3807.064)">
    <rect id="Прямоугольник_250" data-name="Прямоугольник 250" width="74.561" height="74.561" transform="translate(5444.066 3807.064)" fill="#e44a13"/>
    <path id="Контур_268" data-name="Контур 268" d="M627.217,1402.4c-.044.841-.4,1.373-1.2,1.373-.863,0-1.2-.532-1.2-1.507v-2.615c0-.953.354-1.507,1.219-1.507.842,0,1.174.576,1.174,1.507Zm2.506-2.305c0-2.328-1.021-4.011-3.68-4.011-2.682,0-3.723,1.462-3.723,3.789v2.216c0,2.461.974,3.7,2.792,3.7a2.161,2.161,0,0,0,2.083-1.218h.022v3.235c0,.908-.355,1.551-1.262,1.551s-1.241-.532-1.241-1.463v-1h-2.306v.8c0,2.216.8,3.767,3.591,3.767,2.659,0,3.724-1.706,3.724-4.056Z" transform="translate(4828 2417)" fill="#fff"/>
    <path id="Контур_269" data-name="Контур 269" d="M667.7,1451.71l-6.9,3.983v-7.968l6.9-3.986Zm-22.8,3.983v-7.363l6.377,3.682Zm-1.048,0-6.9-3.983v-7.971l6.9,3.986Zm7.425-22.043-6.377,3.683v-7.364Zm8.475,3.683-6.376-3.683,6.376-3.681Zm-6.376,5.5,6.9-3.983,6.9,3.983-6.9,3.985Zm-1.574-.908-6.377-3.681,6.377-3.682Zm7.426-3.681-6.377,3.681v-7.363ZM651.8,1451.1l-6.377-3.682,6.377-3.683Zm16.689-8.728-7.69-4.438v-8.878a.524.524,0,0,0-.262-.454l-7.95-4.59a.524.524,0,0,0-.525,0l-7.95,4.59a.524.524,0,0,0-.262.454v8.878l-7.689,4.438a.523.523,0,0,0-.262.454v9.182a.524.524,0,0,0,.262.455l7.951,4.589a.526.526,0,0,0,.524,0l7.689-4.438,7.688,4.438a.526.526,0,0,0,.524,0l7.952-4.589a.526.526,0,0,0,.262-.455v-9.182a.525.525,0,0,0-.262-.454" transform="translate(4828 2417)" fill="#fff"/>
    <rect id="Прямоугольник_251" data-name="Прямоугольник 251" width="1.053" height="6.261" transform="translate(5461.976 3813.44)" fill="#fff"/>
    <path id="Контур_270" data-name="Контур 270" d="M638.4,1398.638h-.027l-.712,4.063h-.489l-.785-4.063h-.018v4.063H635.5v-6.261h1.228l.683,3.528h.01l.609-3.528h1.33v6.261H638.4Z" transform="translate(4828 2417)" fill="#fff"/>
    <path id="Контур_271" data-name="Контур 271" d="M640.872,1397.3v2.465h.389a.452.452,0,0,0,.516-.517v-1.44c0-.342-.157-.508-.516-.508Zm-1.052-.859h1.561c1.062,0,1.45.526,1.45,1.4v1.32c0,.878-.388,1.413-1.45,1.413h-.509v2.124H639.82Z" transform="translate(4828 2417)" fill="#fff"/>
    <path id="Контур_272" data-name="Контур 272" d="M644.288,1397.3v1.948h.351a.456.456,0,0,0,.517-.517v-.924c0-.341-.157-.507-.517-.507Zm0,2.53v2.872h-1.053v-6.261h1.534c1.061,0,1.449.526,1.449,1.4v.8c0,.674-.24,1.071-.84,1.209l1.006,2.845h-1.108Z" transform="translate(4828 2417)" fill="#fff"/>
    <path id="Контур_273" data-name="Контур 273" d="M646.651,1396.44h2.512v.859H647.7v1.791h1.043v.85H647.7v1.9h1.459v.859h-2.512Z" transform="translate(4828 2417)" fill="#fff"/>
    <path id="Контур_274" data-name="Контур 274" d="M649.486,1401.353v-.84h.979v.858c0,.351.157.554.517.554.332,0,.48-.221.48-.554v-.239a1.132,1.132,0,0,0-.471-.887l-.619-.619a2.11,2.11,0,0,1-.876-1.671v-.212a1.305,1.305,0,0,1,1.477-1.376c1.052,0,1.468.517,1.468,1.422v.508h-.96v-.545c0-.36-.167-.536-.5-.536a.461.461,0,0,0-.5.518v.129c0,.35.193.554.5.849l.674.665a2.1,2.1,0,0,1,.85,1.625v.305a1.357,1.357,0,0,1-1.533,1.468,1.3,1.3,0,0,1-1.487-1.422" transform="translate(4828 2417)" fill="#fff"/>
    <path id="Контур_275" data-name="Контур 275" d="M652.919,1396.44h2.511v.859h-1.458v1.791h1.043v.85h-1.043v1.9h1.458v.859h-2.511Z" transform="translate(4828 2417)" fill="#fff"/>
    <path id="Контур_276" data-name="Контур 276" d="M656.936,1401.777l-.536,1.413h-.59l.128-1.5h1Z" transform="translate(4828 2417)" fill="#fff"/>
    <rect id="Прямоугольник_252" data-name="Прямоугольник 252" width="1.053" height="6.261" transform="translate(5461.976 3822.21)" fill="#fff"/>
    <path id="Контур_277" data-name="Контур 277" d="M636.386,1407.537v3.934H635.5v-6.261h1.034l1.136,3.592v-3.592h.877v6.261h-.924Z" transform="translate(4828 2417)" fill="#fff"/>
    <path id="Контур_278" data-name="Контур 278" d="M639.894,1407.537v3.934h-.887v-6.261h1.034l1.136,3.592v-3.592h.878v6.261h-.924Z" transform="translate(4828 2417)" fill="#fff"/>
    <path id="Контур_279" data-name="Контур 279" d="M644.648,1410.022v-3.362c0-.378-.167-.647-.545-.647s-.536.269-.536.647v3.362c0,.378.167.645.536.645s.545-.267.545-.645m-2.133-.167v-3.029a1.6,1.6,0,1,1,3.185,0v3.029a1.6,1.6,0,1,1-3.185,0" transform="translate(4828 2417)" fill="#fff"/>
    <path id="Контур_280" data-name="Контур 280" d="M649.347,1405.21l-1.191,6.261h-1.145l-1.191-6.261h1.071l.72,4.368h.009l.739-4.368Z" transform="translate(4828 2417)" fill="#fff"/>
    <path id="Контур_281" data-name="Контур 281" d="M650.243,1409.486h.84l-.416-2.512h-.009Zm-1.321,1.985,1.182-6.261h1.2l1.191,6.261h-1.08l-.194-1.145H650.1l-.184,1.145Z" transform="translate(4828 2417)" fill="#fff"/>
    <path id="Контур_282" data-name="Контур 282" d="M653.815,1410.613h1.6v.859h-2.7v-.859l1.653-4.543h-1.486v-.859h2.595v.859Z" transform="translate(4828 2417)" fill="#fff"/>
    <rect id="Прямоугольник_253" data-name="Прямоугольник 253" width="1.053" height="6.261" transform="translate(5483.892 3822.21)" fill="#fff"/>
    <path id="Контур_283" data-name="Контур 283" d="M659.548,1410.022v-3.362c0-.378-.166-.647-.545-.647s-.535.269-.535.647v3.362c0,.378.166.645.535.645s.545-.267.545-.645m-2.133-.167v-3.029a1.6,1.6,0,1,1,3.185,0v3.029a1.6,1.6,0,1,1-3.185,0" transform="translate(4828 2417)" fill="#fff"/>
    <path id="Контур_284" data-name="Контур 284" d="M661.949,1407.537v3.934h-.887v-6.261H662.1l1.136,3.592v-3.592h.878v6.261h-.924Z" transform="translate(4828 2417)" fill="#fff"/>
    <path id="Контур_285" data-name="Контур 285" d="M664.57,1405.21h2.512v.859h-1.459v1.791h1.043v.85h-1.043v1.9h1.459v.859H664.57Z" transform="translate(4828 2417)" fill="#fff"/>
    <path id="Контур_286" data-name="Контур 286" d="M633.976,1413.981h2.512v.859h-1.459v1.791h1.044v.85h-1.044v1.9h1.459v.859h-2.512Z" transform="translate(4828 2417)" fill="#fff"/>
    <rect id="Прямоугольник_254" data-name="Прямоугольник 254" width="1.053" height="6.261" transform="translate(5465.743 3830.981)" fill="#fff"/>
    <path id="Контур_287" data-name="Контур 287" d="M640.152,1416.308v3.934h-.887v-6.261H640.3l1.136,3.592v-3.592h.877v6.261h-.923Z" transform="translate(4828 2417)" fill="#fff"/>
    <path id="Контур_288" data-name="Контур 288" d="M642.774,1413.981h2.465v.859h-1.412v1.791h1.053v.85h-1.053v2.761h-1.053Z" transform="translate(4828 2417)" fill="#fff"/>
    <path id="Контур_289" data-name="Контур 289" d="M646.615,1414.84v1.948h.351a.455.455,0,0,0,.517-.517v-.923c0-.342-.157-.508-.517-.508Zm0,2.53v2.872h-1.052v-6.261H647.1c1.061,0,1.449.527,1.449,1.4v.8c0,.674-.24,1.072-.84,1.21l1.006,2.844H647.6Z" transform="translate(4828 2417)" fill="#fff"/>
    <path id="Контур_290" data-name="Контур 290" d="M650.132,1418.257h.84l-.416-2.512h-.01Zm-1.321,1.985,1.182-6.261h1.2l1.19,6.261H651.3l-.194-1.145h-1.117l-.185,1.145Z" transform="translate(4828 2417)" fill="#fff"/>
    <path id="Контур_291" data-name="Контур 291" d="M652.532,1418.893v-.841h.979v.859c0,.351.157.554.517.554.332,0,.48-.22.48-.554v-.239a1.13,1.13,0,0,0-.471-.886l-.618-.619a2.111,2.111,0,0,1-.877-1.672v-.212a1.305,1.305,0,0,1,1.477-1.376c1.052,0,1.468.517,1.468,1.422v.508h-.96v-.545c0-.36-.167-.536-.5-.536a.462.462,0,0,0-.5.519v.127c0,.352.193.556.5.85l.674.665a2.1,2.1,0,0,1,.85,1.625v.306a1.357,1.357,0,0,1-1.533,1.468,1.3,1.3,0,0,1-1.487-1.423" transform="translate(4828 2417)" fill="#fff"/>
    <path id="Контур_292" data-name="Контур 292" d="M655.708,1413.981h2.8v.859h-.869v5.4h-1.061v-5.4h-.868Z" transform="translate(4828 2417)" fill="#fff"/>
    <path id="Контур_293" data-name="Контур 293" d="M659.908,1414.84v1.948h.351a.455.455,0,0,0,.517-.517v-.923c0-.342-.157-.508-.517-.508Zm0,2.53v2.872h-1.052v-6.261h1.533c1.061,0,1.449.527,1.449,1.4v.8c0,.674-.24,1.072-.84,1.21l1.007,2.844H660.9Z" transform="translate(4828 2417)" fill="#fff"/>
    <path id="Контур_294" data-name="Контур 294" d="M665.328,1413.981v4.737c0,.97-.415,1.6-1.487,1.6a1.412,1.412,0,0,1-1.57-1.6v-4.737h1.053v4.839c0,.369.148.619.517.619s.518-.25.518-.619v-4.839Z" transform="translate(4828 2417)" fill="#fff"/>
    <path id="Контур_295" data-name="Контур 295" d="M665.669,1413.981h2.8v.859H667.6v5.4h-1.062v-5.4h-.868Z" transform="translate(4828 2417)" fill="#fff"/>
    <path id="Контур_296" data-name="Контур 296" d="M668.7,1413.981h2.8v.859h-.868v5.4h-1.062v-5.4H668.7Z" transform="translate(4828 2417)" fill="#fff"/>
    <path id="Контур_297" data-name="Контур 297" d="M674.9,1413.981v4.737c0,.97-.415,1.6-1.487,1.6a1.412,1.412,0,0,1-1.57-1.6v-4.737H672.9v4.839c0,.369.148.619.517.619s.518-.25.518-.619v-4.839Z" transform="translate(4828 2417)" fill="#fff"/>
    <path id="Контур_298" data-name="Контур 298" d="M676.415,1414.84v1.948h.351a.455.455,0,0,0,.517-.517v-.923c0-.342-.157-.508-.517-.508Zm0,2.53v2.872h-1.053v-6.261H676.9c1.061,0,1.449.527,1.449,1.4v.8c0,.674-.24,1.072-.841,1.21l1.007,2.844H677.4Z" transform="translate(4828 2417)" fill="#fff"/>
    <path id="Контур_299" data-name="Контур 299" d="M678.778,1413.981h2.512v.859h-1.46v1.791h1.044v.85H679.83v1.9h1.46v.859h-2.512Z" transform="translate(4828 2417)" fill="#fff"/>
    <rect id="Прямоугольник_255" data-name="Прямоугольник 255" width="74.561" height="74.561" transform="translate(5444.066 3807.064)" fill="none"/>
  </g>
</svg>
