<svg xmlns="http://www.w3.org/2000/svg" width="74.561" height="74.561" viewBox="0 0 74.561 74.561">
  <g id="Сгруппировать_540" data-name="Сгруппировать 540" transform="translate(-5444.066 -3899.762)">
    <rect id="Прямоугольник_275" data-name="Прямоугольник 275" width="74.561" height="74.561" transform="translate(5444.066 3899.762)" fill="#5fa31f"/>
    <path id="Контур_390" data-name="Контур 390" d="M621.526,1491.73v2.639h.022l1.773-1.841h.023v11.508h2.527V1489h-2.018Z" transform="translate(4828 2417)" fill="#fff"/>
    <path id="Контур_391" data-name="Контур 391" d="M631.881,1493.77a2.281,2.281,0,0,0-2.128,1.042h-.023v-3.748h4.347V1489h-6.652v8.471h2.3v-.334c0-.885.4-1.374,1.109-1.374.776,0,1.088.533,1.088,1.353v3.637c0,.8-.289,1.352-1.066,1.352-.864,0-1.173-.577-1.173-1.463v-1.885H627.38v1.708c0,2.283.91,3.747,3.481,3.747,2.55,0,3.592-1.353,3.592-3.438v-3.68c0-2.373-1.219-3.326-2.572-3.326" transform="translate(4828 2417)" fill="#fff"/>
    <path id="Прямоугольник_276" data-name="Прямоугольник 276" d="M.164,0h2.2a.164.164,0,0,1,.164.164V5.6a.165.165,0,0,1-.165.165H.165A.165.165,0,0,1,0,5.595V.164A.164.164,0,0,1,.164,0Z" transform="translate(5472.581 3950.174)" fill="#fff"/>
    <path id="Контур_392" data-name="Контур 392" d="M671.071,1541.265H634.864a.17.17,0,0,0-.166.17v2.213a.165.165,0,0,0,.166.163h36.207a.166.166,0,0,0,.166-.163v-2.213a.171.171,0,0,0-.166-.17" transform="translate(4828 2417)" fill="#fff"/>
    <path id="Контур_393" data-name="Контур 393" d="M671.071,1545.664H634.864a.165.165,0,0,0-.166.163v2.22a.166.166,0,0,0,.166.163h36.207a.167.167,0,0,0,.166-.163v-2.22a.166.166,0,0,0-.166-.163" transform="translate(4828 2417)" fill="#fff"/>
    <path id="Контур_394" data-name="Контур 394" d="M664.181,1527.164a5.367,5.367,0,0,0-3.132-1.18,4.189,4.189,0,0,0-2.908,1.236.313.313,0,0,0-.1.228v.2a.313.313,0,0,0,.1.247.292.292,0,0,0,.256.06.32.32,0,0,0,.068-.019.474.474,0,0,0,.181-.114,2.929,2.929,0,0,1,1.45-.3,5.478,5.478,0,0,1,3.731,1.565l.033.028a.435.435,0,0,0,.315.132.428.428,0,0,0,.306-.128l.03-.031a5.5,5.5,0,0,1,3.735-1.566,2.929,2.929,0,0,1,1.454.3.563.563,0,0,0,.2.124.458.458,0,0,0,.213.005.309.309,0,0,0,.227-.3v-.175a.31.31,0,0,0-.1-.224,4.193,4.193,0,0,0-2.943-1.268,5.321,5.321,0,0,0-3.125,1.181" transform="translate(4828 2417)" fill="#fff"/>
    <path id="Контур_395" data-name="Контур 395" d="M661.934,1512.734a.3.3,0,0,0-.158.191l-.037.12a.308.308,0,0,0,.048.272.3.3,0,0,0,.224.122.117.117,0,0,0,.045,0,.4.4,0,0,0,.175-.044.878.878,0,0,1,.219-.025,3.142,3.142,0,0,1,2.587,1.69l.013.023a.367.367,0,0,0,.232.185.413.413,0,0,0,.115.018.389.389,0,0,0,.182-.045l.024-.012a3.607,3.607,0,0,1,1.615-.4,2.454,2.454,0,0,1,1.651.529.434.434,0,0,0,.122.135.9.9,0,0,0,.117.056.5.5,0,0,0,.053.008.181.181,0,0,0,.033,0,.327.327,0,0,0,.144-.036.3.3,0,0,0,.154-.186l.03-.106a.283.283,0,0,0,.012-.088.292.292,0,0,0-.042-.156,2.721,2.721,0,0,0-2.456-1.476,3.839,3.839,0,0,0-1.3.245,3.162,3.162,0,0,0-2.442-1.369,3.007,3.007,0,0,0-1.357.344" transform="translate(4828 2417)" fill="#fff"/>
    <path id="Контур_396" data-name="Контур 396" d="M654.284,1518.3l.01.164a.3.3,0,0,0,.145.244.307.307,0,0,0,.243.036.218.218,0,0,0,.053-.017.372.372,0,0,0,.156-.115,2.662,2.662,0,0,1,1.382-.314,4.476,4.476,0,0,1,2.863,1.083l.025.026a.424.424,0,0,0,.279.1h.027a.425.425,0,0,0,.284-.136l.025-.027a4.349,4.349,0,0,1,3.173-1.468,2.156,2.156,0,0,1,.944.173.464.464,0,0,0,.189.1.421.421,0,0,0,.132.009.4.4,0,0,0,.076-.019.306.306,0,0,0,.205-.311l-.008-.142a.3.3,0,0,0-.109-.214,3.548,3.548,0,0,0-2.315-.912,4.31,4.31,0,0,0-2.711,1.121,4.521,4.521,0,0,0-2.416-.8,3.453,3.453,0,0,0-2.568,1.188.313.313,0,0,0-.084.231" transform="translate(4828 2417)" fill="#fff"/>
    <path id="Контур_397" data-name="Контур 397" d="M635.961,1521.211a3.925,3.925,0,0,1,3.925-3.925c.085,0,.168.008.252.012a5.308,5.308,0,1,1,10.065,2.718,5.933,5.933,0,0,1-1.287,11.725c-.24,0-7.922-.046-7.922-.046a4.2,4.2,0,0,1-3.056-7.08,3.921,3.921,0,0,1-1.977-3.4" transform="translate(4828 2417)" fill="#fff"/>
    <path id="Контур_398" data-name="Контур 398" d="M642.605,1488.836l-1.2,6.3h-1.151l-1.2-6.3h1.077l.724,4.393h.01l.743-4.393Z" transform="translate(4828 2417)" fill="#fff"/>
    <rect id="Прямоугольник_277" data-name="Прямоугольник 277" width="1.059" height="6.297" transform="translate(5470.996 3905.836)" fill="#fff"/>
    <path id="Контур_399" data-name="Контур 399" d="M644.5,1488.836h2.814v.864h-.873v5.433h-1.068V1489.7H644.5Z" transform="translate(4828 2417)" fill="#fff"/>
    <path id="Контур_400" data-name="Контур 400" d="M648.457,1493.136h.846l-.419-2.526h-.009Zm-1.328,2,1.189-6.3h1.207l1.2,6.3h-1.087l-.2-1.151h-1.123l-.186,1.151Z" transform="translate(4828 2417)" fill="#fff"/>
    <path id="Контур_401" data-name="Контур 401" d="M639.159,1502.54v-.845h.985v.864c0,.353.158.557.52.557.334,0,.483-.223.483-.557v-.242a1.14,1.14,0,0,0-.474-.892l-.622-.622a2.123,2.123,0,0,1-.882-1.681v-.213a1.313,1.313,0,0,1,1.486-1.385c1.058,0,1.477.521,1.477,1.431v.511h-.966v-.548c0-.363-.168-.539-.5-.539a.464.464,0,0,0-.5.52v.13c0,.353.194.557.5.855l.677.668a2.113,2.113,0,0,1,.855,1.635v.306a1.363,1.363,0,0,1-1.541,1.477,1.312,1.312,0,0,1-1.5-1.43" transform="translate(4828 2417)" fill="#fff"/>
    <path id="Контур_402" data-name="Контур 402" d="M645.783,1497.6v4.765c0,.976-.418,1.607-1.5,1.607a1.42,1.42,0,0,1-1.578-1.607V1497.6h1.059v4.867c0,.372.148.622.519.622s.52-.25.52-.622V1497.6Z" transform="translate(4828 2417)" fill="#fff"/>
    <path id="Контур_403" data-name="Контур 403" d="M646.34,1497.6H647.4v5.434h1.263v.863H646.34Z" transform="translate(4828 2417)" fill="#fff"/>
    <path id="Контур_404" data-name="Контур 404" d="M649.1,1497.6h1.059v5.434h1.263v.863H649.1Z" transform="translate(4828 2417)" fill="#fff"/>
    <path id="Контур_405" data-name="Контур 405" d="M653.019,1501.9h.844l-.418-2.526h-.008Zm-1.328,2,1.188-6.3h1.208l1.2,6.3H654.2l-.2-1.151h-1.124l-.186,1.151Z" transform="translate(4828 2417)" fill="#fff"/>
    <path id="Контур_406" data-name="Контур 406" d="M656.483,1497.6H659.3v.864h-.873v5.433h-1.068v-5.433h-.873Z" transform="translate(4828 2417)" fill="#fff"/>
    <path id="Контур_407" data-name="Контур 407" d="M659.744,1497.6h2.526v.864H660.8v1.8h1.049v.855H660.8v1.913h1.467v.863h-2.526Z" transform="translate(4828 2417)" fill="#fff"/>
    <path id="Контур_408" data-name="Контур 408" d="M663.849,1498.462v1.96h.352a.459.459,0,0,0,.521-.52v-.929c0-.344-.158-.511-.521-.511Zm0,2.545v2.888H662.79v-6.3h1.542c1.068,0,1.458.53,1.458,1.413v.807c0,.678-.241,1.078-.845,1.217l1.012,2.86h-1.115Z" transform="translate(4828 2417)" fill="#fff"/>
    <path id="Контур_409" data-name="Контур 409" d="M667.378,1498.462v1.96h.353a.458.458,0,0,0,.52-.52v-.929c0-.344-.158-.511-.52-.511Zm0,2.545v2.888h-1.059v-6.3h1.542c1.068,0,1.459.53,1.459,1.413v.807c0,.678-.242,1.078-.846,1.217l1.012,2.86h-1.114Z" transform="translate(4828 2417)" fill="#fff"/>
    <path id="Контур_410" data-name="Контур 410" d="M671.011,1501.9h.845l-.418-2.526h-.01Zm-1.328,2,1.188-6.3h1.208l1.2,6.3h-1.086l-.2-1.151h-1.124l-.185,1.151Z" transform="translate(4828 2417)" fill="#fff"/>
    <rect id="Прямоугольник_278" data-name="Прямоугольник 278" width="74.561" height="74.561" transform="translate(5444.066 3899.762)" fill="none"/>
  </g>
</svg>
