<svg xmlns="http://www.w3.org/2000/svg" width="126" height="117.109" viewBox="0 0 126 117.109">
  <g id="agrovoltaico" transform="translate(-7445.6 -4775.017)">
    <text id="Agrovoltaico-2" data-name="Agrovoltaico" transform="translate(7445.6 4886.126)" fill="#fff" font-size="20" font-family="FilsonProBook, Filson Pro"><tspan x="0" y="0" letter-spacing="0.03em">A</tspan><tspan y="0" letter-spacing="0.029em">g</tspan><tspan y="0" letter-spacing="0.021em">r</tspan><tspan y="0" letter-spacing="0.011em">ov</tspan><tspan y="0" letter-spacing="0.032em">o</tspan><tspan y="0" letter-spacing="0.025em">l</tspan><tspan y="0" letter-spacing="0.043em">t</tspan><tspan y="0" letter-spacing="0.027em">a</tspan><tspan y="0" letter-spacing="0.029em">i</tspan><tspan y="0" letter-spacing="0.008em">c</tspan><tspan y="0">o</tspan></text>
    <rect id="Прямоугольник_156" data-name="Прямоугольник 156" width="73.453" height="6.627" transform="translate(7472.482 4809.947)" fill="#fff"/>
    <path id="Контур_98" data-name="Контур 98" d="M2802.235,1362.251c.444,4.431.884,8.83,1.331,13.29h-24.4c.441-4.425.88-8.84,1.325-13.29Z" transform="translate(4717 3431)" fill="#fff"/>
    <path id="Контур_99" data-name="Контур 99" d="M2828.1,1375.57h-21.177c-.444-4.42-.888-8.834-1.339-13.324.24-.012.456-.034.673-.034q8.94,0,17.882-.01c.469,0,.7.093.825.61,1,4.119,2.038,8.229,3.063,12.343.03.125.046.255.073.415" transform="translate(4717 3431)" fill="#fff"/>
    <path id="Контур_100" data-name="Контур 100" d="M2800.562,1345.528c.447,4.461.887,8.864,1.332,13.308h-21.065c.444-4.45.887-8.866,1.33-13.308Z" transform="translate(4717 3431)" fill="#fff"/>
    <path id="Контур_101" data-name="Контур 101" d="M2777.133,1362.253c-.448,4.483-.887,8.882-1.33,13.31H2756.26c.364-1.458.721-2.886,1.078-4.312.708-2.83,1.425-5.657,2.114-8.491.1-.391.221-.56.655-.558q8.268.021,16.536.012c.13,0,.26.02.49.039" transform="translate(4717 3431)" fill="#fff"/>
    <path id="Контур_102" data-name="Контур 102" d="M2823.914,1358.845h-18.666c-.445-4.438-.886-8.855-1.332-13.315.281-.013.479-.031.676-.031,5.132,0,10.263.005,15.4-.013a.682.682,0,0,1,.807.629c1.018,4.164,2.067,8.321,3.106,12.48a1.556,1.556,0,0,1,.014.25" transform="translate(4717 3431)" fill="#fff"/>
    <path id="Контур_103" data-name="Контур 103" d="M2777.473,1358.853h-17.034c.37-1.486.73-2.934,1.092-4.382.7-2.809,1.415-5.614,2.1-8.428.1-.39.217-.556.652-.555,4.682.016,9.364.009,14.045.012a4.388,4.388,0,0,1,.478.052c-.444,4.437-.886,8.842-1.332,13.3" transform="translate(4717 3431)" fill="#fff"/>
    <path id="Контур_104" data-name="Контур 104" d="M2762.37,1408.873a6.891,6.891,0,1,1-1.733-4.646c1.153,1.264,2.021,3.621,1.733,4.646" transform="translate(4717 3431)" fill="#fff"/>
    <path id="Контур_105" data-name="Контур 105" d="M2763.716,1415.848a6.905,6.905,0,0,1,6.877-6.921,6.815,6.815,0,0,1-6.877,6.921" transform="translate(4717 3431)" fill="#fff"/>
    <path id="Контур_106" data-name="Контур 106" d="M2763.69,1403.116a6.9,6.9,0,0,1,6.915-6.914c.6,3.173-3.464,7.255-6.915,6.914" transform="translate(4717 3431)" fill="#fff"/>
    <path id="Контур_107" data-name="Контур 107" d="M2770.63,1402.566a6.9,6.9,0,0,1-6.9,6.922,6.9,6.9,0,0,1,6.9-6.922" transform="translate(4717 3431)" fill="#fff"/>
    <path id="Контур_108" data-name="Контур 108" d="M2755.487,1408.293a6.952,6.952,0,0,1,6.926,6.9,6.822,6.822,0,0,1-6.926-6.9" transform="translate(4717 3431)" fill="#fff"/>
    <path id="Контур_109" data-name="Контур 109" d="M2762.405,1402.468a6.859,6.859,0,0,1-6.915-6.907,6.859,6.859,0,0,1,6.915,6.907" transform="translate(4717 3431)" fill="#fff"/>
    <path id="Контур_110" data-name="Контур 110" d="M2763.044,1388.86a6.918,6.918,0,0,1,.033,9.519,6.918,6.918,0,0,1-.033-9.519" transform="translate(4717 3431)" fill="#fff"/>
    <path id="Контур_111" data-name="Контур 111" d="M2781.794,1408.873a6.891,6.891,0,1,1-1.733-4.646c1.153,1.264,2.021,3.621,1.733,4.646" transform="translate(4717 3431)" fill="#fff"/>
    <path id="Контур_112" data-name="Контур 112" d="M2783.14,1415.848a6.906,6.906,0,0,1,6.877-6.921,6.816,6.816,0,0,1-6.877,6.921" transform="translate(4717 3431)" fill="#fff"/>
    <path id="Контур_113" data-name="Контур 113" d="M2783.114,1403.116a6.9,6.9,0,0,1,6.914-6.914c.6,3.173-3.463,7.255-6.914,6.914" transform="translate(4717 3431)" fill="#fff"/>
    <path id="Контур_114" data-name="Контур 114" d="M2790.054,1402.566a6.9,6.9,0,0,1-6.9,6.922,6.9,6.9,0,0,1,6.9-6.922" transform="translate(4717 3431)" fill="#fff"/>
    <path id="Контур_115" data-name="Контур 115" d="M2774.911,1408.293a6.952,6.952,0,0,1,6.926,6.9,6.822,6.822,0,0,1-6.926-6.9" transform="translate(4717 3431)" fill="#fff"/>
    <path id="Контур_116" data-name="Контур 116" d="M2781.829,1402.468a6.858,6.858,0,0,1-6.914-6.907,6.858,6.858,0,0,1,6.914,6.907" transform="translate(4717 3431)" fill="#fff"/>
    <path id="Контур_117" data-name="Контур 117" d="M2782.468,1388.86a6.917,6.917,0,0,1,.033,9.519,6.917,6.917,0,0,1-.033-9.519" transform="translate(4717 3431)" fill="#fff"/>
    <path id="Контур_118" data-name="Контур 118" d="M2801.218,1408.873a6.891,6.891,0,1,1-1.733-4.646c1.153,1.264,2.021,3.621,1.733,4.646" transform="translate(4717 3431)" fill="#fff"/>
    <path id="Контур_119" data-name="Контур 119" d="M2802.564,1415.848a6.906,6.906,0,0,1,6.877-6.921,6.815,6.815,0,0,1-6.877,6.921" transform="translate(4717 3431)" fill="#fff"/>
    <path id="Контур_120" data-name="Контур 120" d="M2802.538,1403.116a6.9,6.9,0,0,1,6.915-6.914c.6,3.173-3.464,7.255-6.915,6.914" transform="translate(4717 3431)" fill="#fff"/>
    <path id="Контур_121" data-name="Контур 121" d="M2809.478,1402.566a6.9,6.9,0,0,1-6.9,6.922,6.9,6.9,0,0,1,6.9-6.922" transform="translate(4717 3431)" fill="#fff"/>
    <path id="Контур_122" data-name="Контур 122" d="M2794.334,1408.293a6.952,6.952,0,0,1,6.926,6.9,6.822,6.822,0,0,1-6.926-6.9" transform="translate(4717 3431)" fill="#fff"/>
    <path id="Контур_123" data-name="Контур 123" d="M2801.253,1402.468a6.86,6.86,0,0,1-6.915-6.907,6.86,6.86,0,0,1,6.915,6.907" transform="translate(4717 3431)" fill="#fff"/>
    <path id="Контур_124" data-name="Контур 124" d="M2801.892,1388.86a6.917,6.917,0,0,1,.033,9.519,6.917,6.917,0,0,1-.033-9.519" transform="translate(4717 3431)" fill="#fff"/>
    <path id="Контур_125" data-name="Контур 125" d="M2820.642,1408.873a6.891,6.891,0,1,1-1.733-4.646c1.153,1.264,2.021,3.621,1.733,4.646" transform="translate(4717 3431)" fill="#fff"/>
    <path id="Контур_126" data-name="Контур 126" d="M2821.988,1415.848a6.906,6.906,0,0,1,6.878-6.921,6.817,6.817,0,0,1-6.878,6.921" transform="translate(4717 3431)" fill="#fff"/>
    <path id="Контур_127" data-name="Контур 127" d="M2821.962,1403.116a6.9,6.9,0,0,1,6.915-6.914c.6,3.173-3.464,7.255-6.915,6.914" transform="translate(4717 3431)" fill="#fff"/>
    <path id="Контур_128" data-name="Контур 128" d="M2828.9,1402.566a6.9,6.9,0,0,1-6.9,6.922,6.9,6.9,0,0,1,6.9-6.922" transform="translate(4717 3431)" fill="#fff"/>
    <path id="Контур_129" data-name="Контур 129" d="M2813.758,1408.293a6.952,6.952,0,0,1,6.926,6.9,6.822,6.822,0,0,1-6.926-6.9" transform="translate(4717 3431)" fill="#fff"/>
    <path id="Контур_130" data-name="Контур 130" d="M2820.677,1402.468a6.859,6.859,0,0,1-6.915-6.907,6.859,6.859,0,0,1,6.915,6.907" transform="translate(4717 3431)" fill="#fff"/>
    <path id="Контур_131" data-name="Контур 131" d="M2821.316,1388.86a6.917,6.917,0,0,1,.033,9.519,6.917,6.917,0,0,1-.033-9.519" transform="translate(4717 3431)" fill="#fff"/>
    <rect id="Прямоугольник_157" data-name="Прямоугольник 157" width="73.453" height="73.449" transform="translate(7472.482 4775.017)" fill="none"/>
  </g>
</svg>
