<svg xmlns="http://www.w3.org/2000/svg" width="73.453" height="117.109" viewBox="0 0 73.453 117.109">
  <g id="biogas" transform="translate(-7266.943 -4775.017)">
    <text id="Biogas-2" data-name="Biogas" transform="translate(7269.658 4886.126)" fill="#fff" font-size="20" font-family="FilsonProBook, Filson Pro"><tspan x="0" y="0" letter-spacing="0.035em">B</tspan><tspan y="0" letter-spacing="0.027em">i</tspan><tspan y="0" letter-spacing="0.039em">o</tspan><tspan y="0" letter-spacing="0.035em">g</tspan><tspan y="0" letter-spacing="0.034em">a</tspan><tspan y="0">s</tspan></text>
    <rect id="Прямоугольник_161" data-name="Прямоугольник 161" width="25.489" height="3.484" transform="translate(7290.926 4841.244)" fill="#fff"/>
    <rect id="Прямоугольник_162" data-name="Прямоугольник 162" width="25.489" height="3.484" transform="translate(7290.926 4778.756)" fill="#fff"/>
    <rect id="Прямоугольник_163" data-name="Прямоугольник 163" width="21.353" height="11.464" transform="translate(7292.993 4785.275)" fill="#fff"/>
    <path id="Контур_137" data-name="Контур 137" d="M2601.918,1368.773h-30.5a5.263,5.263,0,0,0-5.264,5.263v27.911a5.263,5.263,0,0,0,5.264,5.263h30.5a5.263,5.263,0,0,0,5.263-5.263v-27.911a5.263,5.263,0,0,0-5.263-5.263m-28.911,11.055c8.12-.3,16.394,6.775,16.346,16.328-9.138.308-16.763-7.961-16.346-16.328m17.48,16.307a9.757,9.757,0,0,1,9.777-9.775c.851,4.486-4.9,10.256-9.777,9.775" transform="translate(4717 3431)" fill="#fff"/>
    <rect id="Прямоугольник_164" data-name="Прямоугольник 164" width="73.453" height="73.449" transform="translate(7266.943 4775.017)" fill="none"/>
  </g>
</svg>
