<svg xmlns="http://www.w3.org/2000/svg" width="73.453" height="114.189" viewBox="0 0 73.453 114.189">
  <g id="ecolico" transform="translate(-7266.943 -4609)">
    <text id="Eolico" transform="translate(7274.38 4717.189)" fill="#fff" font-size="20" font-family="FilsonProBook, Filson Pro"><tspan x="0" y="0" letter-spacing="0.01em">E</tspan><tspan y="0" letter-spacing="0.032em">o</tspan><tspan y="0" letter-spacing="0.024em">l</tspan><tspan y="0" letter-spacing="0.029em">i</tspan><tspan y="0" letter-spacing="0.008em">c</tspan><tspan y="0">o</tspan></text>
    <path id="Контур_138" data-name="Контур 138" d="M2574.489,1210.761h2.863l2.431,40.752h-7.721q1.218-20.43,2.427-40.752" transform="translate(4717 3431)" fill="#fff"/>
    <path id="Контур_139" data-name="Контур 139" d="M2575.981,1200.349a3.975,3.975,0,0,1,3.9,3.874,3.953,3.953,0,1,1-7.906.028,3.974,3.974,0,0,1,4.011-3.9" transform="translate(4717 3431)" fill="#fff"/>
    <path id="Контур_140" data-name="Контур 140" d="M2576.81,1197.719h-1.773q-.752-9.828-1.506-19.719h4.783q-.756,9.886-1.5,19.719" transform="translate(4717 3431)" fill="#fff"/>
    <path id="Контур_141" data-name="Контур 141" d="M2569.815,1206.909l.908,1.523-16.168,11.39c-.822-1.379-1.618-2.714-2.448-4.108l17.708-8.8" transform="translate(4717 3431)" fill="#fff"/>
    <path id="Контур_142" data-name="Контур 142" d="M2581.174,1208.369l.889-1.534,17.819,8.581-2.4,4.137-16.311-11.184" transform="translate(4717 3431)" fill="#fff"/>
    <path id="Контур_143" data-name="Контур 143" d="M2605.8,1226.745h1.741q.735,12.348,1.477,24.768h-4.693q.74-12.417,1.475-24.768" transform="translate(4717 3431)" fill="#fff"/>
    <path id="Контур_144" data-name="Контур 144" d="M2606.707,1220.417a2.416,2.416,0,0,1,2.368,2.355,2.4,2.4,0,1,1-4.806.017,2.416,2.416,0,0,1,2.438-2.372" transform="translate(4717 3431)" fill="#fff"/>
    <path id="Контур_145" data-name="Контур 145" d="M2607.211,1218.819h-1.078q-.456-5.974-.915-11.985h2.907q-.459,6.009-.914,11.985" transform="translate(4717 3431)" fill="#fff"/>
    <path id="Контур_146" data-name="Контур 146" d="M2602.959,1224.4l.552.926q-4.9,3.452-9.826,6.922c-.5-.838-.984-1.65-1.489-2.5l10.763-5.352" transform="translate(4717 3431)" fill="#fff"/>
    <path id="Контур_147" data-name="Контур 147" d="M2609.863,1225.291c.19-.327.356-.616.54-.933l10.829,5.216c-.488.844-.961,1.661-1.456,2.514l-9.913-6.8" transform="translate(4717 3431)" fill="#fff"/>
    <rect id="Прямоугольник_165" data-name="Прямоугольник 165" width="73.453" height="73.45" transform="translate(7266.943 4609)" fill="none"/>
  </g>
</svg>
