<svg xmlns="http://www.w3.org/2000/svg" width="124" height="114.189" viewBox="0 0 124 114.189">
  <g id="fotovaltaico" transform="translate(-7035.016 -4609)">
    <text id="Fotovoltaico" transform="translate(7035.016 4717.189)" fill="#fff" font-size="20" font-family="FilsonProBook, Filson Pro"><tspan x="0" y="0" letter-spacing="0.016em">F</tspan><tspan y="0" letter-spacing="0.022em">o</tspan><tspan y="0" letter-spacing="0.044em">t</tspan><tspan y="0" letter-spacing="0.011em">ov</tspan><tspan y="0" letter-spacing="0.032em">o</tspan><tspan y="0" letter-spacing="0.025em">l</tspan><tspan y="0" letter-spacing="0.044em">t</tspan><tspan y="0" letter-spacing="0.027em">a</tspan><tspan y="0" letter-spacing="0.029em">i</tspan><tspan y="0" letter-spacing="0.007em">c</tspan><tspan y="0">o</tspan></text>
    <rect id="Прямоугольник_154" data-name="Прямоугольник 154" width="73.453" height="6.627" transform="translate(7061.106 4659.163)" fill="#fff"/>
    <path id="Контур_91" data-name="Контур 91" d="M2390.858,1211.467c.444,4.43.884,8.83,1.331,13.29h-24.4c.441-4.425.881-8.84,1.325-13.29Z" transform="translate(4717 3431)" fill="#fff"/>
    <path id="Контур_92" data-name="Контур 92" d="M2416.724,1224.786h-21.177c-.444-4.42-.888-8.834-1.339-13.324.24-.012.456-.034.672-.034q8.942,0,17.882-.01c.47,0,.7.093.825.61,1,4.119,2.038,8.229,3.063,12.343.031.125.046.255.074.415" transform="translate(4717 3431)" fill="#fff"/>
    <path id="Контур_93" data-name="Контур 93" d="M2389.186,1194.744c.446,4.461.887,8.864,1.332,13.308h-21.066c.445-4.451.887-8.867,1.331-13.308Z" transform="translate(4717 3431)" fill="#fff"/>
    <path id="Контур_94" data-name="Контур 94" d="M2365.757,1211.469c-.447,4.483-.887,8.881-1.33,13.309h-19.543c.364-1.458.721-2.885,1.078-4.312.708-2.83,1.425-5.656,2.114-8.49.1-.392.221-.56.655-.559q8.269.023,16.537.012c.13,0,.26.021.489.04" transform="translate(4717 3431)" fill="#fff"/>
    <path id="Контур_95" data-name="Контур 95" d="M2412.537,1208.061h-18.666c-.445-4.439-.885-8.855-1.332-13.315.281-.013.479-.032.676-.032,5.132,0,10.263.006,15.4-.012a.681.681,0,0,1,.807.629c1.018,4.164,2.067,8.32,3.106,12.48a1.555,1.555,0,0,1,.014.25" transform="translate(4717 3431)" fill="#fff"/>
    <path id="Контур_96" data-name="Контур 96" d="M2366.1,1208.068h-17.034c.371-1.486.73-2.934,1.093-4.382.7-2.809,1.414-5.614,2.1-8.428.1-.39.217-.556.653-.555,4.682.016,9.363.009,14.044.012a4.395,4.395,0,0,1,.478.052c-.444,4.437-.885,8.842-1.332,13.3" transform="translate(4717 3431)" fill="#fff"/>
    <path id="Контур_97" data-name="Контур 97" d="M2377.461,1244.837v-6.621h6.714v6.6h8.342l1.677,6.7h-26.726c.131-.55.254-1.088.387-1.623.351-1.418.739-2.828,1.048-4.255.13-.609.351-.832,1.014-.817,2.249.051,4.5.019,6.751.019Z" transform="translate(4717 3431)" fill="#fff"/>
    <rect id="Прямоугольник_155" data-name="Прямоугольник 155" width="73.453" height="73.45" transform="translate(7061.106 4609)" fill="none"/>
  </g>
</svg>
