<svg xmlns="http://www.w3.org/2000/svg" width="153" height="117.108" viewBox="0 0 153 117.108">
  <g id="idrogeno_verde" data-name="idrogeno verde" transform="translate(-7020.448 -4941.035)">
    <text id="Idrogeno_verde-2" data-name="Idrogeno verde" transform="translate(7020.448 5052.144)" fill="#fff" font-size="20" font-family="FilsonProBook, Filson Pro"><tspan x="0" y="0" letter-spacing="0.034em">I</tspan><tspan y="0" letter-spacing="0.029em">d</tspan><tspan y="0" letter-spacing="0.021em">r</tspan><tspan y="0" letter-spacing="0.039em">o</tspan><tspan y="0" letter-spacing="0.034em">gen</tspan><tspan y="0" letter-spacing="0.039em">o</tspan><tspan y="0" letter-spacing="0.04em"> </tspan><tspan y="0" letter-spacing="0.011em">v</tspan><tspan y="0" letter-spacing="0.034em">e</tspan><tspan y="0" letter-spacing="0.025em">r</tspan><tspan y="0" letter-spacing="0.034em">d</tspan><tspan y="0">e</tspan></text>
    <path id="Контур_132" data-name="Контур 132" d="M2401.8,1529.658h-41.933a12.072,12.072,0,0,0-12.072,12.072v15.8a12.072,12.072,0,0,0,12.072,12.073H2401.8a12.072,12.072,0,0,0,12.072-12.073v-15.8a12.072,12.072,0,0,0-12.072-12.072m-37.971,9.81c10.1-.377,20.4,8.432,20.344,20.322-11.373.384-20.863-9.907-20.344-20.322m21.756,20.3a12.144,12.144,0,0,1,12.168-12.168c1.061,5.584-6.094,12.765-12.168,12.168" transform="translate(4717 3431)" fill="#fff"/>
    <rect id="Прямоугольник_158" data-name="Прямоугольник 158" width="14.08" height="6.902" transform="translate(7102.435 4951.271)" fill="#fff"/>
    <path id="Контур_133" data-name="Контур 133" d="M2385.381,1517.787h14.188a1.725,1.725,0,1,0,0-3.451h-14.188a1.725,1.725,0,1,0,0,3.451" transform="translate(4717 3431)" fill="#fff"/>
    <path id="Контур_134" data-name="Контур 134" d="M2359.236,1576.021a3.162,3.162,0,1,0,6.324,0v-3.162h-6.324Z" transform="translate(4717 3431)" fill="#fff"/>
    <path id="Контур_135" data-name="Контур 135" d="M2396.107,1576.021a3.162,3.162,0,1,0,6.324,0v-3.162h-6.324Z" transform="translate(4717 3431)" fill="#fff"/>
    <rect id="Прямоугольник_159" data-name="Прямоугольник 159" width="73.453" height="73.449" transform="translate(7061.106 4941.035)" fill="none"/>
  </g>
</svg>
