<svg xmlns="http://www.w3.org/2000/svg" width="124" height="117.109" viewBox="0 0 124 117.109">
  <g id="idroelettrico" transform="translate(-7030.223 -4775.017)">
    <text id="Idroelettrico-2" data-name="Idroelettrico" transform="translate(7030.223 4886.126)" fill="#fff" font-size="20" font-family="FilsonProBook, Filson Pro"><tspan x="0" y="0" letter-spacing="0.034em">I</tspan><tspan y="0" letter-spacing="0.029em">d</tspan><tspan y="0" letter-spacing="0.021em">r</tspan><tspan y="0" letter-spacing="0.037em">o</tspan><tspan y="0" letter-spacing="0.033em">e</tspan><tspan y="0" letter-spacing="0.032em">l</tspan><tspan y="0" letter-spacing="0.025em">e</tspan><tspan y="0" letter-spacing="0.036em">t</tspan><tspan y="0" letter-spacing="0.035em">t</tspan><tspan y="0" letter-spacing="0.031em">r</tspan><tspan y="0" letter-spacing="0.029em">i</tspan><tspan y="0" letter-spacing="0.007em">c</tspan><tspan y="0">o</tspan></text>
    <path id="Контур_136" data-name="Контур 136" d="M2396.724,1382.546a25.509,25.509,0,0,0-3.406-6.547q-8.775-12.915-17.546-25.837c-.122-.178-.252-.351-.4-.563-.134.178-.248.317-.349.465q-8.865,13.112-17.736,26.22a23.6,23.6,0,0,0-4.019,10.236,22.307,22.307,0,0,0,8.382,20.521,21.982,21.982,0,0,0,17.7,4.511,21.47,21.47,0,0,0,13.133-7.465,21.88,21.88,0,0,0,4.558-8.56,22.455,22.455,0,0,0-.315-12.981m-10.257,2.593c-1.346,1.7-2.713,3.387-4.073,5.08-.1.128-.206.26-.31.393l-4.044,5.05c-.837,1.04-1.678,2.076-2.513,3.118-.277.346-.554.7-.838,1.067l-1.717,2.144h.005q-1.319,1.6-2.6,3.228c-.193.243-.4.419-.71.279-.33-.149-.282-.442-.208-.729.288-1.133.573-2.266.855-3.382l.25-.989h0c.665-2.618,1.315-5.179,1.982-7.8h-.011l.244-.964h0c.086-.345.164-.652.254-1.008h-1.2c-2.281,0-4.564.009-6.845-.012a.966.966,0,0,1-.678-.286c-.088-.11.006-.471.132-.631l5.969-7.447c.009-.012.018-.019.029-.031.621-.788,1.252-1.568,1.879-2.351l5.153-6.43,0,0c.163-.2.326-.407.489-.611q1.316-1.646,2.628-3.291a.526.526,0,0,1,.695-.212c.276.141.264.39.194.655-.147.557-.283,1.118-.424,1.678l-.52,2.106-.289,1.163a.723.723,0,0,0-.059.166c-.259,1.08-.545,2.152-.817,3.229-.365,1.446-.726,2.893-1.111,4.429l.038,0-.263,1.06a.476.476,0,0,0-.1.419h.508c2.535,0,5.07-.006,7.6.013a.732.732,0,0,1,.574.273.748.748,0,0,1-.14.631" transform="translate(4717 3431)" fill="#fff"/>
    <rect id="Прямоугольник_160" data-name="Прямоугольник 160" width="73.454" height="73.449" transform="translate(7055.727 4775.017)" fill="none"/>
  </g>
</svg>
