<svg xmlns="http://www.w3.org/2000/svg" width="80" height="114.189" viewBox="0 0 80 114.189">
  <g id="storage" transform="translate(-7469.3 -4609)">
    <text id="Storage-2" data-name="Storage" transform="translate(7469.3 4717.189)" fill="#fff" font-size="20" font-family="FilsonProBook, Filson Pro"><tspan x="0" y="0" letter-spacing="0.023em">S</tspan><tspan y="0" letter-spacing="0.043em">t</tspan><tspan y="0" letter-spacing="0.033em">o</tspan><tspan y="0" letter-spacing="0.025em">r</tspan><tspan y="0" letter-spacing="0.035em">a</tspan><tspan y="0" letter-spacing="0.034em">g</tspan><tspan y="0">e</tspan></text>
    <path id="Контур_148" data-name="Контур 148" d="M2783.413,1191a20.21,20.21,0,0,1-5.529-1.512,6.457,6.457,0,0,1-1.367-.882.807.807,0,0,1-.03-1.343,5.851,5.851,0,0,1,2.263-1.266,26.856,26.856,0,0,1,5.422-1.254,60.018,60.018,0,0,1,10.658-.516,46.359,46.359,0,0,1,9.307,1.138,12.349,12.349,0,0,1,3.719,1.385,3.72,3.72,0,0,1,.646.5.833.833,0,0,1,0,1.355,5.634,5.634,0,0,1-2.157,1.222,26.973,26.973,0,0,1-6.7,1.422c-1.145.1-2.293.189-3.44.267a56.126,56.126,0,0,1-7.866-.014c-1.718-.124-3.618-.29-4.928-.5" transform="translate(4717 3431)" fill="#fff"/>
    <path id="Контур_149" data-name="Контур 149" d="M2812.581,1232.07c0-.135-.011-.267-.016-.335l0-2.26a1.9,1.9,0,0,0,.028-.268c-.038-2.23-.014-4.459-.014-6.687v-.423l-.008,0v-2.242c0-.045.013-.086.013-.132-.013-2.294,0-4.588-.006-6.882v-2.7c0-.044.013-.08.012-.124-.009-.642-.007-1.284-.01-1.927l.006-7.547c-.019-2.342-.008-4.685-.008-7.026,0-.108-.014-.216-.025-.392-.335.215-.6.4-.872.558a17.438,17.438,0,0,1-4.8,1.734,61.2,61.2,0,0,1-12.129,1.411,75.325,75.325,0,0,1-9.651-.319,47.653,47.653,0,0,1-7.948-1.334,15.906,15.906,0,0,1-3.872-1.517l-.865-.55v5.163c0,.691,0,1.38-.012,2.07,0,.043.01.076.011.117v8.318c-.006.33-.009.662-.02.991a2.748,2.748,0,0,0,.02.435v24.864h.006q0,1.978,0,3.958a1.6,1.6,0,0,0,.746,1.325,11.2,11.2,0,0,0,3.646,1.65,50.552,50.552,0,0,0,13.005,1.776c2.608.06,5.222-.035,7.832-.125a47.033,47.033,0,0,0,7.892-.985,19.988,19.988,0,0,0,5.529-1.8,2.428,2.428,0,0,0,1.532-2.445c-.095-2.113-.025-4.234-.026-6.352m-25.068,3.457c-.282-.128-.241-.379-.178-.625.247-.97.491-1.941.732-2.9l.214-.848h0c.569-2.241,1.126-4.436,1.7-6.683h-.008l.209-.825h0c.074-.3.14-.559.217-.864h-1.031c-1.954,0-3.909.007-5.863-.01a.836.836,0,0,1-.581-.245c-.075-.094,0-.4.113-.54l5.113-6.38c.008-.01.016-.016.025-.027.532-.674,1.073-1.342,1.61-2.013l4.414-5.508,0,0,.419-.522q1.125-1.411,2.25-2.819a.45.45,0,0,1,.595-.182c.237.121.227.334.167.56-.126.478-.244.958-.363,1.438-.145.582-.288,1.165-.446,1.8l-.248,1a.623.623,0,0,0-.05.143c-.222.924-.467,1.843-.7,2.765-.313,1.239-.622,2.479-.952,3.794l.033,0-.226.909a.4.4,0,0,0-.09.359h.435c2.171,0,4.343-.005,6.514.01a.629.629,0,0,1,.493.234.641.641,0,0,1-.121.54c-1.153,1.459-2.324,2.9-3.488,4.351-.088.11-.178.224-.267.338l-3.463,4.326q-1.077,1.335-2.153,2.67c-.237.3-.475.6-.718.915l-1.471,1.836h.005q-1.129,1.371-2.231,2.764c-.164.209-.344.36-.608.24" transform="translate(4717 3431)" fill="#fff"/>
    <rect id="Прямоугольник_166" data-name="Прямоугольник 166" width="73.453" height="73.45" transform="translate(7472.779 4609)" fill="none"/>
  </g>
</svg>
