<svg width="27" height="27" viewBox="0 0 27 27" fill="none" xmlns="http://www.w3.org/2000/svg">
<path d="M26.3 1.9V24.4C26.3 25.4 25.5 26.3 24.4 26.3H1.9C0.9 26.3 0 25.5 0 24.4V1.9C0 0.8 0.8 0 1.9 0H24.4C25.4 0 26.3 0.8 26.3 1.9ZM8.2 6C8.2 4.8 7.2 3.7 5.9 3.7C4.7 3.7 3.6 4.7 3.6 6C3.6 7.3 4.6 8.3 5.9 8.3C7.2 8.3 8.2 7.3 8.2 6ZM7.9 22.5V10H4V22.5H7.9ZM22.5 15.6C22.5 12.2 21.8 9.6 17.8 9.6C15.9 9.6 14.6 10.6 14.1 11.6H14V10H10.3V22.5H14.2V16.3C14.2 14.7 14.5 13.1 16.5 13.1C18.5 13.1 18.5 15 18.5 16.4V22.5H22.4V15.6H22.5Z" fill="#828588"/>
</svg>
