<svg width="31" height="24" viewBox="0 0 31 24" fill="none" xmlns="http://www.w3.org/2000/svg">
<path d="M11.4 13.3999C3.60001 7.7999 3.00001 7.2999 1.20001 5.8999C0.900012 5.5999 0.700012 5.1999 0.700012 4.7999V3.6999C0.700012 2.0999 2.00001 0.899902 3.50001 0.899902H27.9C29.5 0.899902 30.7 2.1999 30.7 3.6999V4.7999C30.7 5.1999 30.5 5.5999 30.2 5.8999C28.4 7.2999 27.8 7.7999 20 13.3999C19 14.0999 17.1 15.7999 15.7 15.7999C14.3 15.8999 12.4 14.1999 11.4 13.3999ZM30.7 8.5999V20.5999C30.7 22.1999 29.4 23.3999 27.9 23.3999H3.50001C1.90001 23.3999 0.700012 22.0999 0.700012 20.5999V8.5999C0.700012 8.2999 1.00001 8.0999 1.30001 8.2999C2.60001 9.2999 4.40001 10.5999 10.3 14.9999C11.5 15.8999 13.6 17.7999 15.7 17.7999C17.8 17.7999 19.9 15.8999 21.1 14.9999C27.1 10.6999 28.8 9.3999 30.1 8.2999C30.3 8.0999 30.7 8.2999 30.7 8.5999Z" fill="#828588"/>
</svg>
